<?xml version="1.0" encoding="UTF-8" standalone="no"?>
<!-- Generator: Adobe Illustrator 27.5.0, SVG Export Plug-In . SVG Version: 6.00 Build 0)  -->
<svg version="1.1" id="Calque_1" x="0px" y="0px" viewBox="0 0 144.6 37.200002" xml:space="preserve" width="144.60001" height="37.200001" xmlns="http://www.w3.org/2000/svg" xmlns:svg="http://www.w3.org/2000/svg"><defs id="defs7"/>
<style type="text/css" id="style1">
	.st0{fill:#FFFFFF;}
	.st1{fill:#C3D331;}
</style>
<g id="g7">
	<path class="st0" d="M 8.8,0.5 V 36.9 H 0 V 0.5 Z" id="path1"/>
	<path class="st0" d="M 33.9,11.4 C 33.8,10.1 33.3,9.1 32.3,8.4 31.4,7.7 30,7.3 28.3,7.3 27.2,7.3 26.2,7.4 25.5,7.7 24.8,8 24.2,8.4 23.8,8.9 23.4,9.4 23.2,10 23.2,10.7 23.2,11.2 23.3,11.7 23.5,12.1 23.7,12.5 24.1,12.9 24.6,13.2 25.1,13.5 25.6,13.8 26.3,14 27,14.2 27.7,14.4 28.5,14.6 L 31.6,15.3 C 33.4,15.7 35,16.2 36.4,16.9 37.8,17.6 38.9,18.3 39.9,19.2 40.8,20.1 41.6,21.1 42,22.3 42.4,23.5 42.7,24.8 42.7,26.2 42.7,28.5 42.1,30.5 41,32.1 39.9,33.7 38.2,35 36.1,35.9 34,36.8 31.4,37.2 28.3,37.2 25.3,37.2 22.6,36.7 20.3,35.8 18,34.9 16.3,33.5 15,31.6 13.7,29.7 13.1,27.4 13.1,24.6 H 21.5 C 21.6,25.8 21.9,26.7 22.4,27.5 23,28.3 23.7,28.9 24.7,29.3 25.7,29.7 26.8,29.9 28.1,29.9 29.3,29.9 30.3,29.7 31.1,29.4 31.9,29.1 32.6,28.6 33,28.1 33.4,27.5 33.7,26.9 33.7,26.1 33.7,25.4 33.5,24.8 33.1,24.3 32.7,23.8 32,23.4 31.2,23 30.3,22.6 29.2,22.3 27.9,22 L 24.1,21.1 C 21,20.4 18.5,19.2 16.7,17.6 14.9,16 14,13.8 14,11 14,8.8 14.6,6.8 15.8,5.1 17,3.4 18.7,2.1 20.9,1.1 23.2,0.5 25.7,0 28.4,0 31.2,0 33.7,0.5 35.7,1.4 37.8,2.4 39.4,3.7 40.5,5.4 41.6,7.1 42.2,9.1 42.3,11.4 Z" id="path2"/>
	<path class="st0" d="M 46.1,7.6 V 0.5 H 76.8 V 7.6 H 65.8 V 36.8 H 57.1 V 7.6 Z" id="path3"/>
	<path class="st1" d="M 81.2,36.9 V 0.5 H 106.6 V 7.6 H 90 V 15.1 H 105.3 V 22.3 H 90 V 29.8 H 106.6 V 36.9 Z" id="path4"/>
	<path class="st1" d="M 120.9,0.5 127.5,12 H 127.8 L 134.5,0.5 H 144.3 L 133.3,18.7 144.6,36.9 H 134.5 L 127.7,25.3 H 127.4 L 120.6,36.9 H 110.6 L 122,18.7 111,0.5 Z" id="path5"/>
	
	
</g>
</svg>