<svg width="200" height="48" xmlns="http://www.w3.org/2000/svg">
    <defs>
        <linearGradient x1="100%" y1="50%" x2="0%" y2="50%" id="a">
            <stop stop-color="#51A7C5" offset="0%"/>
            <stop stop-color="#458CA5" offset="100%"/>
        </linearGradient>
    </defs>
    <g fill-rule="nonzero" fill="none">
        <path d="M6.972 1.06c.33.01.661.01.993.005l.994-.019c.828-.012 1.654 0 2.467.15-.045 15.608-.023 31.217 0 46.804H0V1.015C2.317.948 4.656.993 6.972 1.06zM105.08.993c0 2.834.067 5.668-.023 8.48-4.363 0-8.704-.046-13.067.022V48H80.7c-.046-12.82-.023-25.663 0-38.483-4.387-.112-8.772 0-13.158-.045 0-2.811 0-5.645-.023-8.457C80.047.97 92.552.993 105.08.993zm-54.25.45c1.53.382 3.014.944 4.499 1.552.022 3.396 0 6.77 0 10.166-.427 0-.9.135-1.26-.158C49.953 9.945 44.78 8.1 39.607 8.595c-1.934.18-3.98.9-5.173 2.52-1.214 1.596-.72 4.227 1.057 5.195 1.53.922 3.307 1.26 5.016 1.686 3.374.81 6.815 1.597 9.919 3.172 2.631 1.35 5.015 3.486 6.005 6.365.99 2.946.99 6.207.247 9.199-1.192 4.408-4.835 7.782-8.996 9.424a23.941 23.941 0 0 1-6.748 1.552c-1.731.202-3.463-.135-5.195.09-4.858-.09-9.626-1.417-14.057-3.33-.045-.09-.113-.247-.158-.314-.022-3.464-.045-6.95.023-10.414.472 0 1.012-.112 1.394.293 3.464 2.811 7.715 4.656 12.146 5.195 2.024.27 4.07.135 6.05-.337 1.484-.427 2.969-1.35 3.576-2.834.472-1.327.292-2.924-.72-3.958-1.2-1.251-2.83-1.758-4.473-2.177l-.616-.155a57.554 57.554 0 0 1-.916-.232c-4.273-.968-8.794-1.957-12.258-4.791-2.564-2.092-3.958-5.376-4.138-8.66-.338-3.283.45-6.77 2.541-9.378C26.855 3.287 30.971 1.263 35.2.453c5.196-.944 10.549-.315 15.632.99z" fill="url(#a)" transform="translate(.151)"/>
        <path d="M114.453 2.32c-.09-.72.562-1.395 1.282-1.305h30.16c.765-.134 1.44.585 1.328 1.327-.023 2.632.022 5.263-.023 7.872.045.698-.697 1.148-1.327 1.103-6.095.022-12.19-.023-18.263.022a315.252 315.252 0 0 0 0 6.523c5.488.045 10.999 0 16.486.022.72-.112 1.372.585 1.282 1.305.023 2.564.023 5.128 0 7.692.068.72-.584 1.394-1.304 1.304-5.488.023-10.976-.022-16.464.023-.045 3.103-.022 6.207 0 9.289 6.095.067 12.19 0 18.286.022.674-.067 1.417.517 1.327 1.237 0 2.699.022 5.42 0 8.12.045.36-.225.63-.495.832-.855.202-1.754.067-2.632.09-7.872.09-15.744-.023-23.616.022-1.731-.09-3.463.113-5.173-.067-.697-.135-.922-.945-.854-1.552V2.32zM157.119 2.612c-.495-.674.09-1.709.922-1.597 4.206-.022 8.412-.022 12.618 0 .585-.045 1.012.428 1.282.9 1.979 3.396 3.913 6.815 5.893 10.211.09-.112.27-.337.36-.427 1.844-3.239 3.71-6.478 5.577-9.716.315-.54.787-1.08 1.485-.968 4.206 0 8.411-.022 12.595 0 .472-.067.765.338 1.08.63.112.81-.495 1.417-.855 2.047-4.094 6.567-8.187 13.112-12.258 19.68-.157.225-.157.45 0 .697 4.633 7.422 9.289 14.844 13.922 22.267.135.36.203.9-.157 1.17-.518.539-1.327.292-1.98.337-3.148.022-6.297.022-9.446-.023-.832 0-1.642.09-2.474-.067-.427-.09-.675-.518-.9-.855-2.181-3.756-4.363-7.49-6.545-11.246-.112-.157-.225-.315-.337-.45-2.227 3.891-4.476 7.737-6.725 11.606-.27.472-.652.99-1.237 1.057-4.206-.045-8.412-.022-12.618 0-.584.068-1.35-.27-1.327-.945-.067-.494.293-.9.518-1.282 4.453-7.152 8.906-14.304 13.382-21.456.135-.225.36-.518.158-.788-4.274-6.95-8.637-13.854-12.933-20.782z" fill="#458CA5"/>
        <path d="M115.375 1.938c10.323-.113 20.647-.023 30.97-.045 0 2.834.046 5.667-.044 8.501-6.545-.022-13.068-.045-19.613.023-.045 2.789-.067 5.578 0 8.367 5.938.045 11.853-.068 17.79.045-.022 2.811.023 5.623-.022 8.434-5.915 0-11.853-.045-17.768.022-.022 3.711-.067 7.423.023 11.134 6.545.09 13.09-.023 19.635.045 0 2.811.022 5.645 0 8.456-9.514.023-19.05 0-28.565.023-.81-.023-1.619.067-2.406-.068.022-15.001.022-29.958 0-44.937zM157.794 1.893c4.34 0 8.704-.045 13.067.022 2.362 3.801 4.498 7.782 6.793 11.65.09.068.27.248.36.316 2.249-4.004 4.588-7.94 6.837-11.943 4.408-.068 8.839-.045 13.27-.023-4.431 7.175-8.93 14.305-13.383 21.48-.18.202-.18.404 0 .63 4.746 7.624 9.56 15.203 14.26 22.85-4.049.113-8.097 0-12.168.045-.36-.045-.9.135-1.102-.292-2.114-3.576-4.183-7.197-6.275-10.773-.54-.81-.877-1.755-1.552-2.452-2.564 4.498-5.196 8.952-7.782 13.45-.337.112-.72.067-1.057.067-4.049-.045-8.12.045-12.19-.045 4.723-7.76 9.603-15.429 14.372-23.143-.068-.54-.518-.967-.765-1.462-2.654-4.251-5.33-8.48-7.985-12.73-1.552-2.564-3.216-5.06-4.7-7.647z" fill="#C4D733"/>
    </g>
</svg>
