<svg width="22" height="24" viewBox="0 0 22 24" fill="none" xmlns="http://www.w3.org/2000/svg">
<path d="M20.9574 5.45953C19.9753 4.15027 17.7834 3.78834 14.9158 4.45106C14.8543 4.30364 14.7908 4.15884 14.7253 4.0178C14.9575 3.76694 15.0971 3.44424 15.1208 3.1032C15.1445 2.76216 15.0509 2.42326 14.8556 2.14269C14.6603 1.86212 14.3749 1.65672 14.0469 1.56056C13.7188 1.46439 13.3677 1.48323 13.0518 1.61395C12.4088 1.04109 11.7196 0.75 10.9997 0.75C10.1729 0.75 9.38791 1.13142 8.66664 1.88367C8.06242 2.51377 7.53095 3.37687 7.08353 4.45102C4.21591 3.78839 2.02408 4.15031 1.04209 5.45948C-0.07489 6.94842 0.56411 9.37931 2.7468 12C2.62774 12.143 2.51247 12.2863 2.401 12.4298C2.08441 12.3416 1.7476 12.3599 1.44241 12.4819C1.13722 12.6038 0.88058 12.8227 0.711985 13.1048C0.543389 13.3869 0.472187 13.7166 0.509338 14.0432C0.54649 14.3697 0.689935 14.675 0.917594 14.9121C0.319469 16.3814 0.360813 17.6318 1.04205 18.5402C1.7027 19.4209 2.91039 19.8731 4.5033 19.8731C5.27833 19.8731 6.14491 19.7656 7.08353 19.5487C7.53086 20.6228 8.06242 21.486 8.66664 22.116C9.38791 22.8686 10.1729 23.25 10.9997 23.25C11.8265 23.25 12.6115 22.8686 13.3328 22.1163C13.9369 21.4863 14.4684 20.6233 14.9157 19.5493C15.1163 19.5957 15.3144 19.6371 15.5101 19.6736C15.5515 20.0267 15.7169 20.3535 15.9768 20.596C16.2368 20.8384 16.5744 20.9806 16.9294 20.9973C17.2845 21.014 17.6339 20.9041 17.9155 20.6871C18.197 20.4701 18.3924 20.1602 18.4667 19.8126C19.587 19.6605 20.4448 19.2244 20.9573 18.5405C22.0742 17.0516 21.4354 14.6207 19.2527 12C21.4353 9.37922 22.0742 6.94838 20.9574 5.45953ZM20.3574 5.90953C21.2262 7.06777 20.6094 9.15984 18.7528 11.4264C17.9256 10.5258 17.0241 9.69641 16.0578 8.94703C15.8817 7.58236 15.5832 6.28505 15.187 5.15873C17.6671 4.60561 19.5837 4.87805 20.3574 5.90953ZM14.4558 18.6588C13.5738 18.4127 12.7105 18.1044 11.8721 17.7361C12.6833 17.3174 13.4723 16.8572 14.2361 16.3573C14.5654 16.1419 14.8887 15.9202 15.2059 15.6921C15.0442 16.7013 14.7933 17.6941 14.456 18.6589L14.4558 18.6588ZM7.54323 18.6588C7.20594 17.694 6.95495 16.7012 6.79323 15.6921C7.10974 15.9194 7.433 16.1411 7.76303 16.3572C8.52683 16.8571 9.31588 17.3174 10.127 17.7361C9.28873 18.1044 8.42536 18.4128 7.54342 18.6589L7.54323 18.6588ZM7.54323 5.34108C8.42519 5.58717 9.28858 5.89552 10.1269 6.26381C9.31574 6.68253 8.5267 7.14275 7.76289 7.64264C7.43358 7.85798 7.11033 8.0797 6.79314 8.3078C6.95493 7.29865 7.20601 6.30586 7.54342 5.34113L7.54323 5.34108ZM8.17333 15.7295C7.64758 15.3857 7.13552 15.0236 6.64839 14.652C6.44989 12.8895 6.44989 11.1104 6.64839 9.34795C7.13552 8.97628 7.64763 8.61413 8.17333 8.27034C9.08045 7.67623 10.0245 7.14049 10.9997 6.66638C11.9749 7.14051 12.9188 7.67628 13.8259 8.27044C14.3516 8.61422 14.8637 8.97633 15.3508 9.348C15.4504 10.2285 15.5001 11.1139 15.4997 12C15.5001 12.8861 15.4504 13.7715 15.3508 14.652C14.8637 15.0237 14.3516 15.3858 13.8259 15.7296C12.9188 16.3237 11.9749 16.8595 10.9997 17.3336C10.0245 16.8595 9.08056 16.3237 8.17352 15.7296L8.17333 15.7295ZM5.83122 14.0003C5.08707 13.3843 4.38797 12.7158 3.73928 12C4.38809 11.2841 5.08727 10.6155 5.83145 9.99938C5.77755 10.6576 5.7497 11.3272 5.7497 12C5.7497 12.6728 5.77755 13.3421 5.83141 14.0004L5.83122 14.0003ZM14.456 5.34113C14.7933 6.30591 15.0443 7.29872 15.206 8.30789C14.8895 8.08055 14.5662 7.85883 14.2362 7.64273C13.4724 7.14282 12.6833 6.68258 11.8722 6.26386C12.7106 5.89557 13.574 5.58722 14.456 5.34113ZM16.168 9.99961C16.9122 10.6156 17.6114 11.2841 18.2601 12C17.6113 12.7159 16.9121 13.3845 16.168 14.0006C16.2219 13.3424 16.2497 12.6728 16.2497 12C16.2497 11.3272 16.2219 10.6579 16.168 9.99961ZM14.3747 3C14.3747 3.14834 14.3307 3.29334 14.2483 3.41668C14.1659 3.54001 14.0488 3.63614 13.9117 3.69291C13.7747 3.74968 13.6239 3.76453 13.4784 3.73559C13.3329 3.70665 13.1993 3.63522 13.0944 3.53033C12.9895 3.42544 12.9181 3.2918 12.8891 3.14632C12.8602 3.00083 12.875 2.85003 12.9318 2.71299C12.9886 2.57594 13.0847 2.45881 13.208 2.3764C13.3314 2.29399 13.4764 2.25 13.6247 2.25C13.8235 2.25024 14.0142 2.32933 14.1548 2.46993C14.2954 2.61053 14.3745 2.80116 14.3747 3ZM10.9997 1.5C11.4904 1.5 11.9743 1.69491 12.4421 2.07886C12.2447 2.3319 12.1337 2.64162 12.1255 2.96246C12.1172 3.2833 12.2122 3.59831 12.3964 3.86116C12.5805 4.124 12.8442 4.3208 13.1486 4.4226C13.4529 4.52441 13.7819 4.52584 14.0872 4.42669C14.1189 4.49666 14.1501 4.56744 14.1809 4.63903C13.0897 4.95037 12.0257 5.35041 10.9997 5.83514C9.97351 5.3503 8.90938 4.95019 7.81797 4.6388C8.67292 2.63794 9.82005 1.5 10.9997 1.5ZM1.64205 5.90953C2.41572 4.87828 4.3322 4.60556 6.81236 5.15878C6.41627 6.28491 6.11781 7.58194 5.94166 8.94661C4.9754 9.69618 4.07388 10.5257 3.24663 11.4263C1.39005 9.15994 0.773126 7.06781 1.64205 5.90953ZM1.9997 13.125C2.14804 13.125 2.29304 13.169 2.41638 13.2514C2.53972 13.3338 2.63585 13.4509 2.69261 13.588C2.74938 13.725 2.76423 13.8758 2.73529 14.0213C2.70635 14.1668 2.63492 14.3004 2.53003 14.4053C2.42514 14.5102 2.29151 14.5816 2.14602 14.6106C2.00054 14.6395 1.84974 14.6247 1.71269 14.5679C1.57565 14.5111 1.45851 14.415 1.3761 14.2917C1.29369 14.1683 1.2497 14.0233 1.2497 13.875C1.24994 13.6762 1.32903 13.4855 1.46963 13.3449C1.61024 13.2043 1.80086 13.1252 1.9997 13.125ZM1.64209 18.0905C1.03473 17.2804 1.22959 16.1874 1.56625 15.3108C1.88662 15.4077 2.2302 15.3946 2.54227 15.2736C2.85434 15.1526 3.11695 14.9307 3.28828 14.6432C3.4596 14.3556 3.52979 14.0191 3.48766 13.687C3.44553 13.355 3.2935 13.0466 3.0558 12.8109C3.11799 12.7317 3.18156 12.6525 3.24653 12.5734C4.07369 13.4741 4.97521 14.3036 5.94156 15.0531C6.11772 16.4177 6.41617 17.715 6.81236 18.8414C4.33234 19.3944 2.41577 19.1219 1.64209 18.0905ZM10.9997 22.5C9.82005 22.5 8.67292 21.3621 7.81797 19.3612C8.90939 19.0498 9.97352 18.6497 10.9997 18.1649C12.0259 18.6497 13.09 19.0498 14.1814 19.3612C13.3265 21.3621 12.1794 22.5 10.9997 22.5ZM16.9997 20.25C16.8514 20.25 16.7064 20.206 16.583 20.1236C16.4597 20.0412 16.3636 19.9241 16.3068 19.787C16.25 19.65 16.2352 19.4992 16.2641 19.3537C16.2931 19.2082 16.3645 19.0746 16.4694 18.9697C16.5743 18.8648 16.7079 18.7934 16.8534 18.7644C16.9989 18.7355 17.1497 18.7503 17.2867 18.8071C17.4238 18.8639 17.5409 18.96 17.6233 19.0833C17.7057 19.2067 17.7497 19.3517 17.7497 19.5C17.7495 19.6988 17.6704 19.8895 17.5298 20.0301C17.3892 20.1707 17.1985 20.2498 16.9997 20.25ZM20.3572 18.0906C19.9775 18.5973 19.3163 18.929 18.4338 19.0603C18.3431 18.7648 18.1633 18.5045 17.9191 18.3151C17.6748 18.1257 17.378 18.0163 17.0693 18.002C16.7605 17.9877 16.4549 18.0691 16.1942 18.2351C15.9334 18.4011 15.7304 18.6437 15.6127 18.9295C15.4726 18.9029 15.3307 18.8734 15.1871 18.8411C15.5832 17.715 15.8816 16.418 16.0578 15.0534C17.024 14.3038 17.9255 13.4744 18.7528 12.5737C20.6094 14.8401 21.2262 16.9322 20.3572 18.0906Z" fill="#4A4A4A"/>
</svg>
