<svg width="24" height="24" viewBox="0 0 24 24" fill="none" xmlns="http://www.w3.org/2000/svg">
<path d="M20.8732 12.2085C20.2535 12.2085 19.7465 12.7155 19.7465 13.3352V17.0761C19.7465 18.5521 18.5521 19.7465 17.0648 19.7465H6.93521C5.45916 19.7465 4.26479 18.5521 4.25352 17.0761V6.93521C4.25352 5.45916 5.44789 4.26479 6.93521 4.25352H11.307C11.9268 4.25352 12.4338 3.74648 12.4338 3.12676C12.4338 2.50704 11.9268 2 11.307 2H6.93521C4.20845 2 2 4.20845 2 6.93521V17.0761C2 19.8028 4.20845 22 6.93521 22H17.0761C19.7915 22 21.9775 19.8028 22 17.0986V13.3352C22 12.7155 21.493 12.2085 20.8732 12.2085Z" fill="#458CA5"/>
<path d="M21.9775 2.90141C21.8648 2.39437 21.4028 2 20.8732 2H15.8028C15.1831 2 14.6761 2.50704 14.6761 3.12676C14.6761 3.74648 15.1831 4.25352 15.8028 4.25352H18.1577L8.67042 13.7408C8.23099 14.1803 8.23099 14.8901 8.67042 15.3296C9.10986 15.769 9.81972 15.769 10.2592 15.3296L19.7465 5.84225V8.82817C19.7465 9.44789 20.2535 9.95493 20.8732 9.95493C21.493 9.95493 22 9.44789 22 8.82817V3.12676C22 3.04789 22 2.98028 21.9775 2.90141Z" fill="#458CA5"/>
</svg>
