<?xml version="1.0" encoding="utf-8"?>
<!DOCTYPE svg PUBLIC "-//W3C//DTD SVG 1.1//EN" "http://www.w3.org/Graphics/SVG/1.1/DTD/svg11.dtd">
<svg version="1.1" id="Calque_1" xmlns="http://www.w3.org/2000/svg" xmlns:xlink="http://www.w3.org/1999/xlink" x="0px" y="0px" width="55.276px" height="55.276px" viewBox="184.629 85.914 55.276 55.276" enable-background="new 184.629 85.914 55.276 55.276" xml:space="preserve">
<g>
	

	<path fill="#fff" d="M211.401,86.369c-0.49-0.029-0.978-0.046-1.46-0.046c-6.745-0.008-12.854,2.863-18.176,8.556
		c-4.84,5.171-6.467,9.336-6.451,14.361c0.008,2.688,0.485,5.625,1.191,9.097c1.328,6.526,5.201,12.824,10.629,17.285
		c4.153,3.412,8.786,5.158,13.67,5.19c2.529,0.016,5.125-0.426,7.759-1.334c8.499-2.933,16.631-11.332,19.771-20.423
		c0.994-2.876,1.477-5.678,1.469-8.342c-0.025-6.513-3.002-12.221-8.685-16.302C224.22,89.456,217.588,86.752,211.401,86.369z"/>
	<g>
		<path fill="#000" d="M201.699,113.656h-1.869l-0.003,0.054c-0.016,0.364-0.231,3.542-3.076,3.542
			c-2.542,0-3.833-2.278-3.835-6.771c0.002-4.492,1.293-6.771,3.835-6.771c2.893,0,3.068,3.396,3.076,3.542l0.003,0.054h1.869
			c0.172,0,0.339-0.069,0.46-0.193c0.116-0.119,0.175-0.272,0.167-0.432c-0.038-0.881-0.49-5.279-5.6-5.279
			c-4.129,0-6.312,3.139-6.312,9.075c0,5.947,2.182,9.094,6.312,9.094c4.916,0,5.527-4.017,5.6-5.247
			c0.011-0.17-0.046-0.335-0.164-0.458C202.041,113.726,201.872,113.656,201.699,113.656z"/>
		<path fill="#000" d="M230.739,109.397L230.739,109.397l-1.607-0.7c-1.549-0.679-2.096-1.341-2.096-2.529
			c0-1.549,1.131-2.588,2.816-2.588c0.997,0,1.813,0.204,2.813,1.22l0.054,0.057l0.859-0.786c0.499-0.461,0.353-0.879,0.146-1.146
			c-0.838-0.988-2.182-1.529-3.79-1.529c-3.097,0-5.347,2.02-5.347,4.805c0,2.737,1.725,3.882,3.588,4.712l1.643,0.732
			c1.652,0.74,2.438,1.371,2.438,2.96c0,2.166-1.958,2.745-3.114,2.745c-0.994,0-2.104-0.213-3.464-1.754l-0.054-0.062l-0.895,0.786
			c-0.461,0.404-0.463,0.752-0.016,1.328c1.23,1.584,3.038,1.915,4.336,1.915c2.807,0,5.652-1.724,5.652-5.021
			C234.702,111.687,233.118,110.421,230.739,109.397z"/>
		<path fill="#000" d="M214.866,106.59c0-2.804-2.274-5.18-5.078-5.18c-1.32,0-2.521,0.504-3.424,1.328v-0.964h-1.688
			c-0.509,0-0.703,0.331-0.703,0.714v16.366c0,0.46,0.28,0.705,0.695,0.705h1.689v-12.87c0-1.691,1.371-3.063,3.063-3.063
			s3.063,1.371,3.063,3.063v12.873h1.678c0.466,0,0.706-0.259,0.706-0.703C214.866,118.86,214.866,106.607,214.866,106.59z"/>
		<path fill="#000" d="M224.554,102.634c0.089-0.111,0.143-0.248,0.143-0.399c0-0.282-0.183-0.517-0.437-0.604
			c-0.487-0.164-1.01-0.253-1.551-0.253c-1.32,0-2.521,0.504-3.424,1.328v-0.964h-1.689c-0.509,0-0.703,0.331-0.703,0.714v16.363
			c0,0.46,0.283,0.705,0.698,0.705h1.688v-12.869c0-1.692,1.371-3.063,3.063-3.063c0.442,0,0.862,0.098,1.242,0.265l0.975-1.226
			L224.554,102.634z"/>
	</g>
</g>
</svg>
