<svg xmlns="http://www.w3.org/2000/svg" xmlns:xlink="http://www.w3.org/1999/xlink" version="1.1" x="0px" y="0px" viewBox="0 0 100 125" enable-background="new 0 0 100 100" xml:space="preserve"><g><path fill-rule="evenodd" clip-rule="evenodd" d="M48.382,60.427c0.681,0.6,0.882,1.567,0.703,2.28   c-0.18,0.711-0.644,1.743,0.014,3.012c0.658,1.268,0.505,1.941,0.907,2.759c0.4,0.82,0.033,1.64,1.158,1.058   c1.126-0.582,1.305,0.113,2.575-1.369c1.27-1.483,0.367-0.824,0.556-1.257c0.187-0.434,1.169,0.259,0.841-1.117   s1.938-2.03,1.675-3.479c-0.262-1.446-0.211-0.297-0.261-1.063c-0.049-0.767-0.486-0.194,0.651-1.542   c1.136-1.346,2.449-2.145,2.704-3.468c0.254-1.323-1.332-0.041-1.85,0.033c-0.515,0.074-0.985-1.486-1.557-1.583   c-0.573-0.097,0.072-0.295-0.292-0.691c-0.363-0.394-0.191-0.8-0.552-1.232c-0.358-0.434-1.169-1.578-1.296-2.129   c-0.126-0.551,0.289,0.708,0.632,0.262c0.341-0.445,0.086,0.399,0.777,1.128c0.689,0.729,0.11,0.865,0.777,1.246   c0.665,0.382,1.013,2.478,1.548,2.239c0.535-0.24,2.686-1.223,2.784-1.236c0.098-0.012,0.417-0.321,0.483-0.455   c0.067-0.133,0.197-0.023,0.357-0.151c0.163-0.126-0.26-0.401,0.128-0.488c0.389-0.088,0.185-0.777,0.019-0.969   c-0.164-0.193-0.734-0.175-0.741-0.699c-0.005-0.394-1.167,1.182-1.767,0.03c-0.411-0.793-0.882-1.173-0.484-1.306   c0.021-0.007,0.125-0.227,0.343-0.054c0.073,0.059,0.942,1.456,1.556,1.092c0.614-0.364,0.283,0.223,1.268,0.374   c0.986,0.152,1.858-0.028,2.154,0.172c0.298,0.199,0.295,0.411,0.429,0.356c0.136-0.055,0.379,0.238,0.645,0.196   c0.263-0.041-0.67,0.521,0.081,0.726c0.751,0.203,0.613-0.896,0.574-0.241s0.973,4.262,1.693,4.041   c0.721-0.223,0.628-2.221,0.853-2.298c0.225-0.076,1.509-1.169,1.533-1.587c0.023-0.419,1.074,0.103,0.979-0.565   c-0.098-0.666,0.426,0.567,0.731,0.743c0.307,0.175,0.088,0.15,0.159,0.267c0.071,0.117,0.51,0.188,0.371,0.826   c-0.137,0.637,0.652,0.146,0.738-0.182c0.083-0.329,0.696,1.654,0.627,2.318c-0.07,0.663,0.438,0.566,0.568,1.141   c0.132,0.573,0.913,1.643,1.172,1.34c0.261-0.303,0.074-0.607-0.147-0.462c-0.221,0.146-0.108-0.622-0.562-0.969   c-0.452-0.347-0.971-0.281-0.853-1.249c0.118-0.971,0.321-0.786,0.438-0.694c0.117,0.094,0.374,0.064,0.529,0.146   c0.155,0.082-0.132,0.475,0.32,0.502c0.452,0.029,0.179,0.748,0.758,0.248c0.133-0.113,1.259-1.419,0.006-2.328   c-0.881-0.637,0.389-1.742,0.512-1.576c0.124,0.168,0.096,0.412,0.753,0.127c0.657-0.282,0.146-0.303,0.59-0.22   c0.442,0.084,1.164-0.57,1.255-0.854c0.091-0.282,0.152-0.241,0.124-0.663c-0.029-0.421,0.541-0.61,0.425-0.843   c-0.117-0.233-0.321-0.435-0.069-0.64c0.253-0.206-0.324-0.805-0.608-1.243c-0.286-0.439-0.512-0.431-0.122-0.812   s0.869-0.449,0.225-0.48c-0.646-0.03-0.316-0.123-0.517,0.182c-0.2,0.306-0.279-0.199-0.298-0.248s-0.605-0.283-0.378-0.491   s0.283,0.009,0.344-0.258c0.06-0.268,0.608-0.688,0.772-0.406c0.161,0.281-0.104-0.008-0.147,0.288   c-0.044,0.295-0.008,0.407,0.318,0.156c0.327-0.25,0.452-0.093,0.654-0.009c0.202,0.084,0.107,0.595,0.229,0.652   c0.119,0.057,0.565,0.168,0.494,0.266c-0.07,0.096,0.084,0.167,0.128,0.388c0.044,0.22-0.145,0.539,0.601,0.424   c0.743-0.115-0.694-1.556-0.771-1.746s-0.297-0.267,0.096-0.298c0.39-0.033,0.211-0.416,0.115-0.191   c-0.097,0.226-0.176-0.063-0.068-0.169s0.383,0.087,0.263-0.272c-0.118-0.358,0.088-0.814,0.398-0.878   c0.313-0.064,0.407,0.763,1.11-1.027c0.704-1.789,0.092-2.443,0.052-3.347c-0.04-0.902-0.921-1.429-1.158-0.975   c-0.236,0.452-1.417,0.593-0.472-1.625c0.945-2.219,2.742-1.873,2.721-1.802s-0.209,0.323,0.119,0.164   c0.327-0.16,0.103-0.177,0.179-0.193c0.077-0.016,0.353,0.061,0.343-0.144c-0.011-0.205-0.515,0.045-0.306-0.557   c0.208-0.602,0.173-1.055,0.557-1.181c0.383-0.127-0.025,0.285,0.174,0.091c0.199-0.192-0.147-0.04,0.205,0.318   s0.301-0.193,0.473-0.479c0.173-0.286,0.241,0.149,0.02-0.323c-0.223-0.473,0.376-0.543,0.37-0.387   c-0.005,0.156-0.201,0.22,0.039,0.746c0.238,0.526-0.088,0.688-0.191,1.389c-0.103,0.7-0.089,0.99-0.22,1.594   s0.975,2.125,1.254,2.948c0.278,0.822,0.669,0.216,0.429-0.398c-0.24-0.616,0.418-0.174,0.059-0.715   c-0.361-0.542,0.507-0.646,0.167-0.971c-0.338-0.323-0.261-1.005-0.163-0.78c0.096,0.225,0.251-0.074,0.052-0.326   c-0.199-0.251-0.234,0.066-0.271-0.181c-0.035-0.248,0.355-0.053,0.014-0.336c-0.344-0.285-0.271,0.226-0.647-1.103   c-0.375-1.328,0.099-0.099,0.302-0.296c0.204-0.195,0.588-0.892,1.114-0.485c0.526,0.407,0.175-1.179,0.813-1.88   c0.635-0.7,0.824-0.124,0.413-0.716c-0.41-0.591-0.507-0.12-0.508-0.121c0,0-0.714-0.249-0.954-0.545   c-0.239-0.296-0.312-0.116,0.05-0.288c0.361-0.171,0.73-0.281,0.506-0.972s-0.331,0.226-0.399-0.293   c-0.067-0.518,0.462,0.154,0.561,0.088c0.099-0.063,0.026-0.549,0.358-0.416c0.329,0.132,0.125,0.438,0.474,0.137   c0.349-0.303,0.736,0.141,0.239-0.333c-0.497-0.473-0.269-0.636-0.166-0.841c0.102-0.204,0.048-0.188,0.019-0.293   c-0.03-0.104-0.149-0.287-0.704-0.476c-0.527-0.18-0.089,0.037-0.356,0.195c-0.24,0.145,0.747,0.821,0.217,0.694   c-0.531-0.127-0.463-0.67-1.646-0.761c-1.182-0.089-1.998-0.286-2.565-0.114c-0.568,0.17-0.974,0.172-0.542,0.519   c0.435,0.348,0.671,0.222,0.521,0.51c-0.15,0.286-1.002-0.311-1-0.385c0.003-0.075,0.156,0.145,0.19-0.046   c0.035-0.19-0.202-0.463-0.373-0.205s0.055,0.571-0.733,0.527c-0.061-0.004-0.505,0.273-0.662,0.363   c-0.499,0.281-0.788-1.298-2.058-0.462c-1.271,0.835-0.394,0.219-0.66,0.064c-0.268-0.154-0.346,0.104-0.496,0.095   c-0.15-0.008-0.054-0.276-0.175-0.095c-0.121,0.181-0.045-0.201-0.099-0.208c-0.055-0.008-0.456,0.162-0.082-0.139   c0.374-0.302-0.642-0.355-0.831-0.134c-0.188,0.222,0.038,0.699-0.141,0.674c-0.18-0.025-1.269-1.083-1.556-0.559   c-0.288,0.524,0.299,0.07,0.308,0.192c0.008,0.121-0.489,0.491-0.168,0.397c0.321-0.093-0.111-0.148,0.255,0.27   c0.367,0.419-0.631-0.084-0.228,0.381c0.402,0.465-0.677-0.12-0.705,0.226c-0.027,0.345-0.561-0.217-0.707-0.203   s0.279,0.812,0.242,0.945c-0.038,0.133-0.932-0.314-0.776-0.568c0.156-0.254-0.008,0.216-0.341-0.006   c-0.335-0.223,0.25-0.051,0.077-0.328s-0.248-0.05-0.308-0.105c-0.062-0.055,0.182-0.041-0.162-0.398   c-0.343-0.356-0.692-0.068-0.752-0.065c-0.058,0.005-0.199-0.362-0.547-0.109s0.517,0.353-0.196,0.665   c-0.715,0.313-0.963-0.286-1.169-0.22c-0.206,0.067-0.732,0.135-0.789,0.273c-0.058,0.139,0.379,0.417,0.013,0.197   c-0.367-0.221-0.173-0.218-0.392-0.198s-0.596-0.275-0.624,0.038s0.191,0.315,0.013,0.666c-0.18,0.351-0.124,0.558-0.387,0.357   c-0.262-0.2,0.513-2.249,0.454-2.394c-0.059-0.145-0.347,0.048-0.318-0.176c0.027-0.224,0.329,0.186-0.068-0.383   c-0.396-0.568-0.26,0.091-0.79-0.372c-0.529-0.462-0.638,0.135-0.651,0.236c-0.015,0.104,0.251-0.238,0.097,0.277   s-0.219-0.401-0.315-0.472c-0.098-0.069-0.598,0.263-0.686,0.164c-0.088-0.098,0.368-0.483-0.26-0.546   c-0.931-0.094,0.45,1.35,0.149,1.415c-0.665,0.146-0.314,0.09-0.219,0.194s0.059,0.279-0.039,0.255s-0.03-0.411-0.268-0.244   c-0.236,0.168-0.361,0.448-0.446,0.419c-0.084-0.031,0.195-0.095,0.005-0.236c-0.19-0.143-0.799,0.339-0.474,0.298   s-1.22,0.831-0.965,0.897c0.256,0.067-0.47,0.295-0.032,0.514c0.436,0.219,0.065-0.18,0.037,0.069   c-0.028,0.25,0.541,0.114,0.538,0.314s-0.15,0.11-0.186,0.244s0.157,0.065,0.118,0.154c-0.038,0.09-0.155,0.029-0.18-0.087   c-0.025-0.118,0.203-0.291,0.109-0.326c-0.093-0.036-1.806,0.662-0.508,1.24c1.3,0.578,0.612,1.745,1.307,1.496   c0.696-0.25,0.239,0.938-0.414-0.006c-0.179-0.259-0.209-0.365-0.227-0.405c-0.14-0.308-0.179,0.749-0.228-0.05   c-0.049-0.798-0.351-0.495-0.962-0.864c-0.609-0.369-0.658,0.205-0.53,0.188c0.129-0.018,0.351,0.119,0.228,0.206   c-0.122,0.087-0.618-0.386-0.477-0.022s0.891,0.354,0.901,0.522c0.012,0.168-0.864-0.038-0.917-0.197   c-0.053-0.158-0.291-0.956-0.426-0.846c-0.134,0.111,0.231,0.25,0.108,0.506c-0.124,0.256-0.245,0.06-0.117,0.517   c0.13,0.459,0.479-0.27,0.443,0.553c-0.039,0.823,1.225,0.484,1.374,1.021c0.228,0.813,0.284,0.098,0.335,0.403   c0.026,0.169-0.19,0.48-0.412-0.083s-1.062-0.594-0.81-0.19c0.251,0.404,0.19,1.387-0.591,1.246   c-0.411-0.073-0.321-0.259-0.135-0.243c0.272,0.022,0.746,0.096,0.109-1.543c-0.262-0.67-0.567-1.072-0.621-1.611   c-0.054-0.538-0.361-0.505-0.675-0.472c-0.316,0.032-0.141-0.441-0.213-0.036c-0.072,0.404,0.112,0.881-0.085,1.142   s0.229,0.974,0.309,1.106c0.08,0.134,0.45,0.147,0.635,0.306c0.183,0.157,0.072,0.392-0.027,0.445s-0.264-0.281-0.463-0.344   s-1.484-0.595-1.587-0.385c-0.103,0.211-0.574-0.555-0.592-0.213c-0.012,0.249,1.113,1.002,0.453,1.171   c-0.025,0.006,0.025-0.083-0.021-0.297c-0.109-0.499-1.2,0.628-1.287,0.4c-0.09-0.228,0.345-0.587-0.046-0.352   c-0.199,0.12-0.228,0.34-0.232,0.336c-0.173-0.133-0.543,0.296-0.705,0.33c-0.164,0.034,0.131,0.079,0.082,0.125   s-0.158-0.096-0.249,0.032c-0.09,0.128,0.181,0.698-0.41,0.442c-0.592-0.256,0.627-0.562-0.191-0.875   c-0.817-0.314-0.337,0.345-0.333,0.729s0.586,0.505,0.208,0.625c-0.378,0.121-0.163-0.403-0.748,0.043   c-0.583,0.445-0.128,0.805-0.878,0.477c-0.75-0.329-0.161,0.233,0.022,0.371c0.184,0.137,0.439-0.067,0.328,0.266   c-0.109,0.333-0.934-0.309-0.922-0.692c0.013-0.382-0.768-0.766-0.657-0.846c0.109-0.08-0.102,0.092,0.898,0.376   c0.999,0.285,0.588-1.269-0.273-1.555c-0.86-0.285-0.428-0.059-0.483-0.022c-0.057,0.037-2.398-0.916-2.438-0.223   c-0.04,0.692-0.313-0.022-0.475,0.128c-0.161,0.149-0.035,0.039-0.192-0.061c-0.157-0.101-0.028,0.152-0.166,0.09   c-0.139-0.063-0.047-0.231-0.189-0.041c-0.143,0.189-0.584,0.352-0.29,0.409c0.294,0.056-0.209,0.288-0.181,0.364   c0.029,0.075-0.088,0.66-0.315,0.704c-0.226,0.046-0.204,0.459-0.214,0.488c-0.011,0.03-0.243-0.347-0.176,0.031   c0.066,0.379-0.852,1.286-0.615,1.343c0.236,0.056,0.489-0.345,0.231,0.065c-0.257,0.411-0.591-0.499-0.551,0.134   c0.04,0.632-0.994,0.985-0.822,1.606c0.171,0.622,0.077-0.063,0.277,0.048c0.2,0.11-0.33,0.503,0.308,0.631s0.409-0.33,0.672-0.438   c0.263-0.106,0.17-0.304,0.438,0.528c0.267,0.833,0.288,0.389,0.367,0.528c0.08,0.14-0.38,0.305,0.016,0.442   c0.396,0.136,0.203-0.239,0.671-0.28c0.468-0.04,0.111-0.956,0.185-1.075c0.073-0.12,0.505-0.065,0.38-0.302   c-0.125-0.237,0.694,0.45,0.012-0.425s0.522-1.443,0.538-2.046c0.017-0.604-0.247-0.791,0.553-0.646   c0.799,0.143,0.083,0.65-0.211,0.992c-0.293,0.341-0.206,0.246-0.395,0.227c-0.189-0.017,0.048,0.989,0.165,1.227   c0.118,0.238,0.381,0.175,0.518,0.367c0.137,0.193,1.184-0.383,1.387-0.329c0.202,0.055,0.198-0.206,0.249,0.173   c0.051,0.378-1.63,0.321-1.427,0.728c0.203,0.408,0.234,0.16,0.2,0.254c-0.032,0.096,0.099,0.437-0.147,0.452   c-0.245,0.017-0.359-0.657-0.581-0.025c-0.222,0.634,0.688,1.04-0.083,1.01c-0.772-0.031-0.254,0.139-0.558,0.055   c-0.304-0.085,0.116-0.462-0.605,0.03c-0.722,0.491-0.577-0.046-0.721-0.085c-0.145-0.038-0.482,0.367-0.686,0.256   c-0.203-0.111-0.367-0.497-0.389-0.604c-0.02-0.104,0.354-0.232,0.432-0.325c0.079-0.093-0.21-0.045-0.213-0.185   c-0.002-0.14,0.257-0.19,0.076-0.352c-0.181-0.16-0.508,0.332-0.398,0.466c0.108,0.133-0.179-0.017-0.151,0.213   c0.026,0.229,0.167,0.837-0.02,1.025c-0.186,0.188-0.129-0.187-0.262-0.056c-0.103,0.102,0.164,0.144,0.169,0.212   c0.001,0.024-0.076,0.053-0.158,0.02c-0.32-0.132-1.554,1.337-2.084,1.64c-0.531,0.304-0.908-0.168-0.787,0.17   c0.122,0.337-0.024,0.076,0.083,0.152s0.406,0.012,0.509,0.249c0.104,0.238-0.05-0.028,0.27,0.292   c0.318,0.32,0.113,0.204,0.011,0.308c-0.102,0.102,0.055,0.521-0.132,0.712c-0.187,0.19-0.233-0.001-0.421-0.02   c-0.188-0.018,0.028-0.052-0.236-0.016c-0.264,0.035-0.342-0.046-0.478-0.063c-0.137-0.019-0.076,0.017-0.233,0.014   c-0.157-0.004-0.099-0.047-0.25-0.042c-0.152,0.004-0.097,0.092-0.17,0.147c-0.073,0.056-0.185-0.072-0.233,0.032   c-0.05,0.105,0.012,0.08,0.075,0.202c0.063,0.124,0.029-0.089,0.013,0.175c-0.017,0.265,0.007,0.63-0.071,0.838   c-0.079,0.208-0.012,0.033-0.02,0.05c-0.008,0.016-0.011,0.024-0.035,0.073c-0.023,0.048-0.085,0.062-0.069,0.17   c0.017,0.108-0.053-0.025,0.129,0.008c0.182,0.032-0.103,0.007-0.063,0.132c0.041,0.125,0.113,0.005,0.11,0.17   c-0.003,0.166-0.166,0.274-0.044,0.316c0.12,0.042,0.077-0.017,0.217-0.003c0.139,0.015,0.021-0.062,0.265-0.032   c0.245,0.03,0.237,0.346,0.424,0.381s0.298-0.221,0.44-0.246c0.143-0.025,0.484,0.116,0.573,0.01   c0.088-0.104,0.165-0.026,0.327-0.239c0.161-0.214,0.225-0.3,0.234-0.426c0.009-0.127-0.174-0.222-0.092-0.367   c0.083-0.146,0.192-0.22,0.269-0.321s-0.125-0.042,0.149-0.132c0.275-0.091,0.361-0.126,0.403-0.452   c0.042-0.327,0.065-0.357,0.177-0.409c0.112-0.053-0.146-0.003,0.183,0.037c0.33,0.039,0.434,0.169,0.61-0.008   c0.177-0.176,0.018-0.095,0.156-0.125c0.138-0.028,0.14-0.05,0.24-0.146s0.028-0.111,0.271-0.03   c0.242,0.083,0.307,0.406,0.537,0.615c0.23,0.21,0-0.009,0.096,0.08c0.097,0.09,0.128,0.202,0.293,0.306   c0.165,0.102,0.167-0.058,0.318,0.113c0.151,0.172,0.303,0.253,0.382,0.303c0.08,0.051,0.126,0.033,0.191,0.116   c0.066,0.084,0.107,0.298,0.1,0.377c-0.009,0.079-0.153,0.382-0.002,0.341c0.152-0.042,0.014,0.016,0.073-0.06   c0.059-0.076,0.08-0.184,0.113-0.243c0.034-0.06-0.028,0.05,0.015-0.021c0.042-0.073,0.017-0.163-0.084-0.323   c-0.102-0.16-0.118-0.251,0.105-0.269c0.225-0.02,0.221,0.228,0.348,0.22c0.127-0.007,0.213-0.08,0.048-0.204   c-0.167-0.124-0.522-0.261-0.691-0.313c-0.169-0.052,0.378-0.09,0.023-0.204c-0.355-0.115-0.541-0.333-0.686-0.509   c-0.146-0.175-0.243-0.185-0.331-0.263c-0.088-0.078-0.071-0.101-0.072-0.197c-0.002-0.096-0.104-0.179-0.011-0.255   c0.091-0.077,0.21-0.134,0.343-0.106c0.133,0.028-0.069,0.249,0.092,0.341s0.097-0.21,0.167-0.206   c0.071,0.005,1.104,0.938,1.128,0.957c0.023,0.018-0.063-0.068,0.034,0.03c0.095,0.1,0.117,0.042,0.271,0.278   c0.153,0.237-0.129,0.366-0.019,0.524c0.109,0.158,0.127,0.082,0.242,0.269c0.115,0.187,0.17,0.186,0.275,0.188   c0.105,0.001,0.076,0.031,0.123-0.014c0.045-0.043,0.126-0.146,0.155-0.043c0.03,0.103-0.11-0.12-0.107,0.158   c0.002,0.278,0.3-0.202,0.317-0.215c0.019-0.013,0.095,0.043,0.062-0.028c-0.031-0.071-0.285-0.351-0.141-0.455   c0.143-0.104,0.032,0.242,0.199,0.165c0.166-0.076,0.104,0.116,0.138,0.034c0.032-0.083,0.022-0.1-0.003-0.148   c-0.025-0.049-0.229,0.048-0.059-0.086c0.169-0.133,0.005-0.068,0.362-0.094c0.355-0.025,0.293-0.009,0.408,0.097   c0.116,0.107-0.023,0.097-0.033,0.138c-0.009,0.041-0.051,0.172-0.048,0.245c0.001,0.029,0.055,0.013,0.113,0.038   c0.056,0.025,0.1-0.026,0.08,0.041c-0.019,0.068,0.042,0.088,0.014,0.223s-0.018,0.049-0.059,0.086   c-0.042,0.036-0.089-0.077-0.076,0.065c0.014,0.144,0.186,0.075,0.23,0.175c0.046,0.101-0.041,0.234,0.074,0.372   c0.117,0.138,0.337-0.092,0.451,0.019c0.116,0.11,0.169,0.15,0.442,0.098c0.381-0.074-0.303-0.158,0.069-0.171   c0.281-0.01,0.539,0.321,0.856,0.194c0.315-0.127,0.116-0.165,0.227-0.206c0.108-0.04,0.095,0.038,0.212,0.039   c0.118,0,0.08-0.205,0.205-0.06s-0.038,0.065-0.052,0.3c-0.012,0.232,0.054,0.214,0.03,0.365c-0.022,0.15-0.006,0.025-0.041,0.206   c-0.034,0.181-0.151,0.281-0.203,0.524c-0.053,0.243-0.022,0.259-0.142,0.36c-0.118,0.102-0.259,0.095-0.539,0.076   c-0.28-0.018-0.101-0.053-0.21-0.082c-0.108-0.029-0.068-0.006-0.117-0.005c-0.049,0.003,0.203-0.042-0.19,0.011   c-0.394,0.052-1.58,0.022-2.032-0.254c-0.452-0.277-0.303-0.209-0.565-0.157c-0.262,0.053-0.217,0.05-0.277,0.105   c-0.061,0.056-0.116,0.165-0.098,0.285c0.019,0.121,0.186-0.003,0.038,0.284c-0.147,0.286-0.634-0.108-0.888-0.159   s-0.109,0.07-0.301-0.041c-0.191-0.113-0.021-0.293-0.369-0.404c-0.349-0.11-0.497,0.011-0.751-0.12   c-0.254-0.13-0.2-0.094-0.326-0.138s-0.218-0.212-0.007-0.382c0.211-0.171,0.002-0.795-0.218-0.848   c-0.22-0.051-0.153,0.063-0.358,0.123c-0.204,0.059-0.446-0.131-0.732,0.003c-0.287,0.135-0.347-0.059-0.781,0.069   c-0.436,0.129-1.11,0.49-1.328,0.501s-0.651-0.179-0.925-0.243s-0.213,0.512-0.535,0.686c-0.322,0.172-0.153,0.08-0.369,0.227   c-0.216,0.147-0.045,0.137-0.193,0.363c-0.148,0.226-0.161,0.024-0.108,0.462c0.052,0.438-0.604,0.641-0.749,0.729s0.126-0.013,0,0   s-1.409,1.675-1.409,1.854s-0.018,0.107,0.027,0.308c0.045,0.199,0.194,0.423,0.194,0.748c0,0.326-0.008,0.414-0.105,0.57   c-0.098,0.157-0.391,0.865-0.165,1.146s0.848,0.765,1.048,1.196c0.2,0.434,0.647,0.842,0.959,0.927   c0.313,0.088,1.189,0.549,1.472,0.32c0.284-0.231,0.731-0.063,0.958-0.02c0.228,0.045,0.33-0.076,0.536-0.198   c0.208-0.122,0.273-0.101,0.491-0.097c0.217,0.005,0.466,0.33,0.674,0.43c0.208,0.101,0.566,0.101,0.813,0.177   c0.247,0.076,0.413,0.466,0.61,0.707C48.099,59.242,47.703,59.827,48.382,60.427L48.382,60.427z M68.373,57.554   c-0.612-0.25-0.243-1.015-0.146-1.159C68.322,56.25,68.983,57.804,68.373,57.554L68.373,57.554z M59.037,63.302   c0.369-0.186,0.342-0.274,0.499,0.331c0.158,0.606-0.13,0.02-0.184,0.158c-0.055,0.139,0.029,0.581-0.013,0.777   c-0.041,0.197-0.093,2.023-1.096,2.132c-1.003,0.11-0.272-1.326-0.463-1.881c-0.189-0.553-0.108,0.333-0.09-0.2   c0.02-0.531,0.687-0.535,0.755-0.698c0.067-0.16,0.2-0.289,0.366-0.327C58.979,63.559,58.669,63.488,59.037,63.302L59.037,63.302z    M30.616,58.079c-0.928-0.458-3.128-1.608-2.993-1.924c0.136-0.313-1.954,0.125-2.167-0.254c-0.213-0.378-0.688,1.109-0.67-0.009   c0.018-1.119-0.412-0.335-0.671,0.173c-0.259,0.507-0.524,1-1.029,0.532c-0.506-0.47-1.879-0.021-1.486-1.737   c0.394-1.716-1.516,0.173-1.393-0.854c0.124-1.026,0.839-2.102-0.804-0.377s-1.798-2.84-0.655-3.347   c1.142-0.507,2.159,0.336,2.97-0.085c0.812-0.421,0.664-0.227,0.857-0.594c0.193-0.368,2.298-1.161,1.719-1.406   s3.358-4.166,3.343-3.276s2.161,0.392,1.083-0.25c-1.077-0.641-0.885-0.333-0.514-1.056c0.37-0.724-2.395,0.879-0.72-0.415   c1.674-1.293,2.942-0.777,3.234-1.502c0.292-0.726,0.026-0.252-0.238-0.432c-0.264-0.179-1.246-0.684-0.878-1.053   c0.369-0.368-0.133-2.301-0.509-1.621c-0.376,0.679-1.398,0.595-1.123-0.254c0.276-0.848-2.203-1.208-1.978-0.092   c0.226,1.117-0.354,1.299-0.189,1.905c0.164,0.607-1.139,0.338-1.091,1.621c0.048,1.282-0.764,0.048-0.72-0.782   c0.045-0.83,1.221,0.312-0.967-0.928s0.468-3.695,1.708-4.927s0.757-0.151,1.504-0.618c0.747-0.466,0.163-1.589-0.296-1.753   c-0.459-0.164-1.127,1.732-1.116,1.03c0.011-0.701,0.473-0.862,0.068-0.873c-0.404-0.011-0.198,0.813-0.459,0.56   c-0.262-0.255,0.398-3.202-0.64-1.727s0.944,0.414-0.187,1.52c-1.131,1.105-0.286,0.337-0.669,0.096   c-0.384-0.241-1.322,0.026-1.836-0.389c-0.515-0.416,0.096-0.988-0.761-0.596c-0.857,0.394,0.483,0.075,0.179,0.401   c-0.304,0.325-0.35,0.311-0.4,0.766c-0.051,0.456-0.351-0.687-0.355-0.703c-0.005-0.017-1.719-0.435-0.876-0.511   c0.098-0.009-1.753-2.29-2.231-2.478c-1.769-0.691-0.76,1.887-4.285-0.904c-3.524-2.791-2.344-1.146-3.264-1.303   c-0.921-0.158-2.796,1.125-2.065,2.194c0.731,1.068,0.632,0.617,0.177,0.675c-0.455,0.058-1.032-0.652-1.11-0.231   c-0.078,0.423-0.696-0.07-0.838,0.22c-0.142,0.289,0.889,0.41,0.134,0.445c-0.755,0.035,0.007,0.506,0.283,0.621   c0.525,0.218,1.779-1.382,0.766,0.327c-1.992,3.357,0.806,3.768,1.31,3.505c0.505-0.263,0.918-0.752,1.368,0.034   c0.451,0.785,0.896,0.142,1.002,0.718c0.104,0.576,0.623,1.238,0.511,1.811c-0.113,0.572,2.469,5.559,1.647,4.938   c-0.821-0.62-0.353-0.098-0.53,0.389c-0.176,0.486-1.159,3.995,0.55,5.212c1.709,1.218,0.209-0.552,1.22,0.947   c1.01,1.499,2.88,5.071,4.698,4.995c1.817-0.076,2.617,1.382,2.577,1.719c-0.041,0.335,1.578,1.551,1.531,0.71   c-0.045-0.839,1.581,1.141,0.662,1.636c-0.919,0.494-0.7,1.724-0.631,1.56c0.067-0.165-0.412,0.745-0.333,1.033   c0.08,0.291,2.092,2.816,3.254,3.619c1.162,0.803-0.737,6.615,0.295,7.756c1.031,1.144,0.233,3.015,0.126,3.405   c-0.107,0.393,0.81,0.953,0.756,1.016c-0.057,0.061,0.233,0.801,0.526-0.083c0.215-0.65,1.249-1.784,0.484-2.44   c-0.683-0.587,0.915-1.889,0.42-1.723c-0.496,0.168-0.221-0.292-0.252-0.375c-0.032-0.081,0.792-0.351,0.728-0.714   c-0.066-0.365,2.081-0.844,1.114-1.539c-0.966-0.694,0.566,0.134,1.079-0.459c0.513-0.596,1.492-3.7,2.682-3.547   c1.189,0.154,0.793-2.178,1.343-3.146c0.551-0.97,0.474-2.289-0.581-2.748c-1.053-0.46-1.189,0.25-1.382,0.063   c-0.193-0.188-2.041-0.666-2.049-0.665C30.57,59.532,31.545,58.534,30.616,58.079L30.616,58.079z M80.208,60.317   c0.078,0.016,0.064-0.098-0.08-0.14c-0.144-0.044-0.248,1.18-0.468,0.819c-0.22-0.359-0.016-0.017,0.042-0.359   c0.059-0.34-0.242,0.281-0.088-0.719s0.11-0.962,0.873-0.864c0.763,0.097,0.615-0.307,0.866-0.17   c0.251,0.14,0.16,0.547-0.567,0.358c-0.728-0.188-0.886,0.564-0.634,0.539c0.252-0.026-0.279-0.131,0.087-0.182   c0.364-0.051,0.501,0.104,0.082,0.328c-0.421,0.223,0.319,0.604,0.371,0.628c0.051,0.024-0.355,0.261-0.453,0.108   c-0.099-0.153-0.026-0.04-0.056-0.084C80.154,60.536,80.129,60.304,80.208,60.317L80.208,60.317z M78.025,60.533   c-0.235-0.017-0.074-0.111-0.524-0.313c-0.451-0.202-0.953-1.531-0.539-1.384c0.413,0.146,0.319-0.066,0.478-0.257   c0.157-0.191,1.204-0.886,1.4-1.277c0.195-0.39,0.081,0.173,0.428,0.288c0.347,0.116,0.054,0.176,0.083,0.377   c0.03,0.202-0.182,0.038-0.215,0.077c-0.034,0.038-0.142,0.379,0.062,0.726c0.204,0.347-0.17,0.613-0.405,1.367   c-0.237,0.754-0.268,0.099-0.34,0.163c-0.071,0.063,0.118,0.666-0.161,0.269C78.011,60.172,78.263,60.548,78.025,60.533   L78.025,60.533z M80.757,62.454c-0.129-0.355,1.116-0.59,1.104-0.541C81.852,61.963,80.887,62.81,80.757,62.454L80.757,62.454z    M88.522,60.861c0.132-0.089,0.13,0.088,0.297-0.044c0.168-0.131,0.197-0.647,0.415-0.208c0.217,0.44-1.31,0.655-1.197,0.361   C88.147,60.678,88.392,60.953,88.522,60.861L88.522,60.861z M85.009,73.516c-0.025,0.111,0,1.656,0.275,1.372   c0.277-0.286,0.918-0.951,0.723-1.231c-0.196-0.282-0.401,0.104-0.523,0.1C85.36,73.75,85.033,73.407,85.009,73.516L85.009,73.516z    M75.641,61.385c0.026-0.411,1.154,0.011,1.463-0.003c0.308-0.015-0.374-0.213,0.068-0.153c0.445,0.058,0.057,0.23,0.904,0.413   c0.848,0.185,0.17,0.171,0.11,0.243C78.126,61.956,75.614,61.794,75.641,61.385L75.641,61.385z M93.795,72.323   c0.359,1.255-0.256,0.975-0.449,1.288c-0.195,0.316,0.238,0.275,0.269,0.425c0.03,0.146-0.591,0.871-0.133,0.752   c0.461-0.121,0.71-1.033,0.893-1.091c0.181-0.058,0.43-0.285,0.532-0.625c0.104-0.341-0.504,0.074-0.625-0.074   c-0.12-0.147-0.324-0.626-0.244-0.889C94.117,71.85,93.433,71.068,93.795,72.323L93.795,72.323z M93.146,74.915   c-0.248,0.561-0.472,0.373-0.672,0.622s0.426,0.181,0.021,0.247c-0.404,0.063-1.096,1.793-1.737,1.196   c-0.642-0.596,0.837-1.126,1.535-2.109c0.698-0.984,0.459-0.3,0.635-0.287C93.104,74.595,93.393,74.357,93.146,74.915   L93.146,74.915z M85.942,60.126c0.529,0.158,1.271,0.568,1.37,0.83c0.1,0.259,0.846,0.228,0.463,0.385   c-0.383,0.159,0.371,0.657,0.492,0.688c0.12,0.03-0.109,0.111-0.021,0.162c0.09,0.05,0.588-0.141,0.411,0.189   c-0.178,0.33-1.344-0.589-1.742-0.844c-0.398-0.254-0.141,0.113-0.318,0.209c-0.179,0.097,0.146-0.034-0.037,0.272   c-0.186,0.306-0.373-0.326-1.006-0.277c-0.634,0.049-0.143-0.008-0.338-0.438s-1.133-0.871-1.313-0.907s-0.048,0.411-0.396-0.071   c-0.348-0.483,0.648,0.016,0.377-0.339c-0.271-0.353-0.386,0.065-0.532,0.006c-0.146-0.059,0.241,0.102-0.09-0.188   c-0.33-0.292,0.741-0.242,0.705,0.059c-0.036,0.303,0.101,0.619,0.587,0.217C85.039,59.675,85.413,59.966,85.942,60.126   L85.942,60.126z M75.359,61.079c-0.639-0.435-1.472-2.456-2.266-2.903c-0.793-0.447,0.129-0.563,0.508-0.097   s1.004,0.558,1.024,0.757c0.021,0.198,0.596,0.37,0.585,0.494c-0.014,0.124,0.082,0.209,0.2,0.359   c0.116,0.15-0.242,0.165,0.102,0.356c0.342,0.192,0.4,0.941,0.263,0.999C75.64,61.102,75.996,61.512,75.359,61.079L75.359,61.079z    M84.181,63.869c0.027,0.171,0.664,0.653,1.146,0.896c0.481,0.239,0.758-2.63,1.058-1.861c0.3,0.768-0.043,0.671,0.394,0.752   c0.436,0.082,0.098,1.468,0.581,1.695c0.482,0.228,0.392,0.965,0.658,1.003c0.268,0.039-0.737-1.077,0.24,0.416   c0.979,1.492-0.837,3.295-1.198,4.965c-0.363,1.672-0.563,0.484-0.879,0.725c-0.317,0.238-0.724,0.479-0.627,0.1   s-0.103,0.034-0.134-0.033s-0.324,0.024-0.1-0.101c0.224-0.125-1.824-2.511-2.441-2.553c-0.62-0.044-1.532-0.256-1.844-0.183   c-0.31,0.073-0.681-0.208-1.046,0.25c-0.366,0.458-0.747-0.06-1.335,0.373c-0.585,0.434-1.493-0.07-1.205-0.267   c0.29-0.196,0.02-2.294,0.126-2.493c0.109-0.199-0.358-0.323-0.082-0.846c0.275-0.521,0.957-1.154,1.873-1.272   c0.914-0.117,0.962-1.391,1.105-1.085c0.142,0.307,0.094,0.13,0.167-0.084c0.073-0.216,0.212,0.118,0.302,0.087   s-0.128-0.286,0.067-0.342c0.196-0.056,0.683-0.622,0.921-0.282s0.229,0.106,0.31,0.097c0.081-0.009,0.084,0.253,0.132-0.178   s0.919-0.501,1.021-0.681c0.102-0.178-0.86-0.516-0.027-0.227c0.834,0.291,0.798,0.298,1.098,0.182   C84.761,62.809,84.151,63.701,84.181,63.869L84.181,63.869z M41.132,28.919c-0.684,0.201-3.484,7.619-5.244,7.498   c-1.76-0.12-0.808,1.502-1.085,1.844c-0.276,0.342-0.081,0.48-0.231,0.707c-0.15,0.228-0.123-1.08-0.63-0.554   c-0.507,0.525-0.358-1.431-0.794-1.515c-0.436-0.085,0.308-4.051,0.022-3.999c-0.286,0.052,0.071-0.734,0.073-0.745   c0.23-1.506-1.173-2.834-1.176-2.833c-0.34,0.129-0.881-1.61-0.979-1.885c-0.098-0.273,1.899-0.435,2.08-0.974   c0.181-0.538-0.216-0.323,0.367-0.933c0.583-0.611,0.311,0.147,0.322,0.083c0.011-0.063,0.794-0.923,0.85-0.927   c0.055-0.004,0.236,0.743,0.175,0.054c-0.063-0.689,1.008-0.579,1.147-0.333c0.139,0.247-0.567,1.424-0.185,0.882   c0.383-0.542,0.347-0.113,0.504-0.117c0.156-0.004,0.49-0.406,0.946-0.781c0.457-0.374,0.168,0.297,0.381,0.145   s0.05-0.456,0.179-0.62c0.128-0.163,0.477-0.234,0.666,0.159c0.19,0.392,0.462-0.475,0.623-0.512   c0.16-0.038,1.54-0.117,1.595,0.351c0.055,0.469-1.285,0.118-1.219,0.475c0.065,0.355,0.394-0.108,0.494-0.131   c0.1-0.022,1.652,0.047,1.028,0.289c-0.624,0.242,0.001-0.182,0.538,0.245c0.537,0.426-1.53,0.275-1.905,0.688   s1.109-0.333,1.141,0.071c0.031,0.404-0.011,0.45,0.079,0.386c0.091-0.065,0.483-0.789,0.579-0.346s-1.345,1.355-1.083,1.344   s1.211-0.823,1.297-0.941c0.085-0.117,0.269-0.096,0.374-0.113c0.104-0.019,1.128,0.165,0.99,0.475   c-0.137,0.309-1.651,0.965-1.631,1.104c0.021,0.139,0.93-0.4,0.333,0.316C41.153,28.493,41.816,28.718,41.132,28.919L41.132,28.919   z M26.54,26.251c0.456-0.406-0.054-0.931,0.426-0.257C27.445,26.669,26.083,26.656,26.54,26.251L26.54,26.251z M24.955,27.289   c1.004-0.468,0.69,1.517-0.206,1.274c-0.896-0.242,0.214-0.313-0.012-0.518C24.511,27.839,23.951,27.758,24.955,27.289   L24.955,27.289z M25.495,24.922c0.071-0.613,0.922-0.533,0.819,0.355c-0.103,0.89,0.021,1.244-0.56,0.708s-0.031-0.336-0.047-0.896   C25.692,24.528,25.423,25.534,25.495,24.922L25.495,24.922z M24.621,36.126c0.515-1.476-0.103-1.106,0.635-0.673   c0.737,0.436,0.702,1.251,0.241,0.866C25.036,35.936,24.106,37.601,24.621,36.126L24.621,36.126z M20.425,26.318   c0.451-0.42,2.669-1.576,1.714-0.398c-0.955,1.177-0.214,0.043-0.904,0.58C20.545,27.037,19.973,26.737,20.425,26.318   L20.425,26.318z M29.503,43.96c-0.162-0.359-0.397,0.375,0.161-0.223c0.559-0.599,0.943-0.427,1.557-0.34   c0.614,0.088,0.047,0.716-0.041,0.92c-0.088,0.203-0.316-0.367-0.316-0.367S29.665,44.319,29.503,43.96L29.503,43.96z    M23.985,29.39c0.778-0.362,0.373,0.786,0.282,0.98c-0.091,0.195,0.104,0.84-0.615,0.654c-0.717-0.187-0.866-1.396-0.296-1.208   C23.927,30.005,23.208,29.752,23.985,29.39L23.985,29.39z M21.542,26.811c-0.306-0.563,1.328-0.39,0.906,0.334   c-0.423,0.722,0.37,0.28,0.541-0.288s0.135,0.341,0.428,0.528c0.294,0.188-0.429,0.854-0.442,0.827   c-0.013-0.025-1.799,0.004-1.13-0.336c0.667-0.34-0.228,0.051-0.458-0.279C21.156,27.266,21.848,27.374,21.542,26.811   L21.542,26.811z M26.481,27.938c-0.393-1.896,0.604,0.252,0.479,0.312c-0.668,0.319,2.109,0.873,1.618,1.228   c-0.492,0.355-0.203,0.346-1.334,0.116C26.113,29.363,26.623,28.623,26.481,27.938L26.481,27.938z M19.025,28.102   c0.121-0.916,1.791-0.171,1.342,0.321c-0.449,0.49-2.367,1.955-2.384,1.111S18.903,29.018,19.025,28.102L19.025,28.102z    M28.192,24.286c0.269-0.479,0.172-0.616,0.497-0.677c0.326-0.062,0.201,0.565,0.307,1.023c0.105,0.459,0.143-0.002,0.332,0.104   c0.189,0.105-0.61,0.731-0.268,0.751c0.341,0.02-0.953,1.712-1.524,1.019c-0.57-0.695,0.141-1.722,0.291-1.815   C27.975,24.596,27.923,24.765,28.192,24.286L28.192,24.286z M19.432,29.452c0.48-0.354-0.121-0.017,0.908-0.477   c1.029-0.458,0.529,0.622,0.882,0.699s0.071,0.636,0.256,0.749s1.465-1.849,0.815-0.202c-0.417,1.055-0.932,1.632-0.545,1.862   c0.387,0.231-0.315,0.447-0.799,0.103c-0.482-0.344-1.445,0.525-2.165-0.666c-0.72-1.19,0.777-0.646,0.952-0.806   C19.913,30.554,18.953,29.809,19.432,29.452L19.432,29.452z M25.317,31.626c-0.12-0.337,0.904-1.609,1.566-1.563   c0.663,0.045-0.45,0.672-0.45,1.742c0,1.069,0.111-0.407,0.275-0.528c0.164-0.121,0.128-0.497,0.323-0.533   c0.192-0.037,1.319-0.372,0.751,0.39c-0.57,0.762,0.814,0.937,1.511,0.962c0.697,0.024-0.345,0.819,0.115,0.611   s0.004-0.107,0.263,0.006s1.378,1.875,0.944,2.97s-0.703-0.896-1.142-0.383c-0.438,0.513-0.349-0.488,0.097,1.097   c0.446,1.586-1.117-0.261-0.567,0.91c0.55,1.172-1.426-1.049-1.49-1.075c-0.064-0.026-0.018-0.32-0.384-0.158   c-0.367,0.163-0.572-0.378-0.275-0.533c0.296-0.155,0.192,0.516,0.53,0.188c0.337-0.33,0.817-1.916,0.811-2.096   c-0.007-0.181-0.314,0.357-0.421,0.142c-0.106-0.216,0.223-0.72,0-1c-0.224-0.278,0.035-0.258-0.202-0.359   c-0.237-0.101-0.112,0.608-0.447,0.451c-0.334-0.157-2.103-0.234-1.773-0.822C25.68,31.454,25.438,31.964,25.317,31.626   L25.317,31.626z M31.944,22.986c0.111-0.134,0.052,0.07,0.012-0.094c-0.042-0.164,0.417-0.096,0.472-0.055   c0.054,0.039-0.104,0.254,0.008,0.282c0.111,0.029,0.296-0.589,0.663-0.298c0.368,0.291-0.194,0.365,0.071,0.227   c0.264-0.14,0.103,0.101,0.349,0.003c0.245-0.097-0.202-0.045,0.35,0.113c0.551,0.158-0.118,0.188,0.109,0.397   c0.227,0.207,0.356-0.132,0.538,0.017c0.182,0.148,0.213-0.294,0.273-0.039c0.062,0.256,0.731,0.753-0.237,1.02   c-0.968,0.267-4.7,2.547-4.734,3.264c-0.034,0.717-0.697,1.293-0.922,0.671c-0.225-0.623-0.551,0.133-1.284-0.223   c-0.731-0.357,0.525-0.104,0.594-0.636c0.067-0.531,1.209-0.007,0.131-0.717c-1.079-0.711,1.003-0.267,1.208-0.316   c0.206-0.05-0.338-0.28-0.194-0.432s0.118-0.027,0.14-0.738c0.023-0.711,0.842,0.417,0.764,0.148   c-0.078-0.268,0.134-0.651,0.316-0.958c0.183-0.307-0.676,0.094-0.999,0.035s-0.164-0.587-0.064-0.778   c0.099-0.19-0.167-0.003,0.028-0.178s0.008,0.068-0.139-0.039c-0.146-0.107,0.327-0.364,0.489-0.384s0.641-0.022,0.667-0.133   c0.025-0.109,0.158,0.052,0.218,0.009c0.062-0.043-0.228-0.112,0.024-0.216c0.251-0.103,0.208,0.278,0.467,0.144   c0.259-0.136,0.021-0.252,0.218-0.117c0.198,0.135,0.025-0.136,0.182-0.213C31.819,22.676,31.833,23.118,31.944,22.986   L31.944,22.986z M84.374,46.628c0.133,0.573,0.113,0.941-0.128,0.968c-0.24,0.027,0.146-0.455-0.087-0.216   c-0.23,0.239-0.157,0.127-0.246,0.182c-0.088,0.055-0.008,0.265-0.313,0.178c-0.305-0.087-0.052-0.178-0.256,0.298   s-0.063-0.096-0.318-0.289c-0.256-0.194,0.043,0.563-0.196,0.542c-0.238-0.021,0.006,0.298-0.313,0.223   c-0.319-0.076,0.301-0.508,0.223-0.648c-0.078-0.142-0.302,0.254-0.536,0.254c-0.237,0,0.034-0.089-0.022,0.596   c-0.056,0.685-0.139,0.334-0.196,0.303c-0.057-0.032-0.107,0.356-0.202-0.128c-0.093-0.485-0.409-0.401,0.15-0.971   c0.562-0.569,1.053-0.315,1.16-0.767c0.106-0.45,0.229-0.44,0.426-0.362c0.196,0.08,0.095,0.061,0.232-0.415   c0.136-0.476-0.068-0.489-0.069-0.842c0-0.354,0.054-0.409,0.197-0.402c0.143,0.006-0.288-1.047,0.198-0.044   C84.563,46.09,84.241,46.055,84.374,46.628L84.374,46.628z M59.92,31.092c0.145-0.337-0.13-0.194,0.211-0.088   C60.471,31.109,59.775,31.429,59.92,31.092L59.92,31.092z M79.688,52.546c-0.293,0.359-0.362,0.229-0.277-0.618   S79.98,52.188,79.688,52.546L79.688,52.546z M79.703,54.334c-0.021-0.119-0.438-0.464,0.086-0.693   c0.523-0.23,0.245,0.938,0.375,1.257c0.129,0.317-0.298,0.432-0.299,0.171c-0.001-0.263-0.055-0.008-0.198-0.367   C79.522,54.343,79.725,54.454,79.703,54.334L79.703,54.334z M61.386,24.861c0.156,0.985,1.148-0.145,0.856-0.517   c-0.289-0.372,0.117-0.227-0.033-0.279S61.229,23.876,61.386,24.861L61.386,24.861z M63.865,25.303   c-0.24-0.504,0.165,0.002,0.31-0.11c0.159-0.123,1.344,0.161,0.533,0.746S64.104,25.806,63.865,25.303L63.865,25.303z    M83.726,44.085c0.051-0.08,0.085-0.078-0.047-0.633c-0.134-0.556,0.444,0.199,0.853,0.197c0.406-0.001,0.179,0.072,0.325,0.239   c0.145,0.166,0.136-0.291,0.134-0.034c-0.001,0.256-0.401,0.31-0.426,0.267c-0.024-0.042-0.02,0.56-0.383,0.306   c-0.365-0.254-0.757-0.135-0.449,0.081c0.307,0.215,0.06,0.713-0.156,0.173C83.358,44.14,83.674,44.165,83.726,44.085   L83.726,44.085z M62.378,25.177c-0.126-0.264-0.316,0.031-0.013-0.247c0.305-0.276,0.275,0.036,0.596,0.179   c0.318,0.145-0.128-0.234,0.002-0.416c0.13-0.181,0.658,0.521,0.578,0.635c-0.078,0.113,0.942,0.677-0.198,0.475   C62.203,25.6,62.504,25.439,62.378,25.177L62.378,25.177z M56.472,31.979c-0.128-0.229,0.586-0.12,0.606,0.069   c0.049,0.431,0.854,1.406,0.538,1.307c-0.316-0.1-0.803,0.291-0.683-0.214c0.091-0.374-0.361-0.066-0.564-0.169   c-0.07-0.036-0.074-0.107-0.07-0.237c0.021-0.551,0.113-0.148,0.001-0.579C56.187,31.726,56.6,32.207,56.472,31.979L56.472,31.979z    M73.363,24.94c0.179-0.263,0.19,0.395,1.048,0.684c0.521,0.175-0.104-0.063-0.414,0.171c-0.309,0.236,0.15,0.1-0.268,0.435   c-0.419,0.334-1.749-1.533-0.911-1.244C73.658,25.273,73.158,25.243,73.363,24.94L73.363,24.94z M82.1,38.825   c-0.067-0.061-0.157-0.368,0.101-0.102c0.257,0.268-0.027,0.089,0.793,1.438c0.82,1.348,0.658,0.871,0.361,1.07   c-0.298,0.199,0.26,0.706,0.521,0.923c0.259,0.217,0.253,0.399-0.039,0.365c-0.291-0.035-0.087,0.303-0.245,0.32   s-0.155,0.004-0.184-0.421c-0.027-0.426-1.285-2.904-1.24-3.146C82.214,39.032,82.165,38.886,82.1,38.825L82.1,38.825z    M57.313,29.588c0.13-0.198,0.2-0.128,0.409-0.256c0.208-0.129,0.511-1.161,0.85-0.707c0.337,0.452-0.486,0.933-0.974,1.687   c-0.489,0.754-0.171,0.717-0.249,0.914c-0.078,0.198-0.377-0.143-0.243,0.02c0.136,0.162,0.156,0.398-0.125,0.39   c-0.28-0.008-0.433,0.048-0.227-0.202c0.209-0.25-0.47,0.2-0.281-0.14c0.188-0.34,0.231-0.05,0.329-0.134   c0.097-0.082-0.319-0.178-0.159-0.255c0.068-0.034,0.015-0.102-0.018-0.162c-0.169-0.312-0.066-0.21,0.011-0.302   s0.077-0.205,0.172-0.383C56.903,29.881,57.183,29.785,57.313,29.588L57.313,29.588z M56.425,46.235   c0.027,0.169-0.078,0.274-0.239,0.345c-0.161,0.071-0.205-0.038-0.502,0.028c-0.297,0.066-0.881-0.35-1.066-0.35   c-0.188,0.001-0.269-0.019-0.593,0.078c-0.325,0.097-0.237,0.195-0.426,0.276c-0.186,0.082-0.155-0.039-0.278-0.038   c-0.123,0-0.283-0.126-0.292,0.027s0.084,0.061,0.173,0.151c0.091,0.091-0.16,0.016-0.201,0.05   c-0.038,0.034,0.111,0.083,0.023,0.104c-0.086,0.02-0.292-0.005-0.431-0.009c-0.139-0.005-0.178-0.017-0.048-0.109   c0.129-0.092,0.092-0.128,0.255-0.133c0.164-0.005,0.152,0.096,0.202-0.017c0.051-0.111-0.05-0.071-0.16-0.141   c-0.111-0.068-0.094-0.066-0.137-0.192c-0.042-0.126-0.174,0.03-0.12-0.183c0.055-0.212,0.076-0.216,0.234-0.352   c0.161-0.135,0.015,0.052,0.019-0.229c0.003-0.282,0.221-0.21,0.23-0.428c0.01-0.219-0.174,0.021-0.006-0.109   c0.165-0.132,0.251-0.4,0.49-0.425c0.241-0.024,0.114,0.011,0.196,0.019c0.085,0.008-0.108,0.058-0.134,0.07   c-0.024,0.014-0.104-0.026-0.024,0.015c0.078,0.041,0.142,0.146,0.521,0.109c0.379-0.036,0.157-0.028,0.397-0.137   s0.26-0.039,0.463-0.199s0.339-0.221,0.563-0.138c0.225,0.084-0.101,0.116-0.17,0.18c-0.068,0.064-0.012,0.013-0.017,0.017   c-0.004,0.004,0.009-0.001-0.017,0.016c-0.024,0.017-0.162-0.018-0.135,0.09c0.028,0.107,0.189-0.019,0.149,0.139   c-0.042,0.158-0.137,0.169-0.15,0.274c-0.017,0.106-0.088-0.004-0.109-0.005c-0.021,0-0.014,0.001-0.022,0.002   c-0.011,0.002-0.04-0.059-0.042,0.009c-0.002,0.066-0.163,0.104,0.216,0.256s0.429,0.292,0.914,0.547   C56.64,46.101,56.396,46.065,56.425,46.235L56.425,46.235z M43.449,41.992c0.077,0.502,0.038,0.536-0.402,0.777   c-0.441,0.242-0.775-0.1-0.663-0.139c0.112-0.04,0.087-0.153,0.123-0.262s0.012-0.182,0.003-0.224   c-0.008-0.042,0.12-0.101,0.121-0.143c0.001-0.04-0.341-0.089-0.061-0.2c0.281-0.111-0.36-0.497,0.705-0.339   C44.339,41.62,43.371,41.491,43.449,41.992L43.449,41.992z M48.569,47.768c0.107-0.154,0.237,0.004,0.399-0.015   c0.162-0.017,0.302-0.193,0.399-0.081c0.096,0.111-0.051,0.113-0.073,0.248c-0.021,0.136,0.134,0.177-0.001,0.29   c-0.136,0.113-0.296-0.123-0.399-0.17c-0.102-0.047-0.091-0.058-0.204-0.111C48.577,47.876,48.462,47.921,48.569,47.768   L48.569,47.768z M47.33,46.789c-0.09-0.25,0.02-0.012,0.026-0.015c0.006-0.004,0.004-0.001,0.025-0.016   c0.022-0.016,0.067-0.051,0.109-0.076c0.044-0.025,0.073-0.108,0.182-0.033c0.108,0.074,0.055,0.173,0.062,0.299   c0.006,0.127,0.014,0.289,0.005,0.365c-0.009,0.076,0.107-0.052-0.027,0.012s-0.02,0.213-0.224,0.12   C47.284,47.351,47.419,47.039,47.33,46.789L47.33,46.789z M53.869,45.078c0.02-0.104,0.111-0.107,0.189-0.175   c0.078-0.068,0.012-0.02,0.037-0.037c0.025-0.019-0.023-0.042,0.094-0.035c0.115,0.006,0.181,0.218,0.318,0.25   s0.363-0.188,0.395-0.038c0.034,0.151-0.013,0.08-0.211,0.116c-0.198,0.037-0.418,0.342-0.589,0.216   c-0.172-0.125,0.045-0.17-0.04-0.237C53.977,45.071,53.851,45.182,53.869,45.078L53.869,45.078z M43.863,41.585   c-0.05-0.106-0.548-1.352,0.036-1.494c0.583-0.142,0.111,0.328,0.236,0.402c0.126,0.074,0.392-0.115,0.476-0.011   c0.085,0.104-0.641,0.701-0.313,0.662c0.327-0.04,0.861,1.262,1.033,1.246c0.172-0.015,0.554-0.131,0.199,0.311   c-0.354,0.441,0.783,0.103-0.584,0.53c-1.366,0.427-1.177,0.271-1.018,0.067c0.159-0.205,0.044-0.063,0.451-0.234   c0.406-0.172-0.818-0.138-0.421-0.363c0.399-0.225,0.52-0.765,0.408-0.827c-0.112-0.063,0.016-0.314-0.083-0.333   C44.186,41.523,43.913,41.69,43.863,41.585z"/></g></svg>