<svg xmlns="http://www.w3.org/2000/svg" xmlns:xlink="http://www.w3.org/1999/xlink" version="1.1" x="0px" y="0px" viewBox="0 0 100 125" style="enable-background:new 0 0 100 100;" xml:space="preserve">
    <path d="M45.4082,37.3916c0.19727,0.23828,0.4834,0.3623,0.77148,0.3623c0.22363,0,0.4502-0.0752,0.63672-0.22949  c0.4248-0.35156,0.48535-0.98242,0.13281-1.4082c-2.53125-3.06055-5.43945-5.50781-8.64453-7.27344  c-0.48438-0.26562-1.0918-0.09082-1.3584,0.39355c-0.2666,0.4834-0.08984,1.0918,0.39355,1.3584  C40.32324,32.23828,43.03809,34.52441,45.4082,37.3916z"/><path d="M40.0918,41.77832c0.1377-0.53516-0.18457-1.08008-0.71973-1.21777c-3.84961-0.98926-7.63965-1.25879-11.27051-0.80176  c-0.54785,0.06934-0.93652,0.56934-0.86719,1.11719c0.06836,0.54785,0.55273,0.93457,1.11719,0.86719  c3.38086-0.42285,6.91992-0.1709,10.52246,0.75488c0.08398,0.02148,0.16699,0.03125,0.25,0.03125  C39.56934,42.5293,39.97559,42.22949,40.0918,41.77832z"/><path d="M26.94824,56.31445c0.24512,0,0.49121-0.08984,0.68359-0.27051c2.48535-2.3291,5.49902-4.20508,8.95703-5.57422  c0.51367-0.20312,0.76465-0.78418,0.56152-1.29785s-0.78613-0.76367-1.29785-0.56152  c-3.69336,1.46191-6.91895,3.47266-9.58789,5.97461c-0.40332,0.37793-0.42383,1.01074-0.0459,1.41309  C26.41504,56.20801,26.68164,56.31445,26.94824,56.31445z"/><path d="M39.11914,56.88281c-0.46582-0.2959-1.08496-0.1582-1.38086,0.30859c-2.12891,3.35547-3.55762,6.87793-4.24609,10.46875  c-0.10352,0.54297,0.25195,1.06641,0.79395,1.1709c0.06348,0.01172,0.12695,0.01758,0.18945,0.01758  c0.4707,0,0.88965-0.33301,0.98145-0.81152c0.63965-3.34375,1.97559-6.63184,3.9707-9.77344  C39.72363,57.79688,39.58496,57.17969,39.11914,56.88281z"/><path d="M45.24219,61.96484c-0.55176,0.03516-0.9707,0.50977-0.93555,1.06055c0.25,3.9668,1.16504,7.65527,2.71973,10.96484  c0.1709,0.36328,0.53027,0.5752,0.90625,0.5752c0.14258,0,0.28711-0.03027,0.42383-0.09473  c0.5-0.23535,0.71484-0.83105,0.48047-1.33008c-1.44727-3.08105-2.2998-6.52637-2.53418-10.24023  C46.26758,62.34863,45.76855,61.94141,45.24219,61.96484z"/><path d="M61.69531,71.15723c0.15332,0.08398,0.31836,0.12402,0.48145,0.12402c0.35254,0,0.69434-0.18652,0.87695-0.51758  c0.2666-0.4834,0.08984-1.0918-0.39355-1.3584c-2.9834-1.64355-5.69824-3.92969-8.06836-6.79688  c-0.34961-0.42285-0.98047-0.48535-1.4082-0.13281c-0.4248,0.35156-0.48535,0.98242-0.13281,1.4082  C55.58203,66.94434,58.49023,69.3916,61.69531,71.15723z"/><path d="M72.76562,59.12402c-0.06934-0.54785-0.55469-0.93457-1.11719-0.86719c-3.37988,0.4248-6.91895,0.1709-10.52246-0.75488  c-0.53223-0.13477-1.0791,0.18457-1.21777,0.71973c-0.1377,0.53516,0.18457,1.08008,0.71973,1.21777  c2.6377,0.67773,5.24805,1.01758,7.79785,1.01758c1.1709,0,2.33008-0.07227,3.47266-0.21582  C72.44629,60.17188,72.83496,59.67188,72.76562,59.12402z"/><path d="M73.78125,44.00195c-0.37598-0.40137-1.01074-0.42285-1.41309-0.0459c-2.48535,2.3291-5.49902,4.20508-8.95703,5.57422  c-0.51367,0.20312-0.76465,0.78418-0.56152,1.29785c0.15527,0.39258,0.53223,0.63184,0.92969,0.63184  c0.12305,0,0.24707-0.02246,0.36816-0.07031c3.69336-1.46191,6.91895-3.47266,9.58789-5.97461  C74.13867,45.03711,74.15918,44.4043,73.78125,44.00195z"/><path d="M60.88086,43.11719c0.16602,0.10547,0.35156,0.15527,0.53516,0.15527c0.33105,0,0.65527-0.16406,0.8457-0.46387  c2.12891-3.35547,3.55762-6.87793,4.24609-10.46875c0.10352-0.54297-0.25195-1.06641-0.79395-1.1709  c-0.54199-0.10059-1.06738,0.25195-1.1709,0.79395c-0.63965,3.34375-1.97559,6.63184-3.9707,9.77344  C60.27637,42.20312,60.41504,42.82031,60.88086,43.11719z"/><path d="M51.64355,25.5293c-0.5,0.23535-0.71484,0.83105-0.48047,1.33008c1.44727,3.08105,2.2998,6.52637,2.53418,10.24023  c0.0332,0.53027,0.47363,0.9375,0.99707,0.9375c0.02148,0,0.04297-0.00098,0.06348-0.00195  c0.55176-0.03516,0.9707-0.50977,0.93555-1.06055c-0.25-3.9668-1.16504-7.65527-2.71973-10.96484  C52.7373,25.50879,52.13965,25.29395,51.64355,25.5293z"/><path d="M50.00488,59.31738c0.85156,0,1.71777-0.11816,2.57715-0.36523c4.93555-1.4248,7.79297-6.59863,6.37012-11.53418  c-1.4248-4.93457-6.59082-7.79004-11.53418-6.37012c-4.93555,1.4248-7.79297,6.59863-6.37012,11.53418  C42.22461,56.6582,45.95898,59.31738,50.00488,59.31738z M47.97266,42.96973c0.67383-0.19434,1.35449-0.28711,2.02344-0.28711  c3.17773,0,6.11035,2.08789,7.03418,5.29004c1.11816,3.87598-1.12695,7.93945-5.00293,9.05762  c-3.875,1.11914-7.93945-1.12598-9.05762-5.00293C41.85156,48.15137,44.09668,44.08789,47.97266,42.96973z"/><path d="M50.79199,10c-3.04004,0-5.51367,2.47266-5.51367,5.5127s2.47363,5.51367,5.51367,5.51367s5.5127-2.47363,5.5127-5.51367  S53.83203,10,50.79199,10z M50.79199,19.02637c-1.9375,0-3.51367-1.57617-3.51367-3.51367c0-1.93652,1.57617-3.5127,3.51367-3.5127  c1.93652,0,3.5127,1.57617,3.5127,3.5127C54.30469,17.4502,52.72852,19.02637,50.79199,19.02637z"/><path d="M33.45215,25.25c0.93457,0,1.88184-0.23828,2.74707-0.7373c2.63184-1.52148,3.53711-4.89941,2.01758-7.53125  c-0.73633-1.27539-1.9248-2.1875-3.34766-2.56934c-1.4209-0.37988-2.9082-0.18457-4.18359,0.55078  c-1.27539,0.73633-2.1875,1.92578-2.56836,3.34766c-0.38184,1.42285-0.18555,2.9082,0.55078,4.18359  C29.68848,24.26074,31.54492,25.25,33.45215,25.25z M30.04883,18.82812c0.24316-0.90625,0.82422-1.66406,1.63672-2.13281  c0.55176-0.31836,1.15527-0.46973,1.75098-0.46973c1.21484,0,2.39844,0.62988,3.04785,1.75586  c0.96875,1.67676,0.3916,3.83008-1.28516,4.79883s-3.83105,0.3916-4.79883-1.28613  C29.93066,20.68164,29.80566,19.73535,30.04883,18.82812z"/><path d="M25.85449,30.64355c-0.38086-1.42188-1.29297-2.61133-2.56836-3.34766s-2.76172-0.93164-4.18359-0.55078  c-1.42285,0.38184-2.61133,1.29395-3.34766,2.56934c-1.51953,2.63281-0.61523,6.01074,2.01758,7.53125  c0.84961,0.49023,1.79297,0.74121,2.74805,0.74121c0.47852,0,0.96094-0.06348,1.43555-0.19043  c1.42285-0.38184,2.61133-1.29395,3.34766-2.56934S26.23535,32.06641,25.85449,30.64355z M23.57129,33.82715  c-0.96777,1.67773-3.12109,2.25293-4.79883,1.28613c-0.8125-0.46875-1.39355-1.22656-1.63672-2.13281  c-0.24219-0.90625-0.11816-1.85352,0.35156-2.66602c0.46875-0.8125,1.22656-1.39453,2.13281-1.6377  c0.90527-0.24121,1.85352-0.11719,2.66602,0.35156s1.39355,1.22656,1.63672,2.13281  C24.16504,32.06738,24.04102,33.01465,23.57129,33.82715z"/><path d="M15.5127,54.72168c3.04004,0,5.51367-2.47363,5.51367-5.51367s-2.47363-5.5127-5.51367-5.5127S10,46.16797,10,49.20801  S12.47266,54.72168,15.5127,54.72168z M15.5127,45.69531c1.9375,0,3.51367,1.57617,3.51367,3.5127  c0,1.9375-1.57617,3.51367-3.51367,3.51367c-1.93652,0-3.5127-1.57617-3.5127-3.51367  C12,47.27148,13.57617,45.69531,15.5127,45.69531z"/><path d="M16.98145,61.7832c-1.27539,0.73633-2.1875,1.9248-2.56934,3.34766c-0.38086,1.42188-0.18555,2.9082,0.55078,4.18359  s1.92578,2.1875,3.34766,2.56836c0.47559,0.12793,0.95703,0.19043,1.43555,0.19043c0.95605,0,1.89844-0.25098,2.74805-0.74121  c2.63281-1.52051,3.53809-4.89844,2.01855-7.53125C22.99219,61.16797,19.61523,60.26367,16.98145,61.7832z M21.49414,69.59961  c-0.81152,0.4707-1.75684,0.5957-2.66602,0.35156c-0.90625-0.24316-1.66406-0.82422-2.13281-1.63672  c-0.96875-1.67773-0.3916-3.83105,1.28613-4.79883c0.55176-0.31836,1.15527-0.46973,1.75-0.46973  c1.21484,0,2.39844,0.62988,3.04883,1.75488C23.74902,66.47852,23.17188,68.63086,21.49414,69.59961z"/><path d="M29.31445,84.24512c0.86621,0.5,1.8125,0.7373,2.74805,0.7373c1.90625,0,3.7627-0.98828,4.7832-2.75488  c0.73633-1.27539,0.93164-2.76172,0.55078-4.18359c-0.38184-1.42285-1.29395-2.61133-2.56934-3.34766  s-2.75879-0.93262-4.18359-0.55078c-1.42188,0.38086-2.61133,1.29297-3.34766,2.56836s-0.93164,2.76172-0.55078,4.18359  C27.12695,82.32031,28.03906,83.50879,29.31445,84.24512z M29.02832,77.71387c0.46875-0.8125,1.22656-1.39355,2.13281-1.63672  c0.30273-0.08105,0.61035-0.12109,0.91504-0.12109c0.6084,0,1.20996,0.16016,1.75098,0.47266  c1.67773,0.96777,2.25488,3.12109,1.28613,4.79883c-0.46875,0.8125-1.22656,1.39355-2.13281,1.63672  s-1.85352,0.11719-2.66602-0.35156s-1.39453-1.22656-1.6377-2.13281C28.43457,79.47363,28.55859,78.52637,29.02832,77.71387z"/><path d="M49.20801,90c3.04004,0,5.51367-2.47266,5.51367-5.5127s-2.47363-5.51367-5.51367-5.51367s-5.5127,2.47363-5.5127,5.51367  S46.16797,90,49.20801,90z M49.20801,80.97363c1.9375,0,3.51367,1.57617,3.51367,3.51367c0,1.93652-1.57617,3.5127-3.51367,3.5127  c-1.93652,0-3.5127-1.57617-3.5127-3.5127C45.69531,82.5498,47.27148,80.97363,49.20801,80.97363z"/><path d="M65.13086,85.58789c0.47461,0.12695,0.95703,0.19043,1.43555,0.19043c0.95508-0.00098,1.89844-0.25098,2.74805-0.74121  c1.27539-0.73633,2.1875-1.92578,2.56836-3.34766c0.38184-1.42285,0.18555-2.9082-0.55078-4.18359  c-1.52148-2.63281-4.90137-3.53613-7.53125-2.01855c-2.63184,1.52148-3.53711,4.89941-2.01758,7.53125  C62.51953,84.29395,63.70801,85.20605,65.13086,85.58789z M64.80078,77.21973c0.55176-0.31836,1.1543-0.46973,1.75-0.46973  c1.21582,0,2.39941,0.62988,3.04883,1.75586c0.46973,0.8125,0.59473,1.75879,0.35156,2.66602  c-0.24316,0.90625-0.82422,1.66406-1.63672,2.13281c-1.67773,0.96777-3.83105,0.39258-4.79883-1.28613  C62.54688,80.3418,63.12402,78.18848,64.80078,77.21973z"/><path d="M76.71387,72.7041c0.84961,0.49023,1.79297,0.74121,2.74805,0.74121c0.47852,0,0.96094-0.06348,1.43555-0.19043  c1.42285-0.38184,2.61133-1.29395,3.34766-2.56934c1.51953-2.63281,0.61523-6.01074-2.01758-7.53125  c-1.27539-0.73535-2.76172-0.93164-4.18359-0.55078c-1.42285,0.38184-2.61133,1.29395-3.34766,2.56934  s-0.93164,2.76074-0.55078,4.18359C74.52637,70.77832,75.43848,71.96777,76.71387,72.7041z M76.42871,66.17285  c0.64941-1.12598,1.83301-1.75586,3.04785-1.75586c0.5957,0,1.19922,0.15137,1.75098,0.46973  c0.8125,0.46875,1.39355,1.22656,1.63672,2.13281c0.24219,0.90625,0.11816,1.85352-0.35156,2.66602  c-0.46875,0.8125-1.22656,1.39453-2.13281,1.6377c-0.9043,0.24219-1.85352,0.11816-2.66602-0.35156  c-0.8125-0.46875-1.39355-1.22656-1.63672-2.13281C75.83496,67.93262,75.95898,66.98535,76.42871,66.17285z"/><path d="M90,50.79199c0-3.04004-2.47266-5.51367-5.5127-5.51367s-5.51367,2.47363-5.51367,5.51367s2.47363,5.5127,5.51367,5.5127  S90,53.83203,90,50.79199z M84.4873,54.30469c-1.9375,0-3.51367-1.57617-3.51367-3.5127c0-1.9375,1.57617-3.51367,3.51367-3.51367  c1.93652,0,3.5127,1.57617,3.5127,3.51367C88,52.72852,86.42383,54.30469,84.4873,54.30469z"/><path d="M75.4873,36.19922c1.02051,1.7666,2.87793,2.75488,4.78418,2.75488c0.93457,0,1.88086-0.2373,2.74707-0.7373  c1.27539-0.73633,2.1875-1.9248,2.56934-3.34766c0.38086-1.42188,0.18555-2.9082-0.55078-4.18359s-1.92578-2.1875-3.34766-2.56836  c-1.42578-0.38281-2.9082-0.18457-4.18359,0.55078C74.87305,30.18848,73.96777,33.56641,75.4873,36.19922z M78.50586,30.40039  c0.54102-0.31348,1.14258-0.47266,1.75098-0.47266c0.30469,0,0.6123,0.04004,0.91504,0.12109  c0.90625,0.24316,1.66406,0.82422,2.13281,1.63672c0.96875,1.67773,0.3916,3.83105-1.28613,4.79883  c-1.67871,0.96973-3.83008,0.39062-4.79883-1.28516C76.25098,33.52148,76.82812,31.36914,78.50586,30.40039z"/><path d="M70.68555,15.75488c-2.63184-1.51855-6.00977-0.61621-7.53125,2.01758c-0.73633,1.27539-0.93164,2.76172-0.55078,4.18359  c0.38184,1.42285,1.29395,2.61133,2.56934,3.34766c0.84961,0.49023,1.79199,0.74121,2.74805,0.74121  c0.47852,0,0.95996-0.06348,1.43555-0.19043c1.42188-0.38086,2.61133-1.29297,3.34766-2.56836s0.93164-2.76172,0.55078-4.18359  C72.87305,17.67969,71.96094,16.49121,70.68555,15.75488z M70.97168,22.28613c-0.46875,0.8125-1.22656,1.39355-2.13281,1.63672  c-0.90625,0.24414-1.85352,0.11816-2.66602-0.35156c-1.67773-0.96777-2.25488-3.12109-1.28613-4.79883  c0.46875-0.8125,1.22656-1.39355,2.13281-1.63672c0.90723-0.24219,1.85449-0.11719,2.66602,0.35156  c0.8125,0.46875,1.39453,1.22656,1.6377,2.13281C71.56543,20.52637,71.44141,21.47363,70.97168,22.28613z"/>
</svg>
