<svg xmlns="http://www.w3.org/2000/svg" xmlns:xlink="http://www.w3.org/1999/xlink" version="1.1" x="0px" y="0px" viewBox="0 0 100 125" style="enable-background:new 0 0 100 100;" xml:space="preserve"><g><circle cx="48.7" cy="60.9" r="4.3"/><circle cx="58.8" cy="60.9" r="4.9"/><circle cx="47.6" cy="70.3" r="4.2"/><circle cx="53.2" cy="53.1" r="3.7"/><circle cx="43.5" cy="52" r="5"/><circle cx="34.9" cy="64.2" r="8.9"/><circle cx="65.9" cy="68.6" r="4.5"/><circle cx="56.7" cy="70.4" r="3.8"/><circle cx="63.7" cy="52.6" r="3.7"/><circle cx="68.5" cy="59.7" r="3.8"/><circle cx="58.1" cy="46" r="3.9"/><circle cx="45.7" cy="33.3" r="12.9"/><circle cx="30.7" cy="47.8" r="6.9"/><circle cx="22.8" cy="56.9" r="4.2"/><circle cx="18" cy="68.8" r="7.6"/><circle cx="29.2" cy="82.1" r="8.8"/><circle cx="48.5" cy="85.3" r="9.7"/><circle cx="62.2" cy="78.1" r="4.7"/><circle cx="72.5" cy="76.4" r="4.8"/><circle cx="75.1" cy="67.1" r="3.9"/><circle cx="71.7" cy="27.6" r="12.7"/><circle cx="81.9" cy="54.2" r="9.7"/><circle cx="69.5" cy="45.5" r="4.4"/><circle cx="56.3" cy="18.5" r="4.2"/><circle cx="13.3" cy="53.5" r="4.9"/><circle cx="34.8" cy="13.5" r="8.5"/><circle cx="28.7" cy="26.1" r="4.4"/><circle cx="25.8" cy="36" r="4.9"/><circle cx="18.5" cy="44" r="4.9"/><circle cx="47.9" cy="15.7" r="3.7"/></g></svg>