<?xml version="1.0" encoding="iso-8859-1"?>
<!-- Generator: Adobe Illustrator 18.1.1, SVG Export Plug-In . SVG Version: 6.00 Build 0)  -->
<svg version="1.1" id="Capa_1" xmlns="http://www.w3.org/2000/svg" xmlns:xlink="http://www.w3.org/1999/xlink" x="0px" y="0px"
	 viewBox="0 0 197.896 197.896" style="enable-background:new 0 0 197.896 197.896;" xml:space="preserve">
<g>
	<g>
		<g>
			<path style="fill:#010002;" d="M102.004,56.098c-0.054-4.559,2.061-8.12,4.119-11.581c2.713-4.574,5.522-9.305,3.568-15.808
				c-1.986-5.966-5.751-8.893-9.087-11.495c-4.488-3.482-7.727-5.998-6.038-15.543l0.147-0.82L89.883,0L89.74,0.812
				c-2.201,12.469,3.142,16.617,7.856,20.278c3.042,2.373,5.916,4.61,7.415,9.097c1.31,4.381-0.644,7.669-3.11,11.832
				c-2.294,3.869-4.889,8.231-4.828,14.076c-24.469,0.025-49.47,1.041-49.47,88.004c0,39.192,31.49,53.797,51.346,53.797
				c19.845,0,51.346-14.605,51.346-53.797C150.294,57.24,124.816,56.17,102.004,56.098z M101.4,61.005
				c20.195,0.043,39.106,0.845,43.172,57.809c-13.814,6.46-28.33,9.896-43.172,10.236v-10.615c3.024-0.58,5.3-3.253,5.3-6.378
				V80.005c0-3.135-2.28-5.801-5.3-6.385V61.005z M97.724,78.38h2.452c0.891,0,1.621,0.734,1.621,1.625v32.052
				c0,0.891-0.73,1.607-1.621,1.607h-2.452c-0.891,0-1.618-0.716-1.618-1.607V80.005C96.106,79.114,96.833,78.38,97.724,78.38z
				 M96.489,61.005v12.615c-3.024,0.583-5.293,3.257-5.293,6.385v32.052c0,3.124,2.269,5.798,5.293,6.378v10.615
				c-22.586-0.53-39.027-8.06-43.172-10.16C57.365,61.843,76.287,61.048,96.489,61.005z M98.948,192.975
				c-17.952,0-46.439-13.267-46.439-48.88c0-7.097,0.161-13.789,0.48-19.909c7.168,3.325,23.964,9.806,46.053,9.806
				c15.725,0,31.15-3.343,45.856-9.917c0.319,6.148,0.483,12.884,0.483,20.024C145.38,179.708,116.9,192.975,98.948,192.975z"/>
		</g>
		<g>
			<polygon style="fill:#010002;" points="114.742,70.936 109.935,76.806 119.537,76.806 			"/>
		</g>
		<g>
			<polygon style="fill:#010002;" points="114.913,121.223 119.709,115.354 110.118,115.354 			"/>
		</g>
	</g>
</g>
<g>
</g>
<g>
</g>
<g>
</g>
<g>
</g>
<g>
</g>
<g>
</g>
<g>
</g>
<g>
</g>
<g>
</g>
<g>
</g>
<g>
</g>
<g>
</g>
<g>
</g>
<g>
</g>
<g>
</g>
</svg>
