<svg xmlns="http://www.w3.org/2000/svg" xmlns:xlink="http://www.w3.org/1999/xlink" version="1.1" baseProfile="tiny" x="0px" y="0px" viewBox="0 0 100 125" xml:space="preserve"><path d="M5.1,63.1l0.8,3.9l0.8,3.2l0.8,2.2l0.8,0.9l0.9-0.3l0.9-1.4l0.9-2.3l0.9-3l0.9-3.3l0.9-3.4l0.9-3.2l0.9-2.9  l0.9-2.5l0.9-1.9l0.9-1.3l0.9-0.7l0.9-0.1l0.9,0.4l0.9,0.9l0.9,1.3l0.9,1.6l0.9,1.8l0.9,2l0.9,2.1l0.9,2.1l0.9,2l1,2l1,1.9l1,1.7  l1,1.5l1,1.3l1,1.1l1,0.9l1,0.8l1,0.6l1,0.4l1,0.3l1,0l1,0l1-0.2l1-0.3l1.1-0.3l1.1-0.4l1.1-0.5l1.1-0.5l1.1-0.6l1.1-0.6l1.1-0.6  L52,69l1.1-0.6l1.1-0.6l1.1-0.6l1.1-0.5l1.1-0.5l1.1-0.5l1.1-0.4l1.1-0.4l1.2-0.4l1.2-0.3l1.2-0.3l1.2-0.3l1.2-0.2l1.2-0.2l1.2-0.1  l1.2-0.2l1.2-0.1l1.2-0.1l1.2,0l1.2,0l1.2,0l1.2,0.1l1.3,0.1l1.3,0.1l1.3,0.1l1.3,0.1l1.3,0.1l1.3,0.1l1.3,0.1l1.3,0.1l1.3,0.1  l1.3,0.2l1.3,0.2l1.3,0.1l1.7,0.2v15.4l-1.8-0.5l-1.3-0.5l-1.3-0.5l-1.3-0.5l-1.3-0.5l-1.3-0.5l-1.3-0.5L84,75.8l-1.3-0.5l-1.3-0.5  l-1.3-0.5L79,74l-1.2-0.4l-1.2-0.4l-1.2-0.4L74,72.5l-1.2-0.3L71.6,72l-1.2-0.3l-1.2-0.2L68,71.4l-1.2-0.1l-1.2-0.1l-1.2,0l-1.2,0  l-1.2,0L61,71.4l-1.1,0.2l-1.1,0.2L57.6,72l-1.1,0.3l-1.1,0.3L54.2,73l-1.1,0.4L52,73.9l-1.1,0.5l-1.1,0.5l-1.1,0.5L47.7,76  l-1.1,0.5L45.5,77l-1.1,0.5l-1.1,0.4l-1,0.4l-1,0.3l-1,0.2l-1,0.2l-1,0l-1-0.1l-1-0.2l-1-0.4l-1-0.5l-1-0.7l-1-0.8l-1-1l-1-1.1  l-1-1.2l-1-1.3l-1-1.3l-0.9-1.3l-0.9-1.3l-0.9-1.2l-0.9-1l-0.9-0.8l-0.9-0.5l-0.9-0.1L20,64.6l-0.9,0.8l-0.9,1.4l-0.9,1.9l-0.9,2.4  L15.4,74l-0.9,3.2l-0.9,3.4l-0.9,3.4l-0.9,3.1l-0.9,2.6L10,91.3L9.1,92l-0.9-0.7l-0.8-2.1l-0.8-3.6l-0.8-4.8L5,75.4L5.1,63.1z"/><path d="M14,15c1.3,3,2.3,4,4.4,5.5c1.8,1.2,4.5,1.1,6.5-0.6c2-1.7,4.8-6.6,4.8-6.6l1-1.2l1-1.1l1-1l1-0.8l1-0.6  l1-0.5l1-0.3l1-0.2l1,0l1,0.1l1,0.2l1,0.3l1,0.3l1,0.4l1,0.5l1.1,0.5l1.1,0.5l1.1,0.6l1.1,0.6l1.1,0.6l1.1,0.5l1.1,0.5l1.1,0.5  l1.1,0.5l1.1,0.4l1.1,0.4l1.1,0.4l1.1,0.3l1.1,0.2l1.1,0.2l1.1,0.2l1.2,0.1l1.2,0l1.2,0l1.2,0l1.2,0l1.2-0.1l1.2-0.2l1.2-0.2  l1.2-0.2l1.2-0.2l1.2-0.3l1.2-0.3l1.2-0.4l1.3-0.4l1.3-0.4l1.3-0.4l1.3-0.5l1.3-0.4l1.3-0.4l1.3-0.5l1.3-0.4l1.3-0.5L91,9.5L92.3,9  l1.3-0.5L95,8v25.2l-1.5-0.8l-1.3-0.7L90.8,31l-1.3-0.8l-1.3-0.7l-1.3-0.8l-1.3-0.7l-1.3-0.7L83,26.6L81.8,26l-1.3-0.7l-1.3-0.6  L78,24.1l-1.2-0.6L75.5,23l-1.2-0.5l-1.2-0.4l-1.2-0.4l-1.2-0.3l-1.2-0.2L68.3,21l-1.2-0.1l-1.2,0l-1.2,0L63.6,21l-1.2,0.2l-1.2,0.3  L60.1,22L59,22.5l-1.1,0.6l-1.1,0.7l-1.1,0.8l-1.1,0.9l-1.1,1l-1.1,1.1l-1.1,1.1l-1.1,1.3L49,31.4l-1.1,1.4l-1.1,1.4l-1.1,1.5  l-1.1,1.5l-1.1,1.5l-1.1,1.5l-1,1.4l-1,1.3l-1,1.3l-1,1.1l-1,1l-1,0.9l-1,0.7l-1,0.4l-1,0.2l-1,0l-1-0.3l-1-0.6l-1-0.9l-1-1.2  l-0.9-1.5l-0.9-1.7l-0.9-1.9l-0.9-2.1l-0.9-2.2l-0.9-2.2L22,31.8l-0.9-2.1l-0.9-2l-0.9-1.6l-0.9-1.3l-0.9-0.9l-0.9-0.4l-0.9,0.1  l-0.9,0.6l-0.9,1.1L13,26.9l-0.9,1.8l-0.9,2l-0.9,1.9l-0.9,1.8l-0.9,1.4l-0.9,0.9l-0.9,0.4l-0.8,0l-0.8-0.4l0.1-13.2l0.9-5.9  l0.9-5.2L8,8.5L8.8,6l0.9-1l0.9,0.3l0.9,1.4L12.3,9l0.9,2.8L14,15"/><path d="M5.1,53c0.3,0.4,0.5,0.9,0.6,1.3c0.2,0.7,1,3,1,3l1,4.3l0.8,3.1l0.2,0.5l0.6-1.4l0.9-2.9l0.9-3.3l0.9-3.4  l0.9-3.3l0,0l0,0l0.9-2.9l0,0l0,0l0.9-2.5l0-0.1l0-0.1l0.9-1.9l0.1-0.1l0.1-0.1l0.9-1.3l0.2-0.3l0.2-0.2l0.9-0.7l0.4-0.3l0.5-0.1  l0.9-0.1l0.5-0.1l0.5,0.2l0.5,0.2l-0.3-0.6l-0.9-2.2l-0.9-2.1l-0.9-1.9l-0.8-1.5L17,31.1l-0.5-0.5l-0.1,0l-0.3,0.2l-0.6,0.8  l-0.8,1.3l-0.8,1.7l-0.9,1.9l-0.9,1.9l0,0l0,0l-0.9,1.8l0,0.1l0,0.1l-0.9,1.4L10.1,42L10,42.2l-0.9,0.9l-0.2,0.3l-0.3,0.2l-0.9,0.4  c0,0-0.5,0.1-0.6,0.1c-0.1,0-1.2-0.3-1.9-0.5"/><path d="M60.4,58L60.4,58l1.2-0.4l0,0l0,0l1.2-0.3l0.1,0l0.1,0l1.2-0.3l1.2-0.3l0,0l0,0l1.2-0.2l0,0l0,0l0.5-0.1  c0.6-0.2,1.3-0.4,1.9-0.4c0.3,0,0.6,0,0.9,0l0.4-0.1l0.1,0l0.1,0l1.2-0.1l1.2,0l0,0h1.3l1.2,0l1.2,0h0.1l0.1,0l1.2,0l1.3,0.1  l1.3,0.1l0,0l0,0l1.2,0.1l1.2,0.1l0.1,0l0.1,0l1.3,0.1l1.3,0.1l1.3,0.1l1.3,0.1l0,0l0,0l1.3,0.1l0,0l0,0l1.3,0.2l1.3,0.2l0.6,0.1  l2.2,0.3V40.1l-2.1-0.7c0,0-0.3-0.1-0.3-0.1l-1.3-0.7l0,0l0,0l-1.3-0.8L88.6,37l-1.3-0.7l-1.3-0.8l-1.3-0.7l-1.3-0.7l-1.2-0.7  l-1.2-0.6l0,0l0,0l-1.2-0.7l-1.2-0.6l-1.2-0.6L76,30.3l-1.2-0.5l-1.2-0.5L72.5,29l-1.2-0.4l-1.1-0.3l-1.1-0.2L68,27.9L67,27.8l-1,0  l-1.1,0l-1,0.1l-1,0.2l-1,0.3l-1,0.4l-1,0.5l-1,0.6l-1,0.6l-1,0.8l-1,0.8l-1,0.9L53.6,34l-1,1.1l-1,1.2l-1.1,1.3L49.4,39l-1.1,1.4  l-1.1,1.4l-1,1.5l-1.1,1.5l-1,1.5L43,47.7l0,0l0,0l-1,1.3l-1,1.3l0,0.1l0,0.1l-1,1.1l0,0l0,0l-1,1l0,0l0,0l-1,0.9l-0.1,0.1l-0.1,0.1  l-1,0.7l-0.1,0.1l-0.2,0.1l-1,0.4l-0.2,0.1l-0.2,0l-1,0.2l-0.2,0l-0.2,0l-1,0l-0.3,0l-0.3-0.1l-1-0.3L30.6,55l-0.2-0.1l-0.6-0.4  l0.4,0.8l0.9,1.9L32,59l0.9,1.6l0.9,1.5l0.9,1.2l0.9,1l0.8,0.8l0.8,0.6l0.8,0.4l0.8,0.3l0.7,0.2l0.8,0l0.8,0l0.8-0.1l0.9-0.2  l0.9-0.3l0.9-0.4l1-0.5l1-0.5l1.1-0.6l1.1-0.6l1.1-0.6l1.1-0.6l1.1-0.6l1.1-0.6l1.1-0.6l0,0l0,0l1.1-0.5l0,0l0,0l1.1-0.5l1.1-0.5  l0.1,0l0.1,0l1.1-0.4L60.4,58L60.4,58z"/><path d="M44.6,92.8l1.1-0.6l1-0.6l1.1-0.6l1.1-0.6l0,0l0,0L50,90l1.1-0.5l0,0l0,0l1.1-0.5l0,0l0,0l1.1-0.5l0,0l0,0  l1.1-0.5l0,0l0,0l1.1-0.4l0,0l0,0l1.1-0.4l0,0l0,0l1.1-0.3l0.1,0l0.1,0l1.1-0.3l0.1,0l0.1,0l1.1-0.2l1.1-0.2l0.1,0l0.1,0l1.2,0  l1.3,0l1.2-0.2l0,0l0,0l1.2,0.1l0.2,0c0.1,0,0.1,0,0.2,0l0.9,0l1.2,0l0,0l0,0l1.2,0.2l0,0l0,0l1.2,0.2l1.2,0.2l0,0l0,0l1.2,0.2  l0.1,0l0.1,0l1.2,0.3l1.2,0.3l0,0l0,0l1.2,0.3l1.2,0.3l0,0l0,0l1.3,0.4l1.3,0.4l0,0l0,0l1.3,0.4l1.3,0.4l1.3,0.4l0,0l0,0l1.2,0.5  l1.3,0.4l0,0l0,0l1.3,0.5l1.3,0.4l1.3,0.5l0,0l0,0l0.2,0.1c0,0,1.7,0.5,2.4,0.8v-6.5c-0.7-0.2-1.7-0.3-2.3-0.7l-0.1-0.1l-1.3-0.5  l-1.3-0.5l0,0l0,0l-1.3-0.5l-1.3-0.5L86,83.6l0,0l0,0l-1.3-0.5l-1.3-0.5l-1.3-0.5l-1.3-0.4l-1.2-0.4l-1.2-0.4l-1.2-0.4l-1.2-0.4  l-1.2-0.4l-1.2-0.3l-1.2-0.3l-1.2-0.3L70,78.6l-1.1-0.2l-1.1-0.2l-1.1-0.1l0,0l0,0l-1.1-0.1l-1.1,0l-1.1,0l-1,0l-1,0.1l-1.1,0.2  l-1.1,0.2l-1,0.2L57,79.2l-1.1,0.3l-1,0.4l-1.1,0.4l-1.1,0.4l-1.1,0.5l-1.1,0.5l-1,0.5l-1.1,0.5l0,0l0,0l-1.1,0.5l0,0l0,0l-1.1,0.5  l-1.1,0.5l0,0l0,0l-1.1,0.4l0,0l0,0l-1,0.4l-0.1,0l-0.1,0l-1,0.3l0,0l0,0l-1,0.2l-0.1,0l-0.1,0l-1,0.2l-0.1,0l-0.1,0l-1,0l-0.1,0  l-0.1,0l-1-0.1l-0.1,0l-0.1,0l-1-0.2l-0.1,0l-0.1,0l-1-0.4l-0.1,0l-0.1,0l-1-0.5l-0.1-0.1l-0.1-0.1l-1-0.7l-0.1-0.1L32,83.7l-1-0.8  l-0.1,0l-0.1,0l-1-1l0,0l0,0l-1-1.1l0,0l0,0l-1-1.2l0,0l0,0l-1-1.3l-1-1.3L25,75.3l-0.9-1.2L23.2,73l-0.8-0.9l-0.7-0.6l-0.4-0.2  l-0.1,0L21,71.3l-0.5,0.4l-0.7,1.1L19,74.5l-0.9,2.3l-0.9,2.8l-0.9,3.2l-0.4,1.6l0.5-1l0.1-0.1l0.1-0.1l0.9-1.2l0.2-0.2l0.2-0.2  l0.9-0.7l0.3-0.2l0.3-0.1l0.9-0.3l0.5-0.1l0.5,0.1l0.9,0.2l0.3,0.1l0.2,0.1l0.9,0.5l0.2,0.1l0.2,0.1l0.9,0.9l0.1,0.1l0.1,0.1  l0.9,1.1l0,0.1l0,0.1l0.9,1.2l1,1.3l0,0l0,0l0.9,1.4l0.9,1.3l0.9,1.2l0.9,1.1l0.9,1l0.9,0.8l0.8,0.7l0.8,0.5l0.8,0.4l0.8,0.3  l0.8,0.2l0.7,0l0.8-0.1l0.9-0.1l0.9-0.3l0.9-0.3l0.9-0.4l1-0.5L44.6,92.8z"/>
</svg>