<svg xmlns="http://www.w3.org/2000/svg" xmlns:xlink="http://www.w3.org/1999/xlink" version="1.1" x="0px" y="0px" viewBox="0 0 100 125" enable-background="new 0 0 100 100" xml:space="preserve"><g><g><path d="M86.001,95.5c-0.435,0-0.865-0.188-1.162-0.55L50,52.369L15.161,94.95c-0.525,0.64-1.47,0.734-2.111,0.211    c-0.641-0.524-0.736-1.47-0.211-2.111l36-44c0.57-0.696,1.752-0.696,2.322,0l36,44c0.524,0.642,0.43,1.587-0.211,2.111    C86.671,95.389,86.335,95.5,86.001,95.5z"/></g><g><path d="M49.563,52.036c-0.236,0-0.473-0.056-0.688-0.167L3.312,28.333c-0.736-0.38-1.024-1.285-0.644-2.021    c0.379-0.736,1.283-1.026,2.021-0.644l44.873,23.18l44.749-23.179c0.731-0.382,1.641-0.094,2.021,0.642s0.094,1.641-0.643,2.022    L50.252,51.868C50.036,51.98,49.799,52.036,49.563,52.036z"/></g><g><path d="M49.5,52.5c-0.829,0-1.5-0.672-1.5-1.5V2c0-0.829,0.671-1.5,1.5-1.5S51,1.171,51,2v49C51,51.828,50.329,52.5,49.5,52.5z"/></g><g><path d="M19,89c-0.263,0-0.518-0.104-0.707-0.293c-0.234-0.233-0.337-0.566-0.276-0.892l9-48c0.026-0.137,0.08-0.268,0.159-0.382    l22-32C49.474,7,50.055,6.871,50.508,7.139l39,23c0.414,0.244,0.596,0.749,0.433,1.202l-17,47    c-0.12,0.333-0.407,0.577-0.755,0.643l-53,10C19.124,88.994,19.062,89,19,89z M28.944,40.392l-8.691,46.354l51.001-9.623    L87.777,31.44L50.295,9.335L28.944,40.392z"/></g><g><path d="M72,79c-0.104,0-0.207-0.016-0.308-0.049l-34-11c-0.358-0.115-0.621-0.422-0.68-0.793l-4-25    c-0.053-0.328,0.061-0.661,0.303-0.888l16-15c0.22-0.205,0.521-0.301,0.818-0.261c0.298,0.04,0.562,0.212,0.719,0.469l11,18    c0.039,0.064,0.071,0.133,0.095,0.205l10.94,32.821C72.973,77.651,73.02,77.82,73.02,78c0,0.553-0.447,1-1,1    C72.014,79,72.008,79,72,79z M38.891,66.237l31.535,10.202L60.087,45.424L49.788,28.57L35.071,42.366L38.891,66.237z"/></g></g></svg>