<?xml version="1.0" standalone="no"?>
<!DOCTYPE svg PUBLIC "-//W3C//DTD SVG 20010904//EN"
 "http://www.w3.org/TR/2001/REC-SVG-20010904/DTD/svg10.dtd">
<svg version="1.0" xmlns="http://www.w3.org/2000/svg"
 width="608.000000pt" height="608.000000pt" viewBox="0 0 608.000000 608.000000"
 preserveAspectRatio="xMidYMid meet">
<metadata>
Created by potrace 1.14, written by Peter Selinger 2001-2017
</metadata>
<g transform="translate(0.000000,608.000000) scale(0.100000,-0.100000)"
fill="#000000" stroke="none">
<path d="M5050 5973 c-54 -19 -75 -25 -75 -22 0 1 -10 -3 -23 -10 -13 -7 -31
-14 -40 -16 -9 -1 -66 -19 -127 -40 -60 -20 -114 -38 -120 -39 -30 -6 -512
-167 -523 -174 -10 -7 -9 -20 7 -63 19 -53 173 -528 233 -719 16 -52 33 -104
38 -115 4 -11 13 -34 19 -50 l12 -31 157 52 c86 28 285 93 442 144 157 50 292
94 300 97 21 8 43 14 58 15 10 1 11 12 6 42 -3 22 -10 47 -15 56 -9 17 -21 50
-24 66 -2 5 -38 118 -81 250 -43 131 -78 241 -79 244 -2 21 -109 330 -114 329
-3 0 -26 -8 -51 -16z"/>
<path d="M4000 4840 c-77 -26 -1169 -380 -1190 -385 -3 -1 -12 -4 -20 -8 -8
-3 -94 -31 -190 -62 -96 -31 -206 -67 -245 -80 -38 -13 -128 -42 -200 -65 -71
-22 -137 -44 -145 -47 -8 -3 -21 -8 -27 -10 -7 -1 -19 -5 -25 -6 -7 -2 -20 -7
-28 -10 -17 -6 -140 -46 -155 -50 -19 -5 -430 -138 -445 -144 -8 -3 -20 -7
-26 -8 -7 -2 -38 -12 -70 -23 -52 -18 -449 -147 -904 -294 -85 -27 -171 -55
-190 -61 -46 -16 -114 -84 -130 -132 -18 -54 -10 -100 49 -279 29 -88 54 -166
56 -175 2 -9 10 -34 18 -56 9 -22 59 -175 112 -340 53 -165 119 -367 147 -450
27 -82 51 -157 53 -165 2 -8 27 -85 55 -170 29 -85 53 -159 54 -165 4 -16 117
-368 127 -390 7 -18 122 -373 124 -385 1 -3 23 -70 49 -150 27 -80 49 -149 51
-155 1 -5 5 -17 8 -25 3 -8 29 -87 57 -175 57 -174 76 -214 120 -245 67 -48
133 -49 260 -5 58 20 114 38 124 40 10 3 35 10 55 17 20 7 38 13 41 13 5 1
500 162 670 218 52 17 97 32 100 33 3 0 12 3 20 7 26 10 231 74 240 75 3 0 37
12 75 27 39 14 71 25 73 24 2 0 15 4 30 9 32 12 533 175 547 178 6 1 75 24
155 50 80 26 147 48 150 49 3 0 79 25 170 55 91 30 170 55 175 56 6 1 64 20
130 42 155 51 786 256 890 289 44 14 89 29 100 33 11 5 45 16 75 25 30 9 62
19 70 22 18 7 30 11 50 16 8 2 22 7 30 10 8 4 87 30 175 58 336 108 451 147
482 163 62 32 109 119 101 189 -4 36 -103 350 -255 807 -24 74 -46 140 -47
145 -1 6 -33 105 -71 220 -38 116 -69 215 -71 220 -1 6 -22 71 -47 145 -25 74
-74 225 -110 335 -35 110 -104 322 -152 470 -126 391 -126 389 -135 399 -5 5
-49 -5 -104 -23 -52 -18 -103 -34 -113 -36 -41 -8 -75 -26 -71 -38 9 -23 132
-402 134 -412 1 -5 18 -57 37 -115 19 -58 58 -177 86 -265 29 -88 55 -167 58
-175 3 -8 8 -24 10 -35 1 -11 7 -29 12 -40 6 -11 42 -121 81 -245 39 -124 75
-232 79 -240 5 -9 12 -31 16 -50 4 -19 12 -41 19 -49 6 -8 10 -16 9 -17 -4 -6
7 -42 171 -545 69 -212 126 -390 126 -395 0 -5 -55 -27 -122 -49 -68 -21 -129
-43 -135 -48 -7 -5 -13 -7 -13 -4 0 4 -19 -1 -42 -9 -24 -9 -47 -17 -53 -18
-19 -4 -490 -158 -520 -169 -16 -7 -32 -12 -35 -12 -3 -1 -66 -21 -140 -45
-74 -24 -139 -45 -145 -46 -5 -1 -77 -25 -160 -52 -82 -28 -278 -92 -435 -142
-157 -51 -346 -112 -420 -137 -74 -24 -142 -46 -150 -48 -8 -2 -55 -18 -105
-35 -49 -17 -98 -33 -108 -35 -23 -5 -146 -45 -172 -55 -11 -5 -141 -48 -290
-95 -148 -48 -371 -120 -495 -160 -124 -41 -256 -83 -295 -95 -38 -12 -86 -27
-105 -35 -52 -20 -506 -165 -516 -165 -10 0 -100 276 -93 283 2 2 -1 10 -7 18
-10 12 -35 78 -40 104 -2 10 -28 91 -156 480 -39 121 -73 225 -74 230 -2 14
-65 205 -75 230 -7 18 -207 637 -214 665 -1 3 -4 12 -8 20 -3 8 -28 85 -56
170 -146 454 -194 599 -207 633 -20 53 -18 62 18 74 52 18 692 226 706 230 26
7 37 10 52 16 8 3 143 47 300 98 157 50 325 105 374 121 49 17 94 31 100 32 6
1 101 32 211 68 110 36 342 112 515 168 173 56 347 113 385 125 54 18 725 235
770 249 6 2 15 5 20 7 6 2 80 26 165 54 164 55 162 53 146 110 -20 75 -76 230
-83 231 -4 1 -19 -1 -33 -6z"/>
<path d="M4365 4437 c-9 -5 -22 -10 -28 -11 -26 -4 -403 -128 -409 -135 -4 -4
13 -70 38 -146 25 -77 47 -144 49 -150 1 -5 5 -17 8 -25 3 -8 15 -46 28 -85
24 -75 33 -88 58 -74 9 4 108 38 219 74 112 36 211 69 221 74 15 8 9 34 -62
249 -51 155 -83 239 -92 239 -7 0 -21 -5 -30 -10z"/>
<path d="M2255 3753 c-143 -46 -269 -88 -280 -93 -20 -9 -181 -60 -200 -64 -9
-2 -572 -185 -745 -243 -41 -14 -82 -26 -91 -28 -8 -2 -32 -10 -52 -19 -21 -8
-38 -15 -40 -14 -5 1 -243 -75 -258 -83 -15 -8 -15 -13 -2 -51 8 -24 43 -130
78 -236 35 -107 66 -196 69 -199 3 -3 105 28 228 68 123 40 225 73 228 74 5 1
373 120 715 232 110 36 207 67 215 68 8 2 16 4 18 5 1 2 5 3 10 5 4 1 14 4 22
8 21 8 423 138 435 141 6 1 15 4 20 7 6 4 23 9 38 13 22 5 27 11 22 24 -4 9
-41 119 -82 245 -41 125 -77 227 -81 226 -4 0 -124 -39 -267 -86z"/>
<path d="M3995 3560 c-11 -5 -114 -39 -230 -76 -115 -36 -212 -68 -214 -70 -4
-4 18 -93 28 -109 3 -5 6 -14 7 -20 1 -5 25 -82 54 -170 28 -88 53 -166 55
-172 6 -19 18 -17 165 32 74 25 144 48 155 50 44 10 175 59 175 66 0 3 -6 22
-14 40 -8 19 -14 36 -14 39 -1 3 -3 12 -6 20 -2 8 -10 33 -16 55 -6 22 -15 49
-20 60 -5 11 -26 75 -47 142 -21 68 -42 123 -48 122 -5 0 -19 -4 -30 -9z"/>
<path d="M2620 3113 c-58 -19 -109 -36 -115 -37 -5 -2 -17 -6 -25 -9 -8 -3
-40 -13 -70 -22 -30 -9 -64 -20 -75 -25 -21 -9 -63 -22 -81 -26 -6 -1 -37 -11
-70 -22 -56 -20 -612 -200 -919 -299 -77 -24 -158 -51 -180 -60 -22 -8 -47
-16 -55 -18 -8 -2 -63 -19 -123 -37 l-107 -33 6 -30 c3 -16 34 -118 69 -225
35 -107 66 -205 70 -217 3 -12 11 -20 18 -18 7 2 158 51 337 109 179 58 390
126 470 151 80 26 152 49 160 52 8 4 17 7 20 7 3 1 41 13 85 28 44 14 208 68
365 118 157 51 310 101 340 112 30 11 65 22 76 24 12 2 38 11 59 19 28 12 35
20 30 33 -9 20 -36 103 -39 117 -1 6 -4 15 -7 20 -3 6 -27 81 -55 167 -35 113
-53 157 -64 157 -8 -1 -62 -16 -120 -36z"/>
<path d="M3520 2650 c-63 -22 -116 -40 -117 -41 -2 -1 -6 -2 -10 -3 -5 -1 -56
-17 -114 -36 l-106 -33 8 -36 c4 -20 15 -53 24 -74 8 -20 12 -37 9 -37 -4 0
-2 -6 3 -12 5 -7 31 -84 58 -170 l50 -158 29 6 c16 4 127 38 247 78 l218 71
-23 68 c-13 37 -24 71 -25 75 -4 20 -83 260 -91 277 -5 11 -10 29 -12 40 -2
11 -10 21 -18 22 -8 1 -67 -16 -130 -37z"/>
<path d="M5235 2450 c-44 -16 -208 -70 -365 -120 -157 -50 -316 -102 -355
-115 -38 -13 -218 -72 -400 -130 -588 -190 -725 -237 -721 -243 7 -14 149
-457 147 -461 -9 -15 30 -15 77 1 31 11 66 21 77 23 11 3 29 9 40 14 16 8 517
172 535 176 7 1 113 35 315 102 93 30 174 56 180 58 5 1 17 5 25 8 8 3 40 13
70 22 30 10 62 20 70 23 8 3 17 6 20 7 19 4 491 158 515 168 37 13 46 25 35
46 -9 17 -90 263 -94 284 -2 11 -15 50 -48 140 -13 33 -22 33 -123 -3z"/>
<path d="M2880 2441 c-164 -55 -404 -133 -419 -136 -9 -2 -33 -11 -53 -19 -21
-9 -40 -16 -43 -15 -3 0 -106 -32 -228 -72 -122 -40 -228 -74 -235 -75 -8 -1
-21 -6 -30 -10 -9 -4 -21 -8 -27 -9 -5 -2 -95 -31 -200 -65 -104 -34 -242 -79
-305 -100 -280 -91 -315 -103 -318 -105 -2 -2 25 -90 59 -197 35 -106 64 -195
64 -198 6 -30 30 -90 36 -90 5 0 48 13 96 29 232 76 439 143 448 146 6 1 17 5
25 8 8 3 155 51 325 106 171 55 375 121 455 147 80 27 147 48 150 49 39 7 450
148 450 155 0 5 -4 19 -10 32 -5 13 -37 111 -71 218 -34 107 -66 200 -70 206
-5 6 -6 14 -2 17 12 12 -11 7 -97 -22z"/>
<path d="M3037 1735 c-70 -23 -129 -43 -130 -43 -1 -1 -9 -3 -17 -6 -8 -3 -78
-25 -155 -50 -77 -25 -210 -68 -295 -96 -85 -29 -159 -53 -165 -54 -14 -3
-403 -129 -550 -178 -66 -22 -127 -42 -135 -44 -8 -1 -89 -28 -180 -58 -172
-57 -173 -57 -153 -106 3 -8 7 -22 9 -30 12 -54 134 -405 141 -404 9 2 416
133 623 201 74 24 142 46 150 48 8 2 89 28 180 58 166 55 654 213 873 283 64
21 117 42 117 48 0 13 -60 207 -70 227 -5 9 -14 36 -21 60 -15 54 -14 51 -22
69 -3 8 -13 39 -22 68 -12 36 -22 52 -33 51 -9 0 -75 -20 -145 -44z"/>
</g>
</svg>
