<svg xmlns="http://www.w3.org/2000/svg" xmlns:xlink="http://www.w3.org/1999/xlink" version="1.1" x="0px" y="0px" viewBox="0 0 100 125" style="enable-background:new 0 0 100 100;" xml:space="preserve"><style type="text/css">
	.st0{fill:none;stroke:#000000;stroke-width:2;stroke-miterlimit:10;}
	.st1{fill:none;stroke:#000000;stroke-miterlimit:10;}
	.st2{fill:#FFFFFF;}
</style><g><path d="M38.8,25c1.5-0.6,2.3-2.2,1.7-3.8c-0.6-1.5-2.2-2.3-3.8-1.7c-1.5,0.6-2.3,2.2-1.7,3.8C35.6,24.8,37.2,25.6,38.8,25z"/><path d="M79.5,56c-1.5,0.6-2.3,2.2-1.7,3.8c0.6,1.5,2.2,2.3,3.8,1.7c1.5-0.6,2.3-2.2,1.7-3.8C82.7,56.2,81,55.4,79.5,56z"/><path d="M28.7,74.7c-1.5,0.6-2.3,2.2-1.7,3.8c0.6,1.5,2.2,2.3,3.8,1.7c1.5-0.6,2.3-2.2,1.7-3.8C31.9,74.9,30.2,74.1,28.7,74.7z"/><path d="M13.8,45c-1.5,0.6-2.3,2.2-1.7,3.8c0.6,1.5,2.2,2.3,3.8,1.7c1.5-0.6,2.3-2.2,1.7-3.8C17,45.2,15.3,44.5,13.8,45z"/><path d="M79,46.7c2-0.8,3-3,2.3-5c-0.8-2-3-3-5-2.3c-2,0.8-3,3-2.3,5S77,47.5,79,46.7z"/><path d="M88.3,82.4c-0.6-1.5-2.2-2.3-3.8-1.7c-0.2,0.1-0.3,0.1-0.4,0.2L57,58.5c0.5-0.8,0.9-1.6,1.1-2.5l9.1,1.5   c0,0.3,0.1,0.7,0.2,1c0.8,2,3,3,5,2.3s3-3,2.3-5c-0.8-2-3-3-5-2.3c-1,0.4-1.8,1.1-2.2,2L58.4,54c0.1-1.2-0.1-2.4-0.6-3.6   c-0.4-1.2-1.1-2.2-2-3.1l5.5-6.7c0.6,0.3,1.2,0.6,1.9,0.7c3.1,0.5,6.1-1.6,6.6-4.7c0.5-3.1-1.6-6.1-4.7-6.6   c-3.1-0.5-6.1,1.6-6.6,4.7c-0.3,1.7,0.2,3.4,1.3,4.7L54.4,46c-0.8-0.5-1.6-0.9-2.5-1.1l5-29.6c0.2,0,0.3-0.1,0.5-0.1   c1.5-0.6,2.3-2.2,1.7-3.8c-0.6-1.5-2.2-2.3-3.8-1.7c-1.5,0.6-2.3,2.2-1.7,3.8c0.2,0.7,0.7,1.2,1.3,1.5l-5,29.6   c-0.9,0-1.8,0-2.7,0.3l-1.5-4.1c1.4-1,2-2.8,1.4-4.5c-0.8-2-3-3-5-2.3c-2,0.8-3,3-2.3,5c0.6,1.7,2.3,2.7,4,2.5l1.5,4.1   c-0.8,0.4-1.5,0.9-2.2,1.6L17.4,25.8c0.4-0.9,0.5-2,0.1-3c-0.8-2-3-3-5-2.3s-3,3-2.3,5c0.8,2,3,3,5,2.3c0.3-0.1,0.6-0.3,0.9-0.5   l25.8,21.3c-0.5,0.8-0.9,1.6-1.1,2.5l-7.3-1.2c0-2.7-2-5.1-4.8-5.6c-3.1-0.5-6.1,1.6-6.6,4.7c-0.5,3.1,1.6,6.1,4.7,6.6   c2.8,0.5,5.4-1.2,6.3-3.7l7.3,1.2c-0.1,1.2,0.1,2.4,0.6,3.6c0.5,1.2,1.1,2.2,2,3.1l-6.1,7.4c-0.9-0.4-2-0.5-3-0.1c-2,0.8-3,3-2.3,5   c0.8,2,3,3,5,2.3s3-3,2.3-5c-0.1-0.3-0.3-0.6-0.5-0.9l6.1-7.5c0.7,0.5,1.6,0.9,2.4,1.1L43.1,85c-0.3,0-0.7,0.1-1,0.2   c-2,0.8-3,3-2.3,5c0.8,2,3,3,5,2.3c2-0.8,3-3,2.3-5c-0.4-1-1.1-1.7-2-2.2l3.8-22.8c0.9,0.1,1.8,0,2.7-0.3l4.5,12.1   c-1.4,0.8-2.4,2.2-2.7,3.9c-0.5,3.1,1.6,6.1,4.7,6.6c3.1,0.5,6.1-1.6,6.6-4.7c0.5-3.1-1.6-6.1-4.7-6.6c-0.7-0.1-1.4-0.1-2.1,0   l-4.5-12.1c0.8-0.4,1.6-0.9,2.2-1.6l27.1,22.4c-0.2,0.6-0.2,1.3,0,2c0.6,1.5,2.2,2.3,3.8,1.7C88.1,85.5,88.9,83.9,88.3,82.4z"/></g></svg>