<svg version="1.1" viewBox="0 0 24 30" xmlns="http://www.w3.org/2000/svg">
<title>_</title>
<path d="m6 3.5c-1.3748 0-2.5 1.1252-2.5 2.5v12c0 1.3748 1.1252 2.5 2.5 2.5h12c1.3748 0 2.5-1.1252 2.5-2.5v-12c0-1.3748-1.1252-2.5-2.5-2.5zm0 1h12c0.83435 0 1.5 0.66565 1.5 1.5v12c0 0.83435-0.66565 1.5-1.5 1.5h-12c-0.83435 0-1.5-0.66565-1.5-1.5v-12c0-0.83435 0.66565-1.5 1.5-1.5z"/>
<g>
<path d="m7.6218 8.309a0.90075 0.90075 0 0 1-0.90075 0.90075 0.90075 0.90075 0 0 1-0.90075-0.90075 0.90075 0.90075 0 0 1 0.90075-0.90075 0.90075 0.90075 0 0 1 0.90075 0.90075z" stroke-width=".1985"/>
<path d="m11.802 17.421a1.4023 1.4023 0 0 1-1.4023 1.4023 1.4023 1.4023 0 0 1-1.4023-1.4023 1.4023 1.4023 0 0 1 1.4023-1.4023 1.4023 1.4023 0 0 1 1.4023 1.4023z" stroke-width=".19533"/>
<path d="m7.0039 15.202a0.45395 0.45395 0 0 1-0.45395 0.45395 0.45395 0.45395 0 0 1-0.45395-0.45395 0.45395 0.45395 0 0 1 0.45395-0.45395 0.45395 0.45395 0 0 1 0.45395 0.45395z" stroke-width=".1921"/>
<path d="m14.994 17.713a0.79388 0.79388 0 0 1-0.79388 0.79388 0.79388 0.79388 0 0 1-0.79388-0.79388 0.79388 0.79388 0 0 1 0.79388-0.79388 0.79388 0.79388 0 0 1 0.79388 0.79388z" stroke-width=".21224"/>
<path d="m8.1491 11.93a1.5001 1.5001 0 0 1-1.5001 1.5001 1.5001 1.5001 0 0 1-1.5001-1.5001 1.5001 1.5001 0 0 1 1.5001-1.5001 1.5001 1.5001 0 0 1 1.5001 1.5001z" stroke-width=".19983"/>
<path d="m11.002 11.742a0.50186 0.50186 0 0 1-0.50186 0.50186 0.50186 0.50186 0 0 1-0.50186-0.50186 0.50186 0.50186 0 0 1 0.50186-0.50186 0.50186 0.50186 0 0 1 0.50186 0.50186z" stroke-width=".19628"/>
<path d="m7.5007 17.95a0.95068 0.95068 0 0 1-0.95068 0.95068 0.95068 0.95068 0 0 1-0.95068-0.95068 0.95068 0.95068 0 0 1 0.95068-0.95068 0.95068 0.95068 0 0 1 0.95068 0.95068z" stroke-width=".19864"/>
<path d="m15.094 15.149a0.89439 0.89439 0 0 1-0.89439 0.89439 0.89439 0.89439 0 0 1-0.8944-0.89439 0.89439 0.89439 0 0 1 0.8944-0.8944 0.89439 0.89439 0 0 1 0.89439 0.8944z" stroke-width=".21121"/>
<path d="m11.399 14.114a0.89851 0.89851 0 0 1-0.89851 0.89851 0.89851 0.89851 0 0 1-0.89851-0.89851 0.89851 0.89851 0 0 1 0.89851-0.89851 0.89851 0.89851 0 0 1 0.89851 0.89851z" stroke-width=".20299"/>
<path d="m14.695 12.743a0.49522 0.49522 0 0 1-0.49522 0.49522 0.49522 0.49522 0 0 1-0.49522-0.49522 0.49522 0.49522 0 0 1 0.49522-0.49522 0.49522 0.49522 0 0 1 0.49522 0.49522z" stroke-width=".20957"/>
<path d="m19.002 17.234a1.4023 1.4023 0 0 1-1.4023 1.4023 1.4023 1.4023 0 0 1-1.4023-1.4023 1.4023 1.4023 0 0 1 1.4023-1.4023 1.4023 1.4023 0 0 1 1.4023 1.4023z" stroke-width=".19533"/>
<path d="m19.097 13.255a1.547 1.547 0 0 1-1.547 1.547 1.547 1.547 0 0 1-1.547-1.547 1.547 1.547 0 0 1 1.547-1.547 1.547 1.547 0 0 1 1.547 1.547z" stroke-width=".20607"/>
<path d="m17.913 10.51a0.41268 0.41268 0 0 1-0.41268 0.41268 0.41268 0.41268 0 0 1-0.41268-0.41268 0.41268 0.41268 0 0 1 0.41268-0.41268 0.41268 0.41268 0 0 1 0.41268 0.41268z" stroke-width=".17464"/>
<path d="m17.995 8.2978a0.49522 0.49522 0 0 1-0.49522 0.49522 0.49522 0.49522 0 0 1-0.49522-0.49522 0.49522 0.49522 0 0 1 0.49522-0.49522 0.49522 0.49522 0 0 1 0.49522 0.49522z" stroke-width=".20957"/>
</g>
<text y="39" fill="#000000" font-family="'Helvetica Neue', Helvetica, Arial-Unicode, Arial, Sans-serif" font-size="5px" font-weight="bold">Created by Piere Marcolet</text>
<text y="44" fill="#000000" font-family="'Helvetica Neue', Helvetica, Arial-Unicode, Arial, Sans-serif" font-size="5px" font-weight="bold">for Lodex Bubble Plot</text>
</svg>
