<svg xmlns="http://www.w3.org/2000/svg" viewBox="0 0 24 30" x="0px" y="0px"><title>_</title><g><path d="M4,6V18a2,2,0,0,0,2,2H18a2,2,0,0,0,2-2V6a2,2,0,0,0-2-2H6A2,2,0,0,0,4,6ZM9,19H6a1,1,0,0,1-1-1V17H9Zm0-3H5V14H9Zm0-3H5V11H9Zm5,3H10V14h4Zm0-6H10V8h4Zm4,9H15V17h4v1A1,1,0,0,1,18,19Zm1-3H15V14h4Zm0-3H15V11h4Zm0-6H15V5h3a1,1,0,0,1,1,1Z"/></g><text x="0" y="39" fill="#000000" font-size="5px" font-weight="bold" font-family="'Helvetica Neue', Helvetica, Arial-Unicode, Arial, Sans-serif">Created by Sophia Bai</text><text x="0" y="44" fill="#000000" font-size="5px" font-weight="bold" font-family="'Helvetica Neue', Helvetica, Arial-Unicode, Arial, Sans-serif">from the Noun Project</text></svg>