<svg xmlns="http://www.w3.org/2000/svg" xmlns:xlink="http://www.w3.org/1999/xlink" version="1.1" x="0px" y="0px" viewBox="0 0 100 125" enable-background="new 0 0 100 100" xml:space="preserve"><g><g><line x1="85.783" y1="74.75" x2="14.217" y2="74.75"/><path d="M85.783,76.75H14.217c-1.104,0-2-0.896-2-2s0.896-2,2-2h71.566c1.104,0,2,0.896,2,2S86.888,76.75,85.783,76.75z"/></g><g><rect x="53.467" y="53.75" width="11.75" height="20.25"/><path d="M65.217,76h-11.75c-1.104,0-2-0.896-2-2V53.75c0-1.104,0.896-2,2-2h11.75c1.104,0,2,0.896,2,2V74    C67.217,75.104,66.321,76,65.217,76z M55.467,72h7.75V55.75h-7.75V72z"/></g><g><rect x="35.467" y="39.5" width="11.75" height="35"/><path d="M47.217,76.5h-11.75c-1.104,0-2-0.896-2-2v-35c0-1.104,0.896-2,2-2h11.75c1.104,0,2,0.896,2,2v35    C49.217,75.604,48.321,76.5,47.217,76.5z M37.467,72.5h7.75v-31h-7.75V72.5z"/></g><g><rect x="16.967" y="25.25" width="11.75" height="49.25"/><path d="M28.717,76.5h-11.75c-1.104,0-2-0.896-2-2V25.25c0-1.104,0.896-2,2-2h11.75c1.104,0,2,0.896,2,2V74.5    C30.717,75.604,29.821,76.5,28.717,76.5z M18.967,72.5h7.75V27.25h-7.75V72.5z"/></g><g><rect x="71.033" y="25.25" width="11.75" height="49.25"/><path d="M82.783,76.5h-11.75c-1.104,0-2-0.896-2-2V25.25c0-1.104,0.896-2,2-2h11.75c1.104,0,2,0.896,2,2V74.5    C84.783,75.604,83.888,76.5,82.783,76.5z M73.033,72.5h7.75V27.25h-7.75V72.5z"/></g></g></svg>