<?xml version="1.0" standalone="no"?>
<!DOCTYPE svg PUBLIC "-//W3C//DTD SVG 20010904//EN"
 "http://www.w3.org/TR/2001/REC-SVG-20010904/DTD/svg10.dtd">
<svg version="1.0" xmlns="http://www.w3.org/2000/svg"
 width="700.000000pt" height="700.000000pt" viewBox="0 0 700.000000 700.000000"
 preserveAspectRatio="xMidYMid meet">
<metadata>
Created by potrace 1.11, written by Peter Selinger 2001-2013
</metadata>
<g transform="translate(0.000000,700.000000) scale(0.100000,-0.100000)"
fill="#000000" stroke="none">
<path d="M2623 6527 c-4 -6 -1 -7 7 -2 7 5 11 4 8 -1 -4 -5 -31 -9 -62 -8 -39
0 -57 -4 -61 -14 -3 -9 -13 -12 -25 -9 -11 3 -20 2 -20 -3 0 -4 -14 -6 -30 -5
-17 1 -33 -2 -37 -8 -3 -5 -1 -7 5 -3 6 3 13 3 16 -2 2 -4 -10 -9 -27 -10 -17
-2 -38 -9 -47 -17 -9 -8 -26 -15 -38 -15 -12 0 -22 -5 -22 -11 0 -6 -7 -9 -15
-5 -8 3 -15 1 -15 -4 0 -6 -7 -10 -16 -10 -8 0 -12 -5 -9 -11 4 -6 1 -10 -6
-8 -33 4 -48 -1 -43 -16 4 -10 0 -15 -11 -15 -10 0 -26 -10 -36 -22 -13 -14
-19 -17 -20 -7 0 8 -5 3 -10 -10 -6 -14 -15 -21 -24 -18 -9 4 -12 1 -8 -9 3
-8 -1 -14 -10 -14 -8 0 -18 -7 -21 -16 -3 -8 -10 -12 -16 -9 -5 3 -10 -3 -10
-14 0 -12 -7 -21 -16 -21 -8 0 -12 -4 -9 -10 3 -5 -1 -10 -10 -10 -11 0 -15
-5 -11 -15 3 -8 1 -15 -5 -15 -6 0 -7 -4 -4 -10 3 -5 -1 -10 -9 -10 -9 0 -16
-5 -16 -11 0 -7 -8 -18 -17 -26 -10 -8 -12 -11 -4 -7 10 5 12 3 5 -7 -5 -8 -9
-18 -9 -24 -1 -5 -6 -9 -11 -8 -6 1 -12 -12 -13 -30 -4 -55 -4 -57 -14 -57 -5
0 -6 7 -3 16 3 8 2 12 -4 9 -6 -3 -10 -24 -10 -45 0 -42 -8 -72 -19 -66 -9 6
-7 -227 2 -241 5 -8 3 -13 -4 -13 -7 0 -5 -8 6 -20 18 -20 18 -21 -1 -14 -18
7 -18 7 -2 -13 10 -11 18 -24 18 -29 0 -5 -5 -2 -10 6 -5 8 -10 10 -10 4 0 -6
3 -14 7 -18 4 -3 8 -16 10 -27 2 -12 10 -30 18 -42 8 -12 15 -34 15 -50 0 -20
4 -26 13 -21 7 5 6 0 -3 -11 -9 -11 -10 -16 -2 -11 10 6 14 1 11 -20 0 -3 6
-11 14 -17 9 -7 17 -21 19 -32 2 -11 10 -19 16 -18 7 2 12 -8 12 -22 0 -16 6
-25 16 -25 8 0 13 -3 11 -7 -2 -5 8 -19 21 -33 19 -19 23 -20 19 -7 -4 11 -3
16 3 12 6 -3 10 -14 10 -25 0 -11 10 -20 25 -24 14 -4 23 -11 20 -16 -3 -5 5
-10 17 -12 13 -2 22 -9 21 -16 -2 -6 0 -11 5 -11 20 3 32 -2 26 -13 -4 -6 -3
-9 2 -6 16 10 56 -11 48 -24 -5 -8 0 -7 11 2 11 9 16 10 11 3 -5 -9 2 -13 26
-14 18 0 27 -3 21 -6 -14 -5 -18 -24 -5 -22 34 6 72 -3 72 -16 0 -8 5 -15 11
-15 5 0 7 6 3 13 -6 9 -4 9 7 1 8 -6 22 -10 32 -8 13 1 17 -2 13 -12 -7 -17 5
-18 23 -1 11 9 13 9 7 0 -5 -10 3 -13 29 -13 27 0 36 -4 32 -13 -4 -10 8 -14
46 -16 28 -1 57 -7 64 -13 9 -7 13 -7 13 1 0 7 5 9 10 6 6 -4 8 -10 6 -14 -3
-4 15 -6 39 -6 38 1 43 -1 32 -13 -10 -13 -8 -14 11 -8 12 4 22 4 22 -1 0 -5
21 -10 47 -11 27 -1 49 -6 51 -12 2 -5 16 -10 32 -10 16 0 30 -5 32 -10 2 -6
13 -12 26 -13 13 -1 21 -6 18 -13 -3 -8 2 -11 15 -9 11 2 19 -2 19 -10 0 -9 6
-12 17 -8 11 4 14 3 9 -5 -4 -7 -1 -12 9 -12 9 0 13 -4 10 -10 -3 -5 1 -10 10
-10 11 0 15 -5 11 -16 -3 -8 -2 -12 4 -9 6 4 10 -5 10 -20 0 -18 4 -25 13 -22
17 6 23 -118 5 -129 -8 -5 -9 -2 -5 10 4 9 3 15 -2 11 -6 -3 -10 -13 -10 -23
1 -37 -8 -57 -29 -67 -12 -5 -22 -16 -22 -24 0 -19 -30 -40 -57 -41 -13 0 -23
-6 -23 -13 0 -10 -14 -13 -45 -13 -40 1 -43 -1 -28 -13 17 -12 16 -13 -4 -8
-13 3 -26 1 -29 -4 -3 -6 -12 -5 -22 3 -13 10 -14 10 -8 0 6 -9 1 -11 -18 -8
-14 2 -27 -1 -30 -7 -3 -9 -5 -9 -5 0 -1 7 -8 10 -16 7 -8 -4 -12 -11 -9 -18
3 -6 0 -4 -8 5 -7 9 -24 15 -38 13 -14 -1 -29 -3 -33 -3 -5 -1 -5 -7 -2 -13 4
-7 -1 -4 -9 6 -12 15 -16 16 -16 5 0 -12 -2 -12 -10 1 -9 13 -10 13 -10 0 0
-10 -3 -11 -8 -4 -4 7 -27 11 -54 9 -27 -1 -48 2 -48 7 0 5 5 6 10 3 6 -3 10
-2 10 4 0 5 -9 9 -19 8 -11 0 -18 -4 -16 -7 2 -4 -2 -7 -10 -7 -8 0 -13 5 -12
10 1 6 -12 11 -29 12 -17 0 -38 6 -46 12 -8 7 -30 13 -49 15 -19 1 -40 8 -48
16 -7 7 -20 11 -27 8 -20 -8 -44 4 -44 20 0 8 -3 13 -7 13 -5 -1 -17 -1 -28 0
-17 1 -18 3 -5 11 8 5 10 10 5 10 -6 0 -17 -6 -24 -12 -11 -10 -13 -10 -7 0 5
8 0 12 -13 12 -12 0 -21 7 -21 15 0 8 -3 14 -7 14 -23 -4 -43 2 -38 11 6 9 -8
14 -28 11 -4 -1 -10 6 -13 14 -4 8 -12 15 -20 15 -8 0 -14 7 -14 15 0 8 -3 14
-7 14 -25 -4 -41 3 -46 21 -6 25 -43 39 -77 30 l-25 -6 0 -290 0 -289 25 -4
c14 -1 28 -8 32 -14 3 -5 17 -11 30 -12 12 -1 23 -8 23 -15 0 -8 14 -15 34
-16 19 -2 37 -8 41 -14 6 -9 9 -9 13 1 4 10 6 10 6 2 1 -8 14 -13 31 -13 21 0
30 -5 30 -16 0 -8 5 -12 10 -9 6 4 7 11 4 17 -4 7 -2 8 5 4 6 -4 9 -12 6 -17
-4 -5 9 -9 29 -9 19 0 36 -5 38 -12 5 -15 38 -19 38 -5 0 8 3 9 8 1 4 -5 18
-10 32 -10 14 0 24 -5 23 -10 -1 -5 33 -11 75 -13 118 -4 126 -5 134 -16 8
-11 179 -14 172 -3 -2 4 -13 5 -24 3 -11 -2 -22 0 -24 3 -3 4 13 8 35 7 22 0
38 -4 35 -10 -2 -6 24 -11 65 -11 38 -1 69 2 69 6 0 4 -13 6 -29 5 -16 -1 -35
1 -41 5 -7 4 6 7 28 6 22 -1 46 -7 53 -13 16 -12 51 -14 43 -2 -2 5 -12 5 -21
2 -10 -4 -14 -2 -9 5 8 13 46 12 46 -3 0 -5 4 -5 8 2 4 7 33 13 65 14 31 1 54
5 52 9 -2 4 2 7 10 7 8 0 12 -4 9 -9 -3 -4 0 -8 5 -8 6 0 11 6 11 14 0 9 7 12
20 9 12 -3 20 0 20 7 0 10 3 10 14 1 11 -9 17 -9 28 1 15 14 22 16 66 20 20 1
28 6 25 15 -4 9 5 13 26 13 17 0 31 5 31 10 0 6 9 10 20 10 11 0 23 7 26 15 4
8 14 15 24 15 11 0 22 5 26 12 5 7 3 8 -6 3 -9 -5 -11 -4 -6 3 4 7 18 12 32
12 15 0 24 6 24 16 0 8 5 12 10 9 6 -3 10 -1 10 5 0 6 5 8 12 4 8 -5 9 -2 5 9
-3 9 -3 16 1 16 22 -4 42 2 37 11 -3 6 1 10 9 10 10 0 16 9 16 23 0 16 3 18 9
9 6 -10 10 -6 15 14 6 22 9 25 17 13 7 -11 9 -9 9 9 0 12 3 21 8 21 17 -3 26
2 16 9 -7 5 -5 14 9 27 11 11 16 13 12 5 -6 -11 -5 -12 3 -5 7 6 13 23 14 37
1 15 7 26 12 25 6 -1 10 4 11 11 0 7 5 16 12 20 7 4 13 24 15 44 1 20 6 34 10
32 5 -3 5 -11 2 -17 -4 -7 -3 -8 2 -4 10 10 11 14 13 58 1 21 5 28 14 23 9 -6
9 -5 0 7 -10 12 -10 19 0 35 7 10 13 47 13 81 -1 48 2 63 13 63 11 0 9 4 -5
16 -19 15 -19 16 0 9 19 -6 19 -5 1 15 -18 19 -18 20 1 20 14 0 16 2 6 9 -9 5
-14 33 -15 80 -1 39 -5 71 -9 71 -4 0 -5 7 -2 15 4 8 2 21 -3 28 -8 11 -11 23
-15 74 -1 7 -5 10 -10 7 -5 -3 -6 -10 -3 -15 4 -5 1 -9 -5 -9 -6 0 -10 6 -9
13 1 6 1 26 0 42 -1 22 -4 26 -10 16 -7 -11 -10 -7 -13 15 -2 17 -8 28 -16 26
-6 -1 -11 1 -11 5 1 5 1 19 -1 33 -1 23 -2 23 -9 5 -8 -19 -8 -19 -15 2 -9 29
-57 83 -73 83 -7 0 -13 6 -13 14 0 16 -27 29 -41 20 -5 -3 -9 2 -9 10 0 9 -7
16 -15 16 -8 0 -15 7 -15 15 0 8 -6 12 -14 9 -7 -3 -16 2 -19 10 -4 10 -19 16
-41 16 -27 0 -34 3 -30 15 5 11 -1 15 -25 15 -19 0 -31 5 -31 13 0 8 -10 13
-22 12 -13 -1 -28 5 -34 13 -6 8 -26 16 -44 17 -18 2 -36 9 -41 16 -8 13 -13
5 -10 -14 1 -5 -3 -6 -9 -2 -6 3 -8 10 -6 14 3 4 -11 8 -31 9 -20 1 -40 7 -44
14 -4 6 -31 12 -60 13 -35 1 -54 6 -58 16 -4 9 -23 15 -51 16 -25 1 -46 7 -48
13 -2 5 -8 10 -13 10 -6 0 -7 -6 -3 -12 6 -10 4 -10 -7 0 -7 6 -27 12 -43 12
-24 0 -27 3 -16 10 9 6 10 10 3 10 -6 0 -15 -5 -19 -12 -5 -8 -10 -7 -18 3 -6
8 -18 14 -26 14 -8 0 -18 6 -22 15 -5 12 -7 12 -7 -3 -1 -10 -5 -16 -11 -12
-5 3 -7 12 -3 21 3 8 2 14 -3 13 -5 -1 -20 -1 -34 0 -20 1 -22 3 -10 11 12 8
10 10 -8 10 -27 0 -61 36 -62 65 0 17 -2 17 -10 5 -11 -17 -12 -16 -14 21 0
14 -8 34 -16 44 -9 11 -10 16 -2 11 13 -8 17 6 5 18 -13 13 -10 44 4 39 10 -4
13 1 9 21 -5 27 18 61 34 51 5 -3 7 4 5 15 -2 11 0 18 6 15 5 -4 9 1 9 10 0 9
4 14 9 10 6 -3 14 2 19 10 4 9 18 17 30 18 14 1 18 5 12 12 -6 7 1 12 23 13
17 2 34 8 38 14 4 6 27 11 52 12 25 0 43 4 41 8 -3 4 6 4 19 -1 15 -6 29 -6
38 1 11 8 11 9 -3 4 -10 -3 -19 -2 -22 2 -2 4 34 7 81 8 50 0 76 -3 64 -8 -12
-4 -21 -9 -21 -10 0 -6 88 0 99 6 6 4 11 3 11 -2 0 -6 17 -10 37 -10 21 0 39
-5 41 -11 2 -6 8 -11 13 -11 6 0 7 5 4 10 -3 6 -1 10 4 10 6 0 11 -4 11 -10 0
-5 11 -10 25 -10 14 0 25 -5 25 -11 0 -8 5 -7 15 1 13 11 14 10 9 -4 -6 -16 3
-19 58 -19 9 0 16 -4 15 -10 -2 -11 5 -13 44 -16 11 0 17 -5 14 -11 -3 -5 1
-10 9 -10 9 0 16 -4 16 -10 0 -5 7 -6 17 -3 11 4 14 3 9 -5 -5 -8 1 -12 19
-12 14 0 28 -7 31 -15 4 -10 13 -13 24 -10 12 4 17 1 16 -9 0 -8 2 -14 6 -13
4 1 13 -6 20 -16 7 -10 23 -19 35 -20 12 0 19 -5 17 -9 -3 -4 -2 -8 3 -9 4 0
19 -2 31 -3 24 -3 58 21 47 32 -3 4 -10 1 -14 -6 -4 -7 -7 6 -7 32 1 24 4 42
9 39 4 -2 7 0 7 6 0 5 -5 13 -11 16 -7 5 -4 14 8 28 10 11 13 17 7 14 -7 -4
-15 0 -18 9 -3 8 -2 13 3 10 5 -3 11 3 14 14 6 22 -8 28 -16 8 -4 -10 -6 -10
-6 -1 -1 6 4 15 9 18 6 3 10 11 10 16 0 6 -3 8 -8 6 -4 -3 -7 8 -7 24 -1 18 4
28 11 25 7 -3 9 5 6 20 -2 13 -8 22 -11 19 -4 -2 -8 2 -8 10 0 8 4 12 8 9 4
-2 10 0 13 5 3 5 -1 11 -8 14 -8 3 -14 15 -13 26 0 11 4 18 8 15 4 -2 7 4 7
13 0 10 0 23 2 28 5 20 0 46 -8 41 -5 -3 -9 1 -9 9 0 8 3 14 6 13 21 -2 22 4
5 18 -10 8 -13 13 -6 9 7 -4 12 1 12 11 0 10 -3 14 -7 11 -3 -4 -21 3 -40 14
-19 12 -42 19 -53 16 -12 -3 -17 0 -14 7 5 12 0 14 -51 17 -14 1 -25 8 -25 15
0 10 -13 14 -39 14 -22 0 -44 6 -51 15 -7 8 -17 12 -23 8 -6 -4 -3 -9 9 -14
16 -6 16 -8 2 -8 -9 -1 -21 5 -25 12 -4 7 -16 13 -25 14 -94 4 -93 4 -73 13
20 9 4 11 -93 14 -21 0 -31 5 -28 13 3 7 -1 10 -9 6 -8 -3 -12 -10 -9 -15 4
-6 -4 -3 -17 5 -33 21 -402 25 -427 5 -9 -7 -13 -8 -9 -2 3 6 -1 11 -9 11 -8
0 -18 -5 -21 -10z m1032 -246 c3 -5 2 -12 -3 -15 -5 -3 -9 1 -9 9 0 17 3 19
12 6z m-425 -841 c0 -5 -2 -10 -4 -10 -3 0 -8 5 -11 10 -3 6 -1 10 4 10 6 0
11 -4 11 -10z m-680 -464 c0 -2 -7 -7 -16 -10 -8 -3 -12 -2 -9 4 6 10 25 14
25 6z m-183 -552 c-3 -3 -12 -4 -19 -1 -8 3 -5 6 6 6 11 1 17 -2 13 -5z m163
-504 c0 -5 -4 -10 -10 -10 -5 0 -10 5 -10 10 0 6 5 10 10 10 6 0 10 -4 10 -10z
m34 -2 c-3 -4 -9 -8 -15 -8 -5 0 -9 4 -9 8 0 5 7 9 15 9 8 0 12 -4 9 -9z"/>
<path d="M2495 6510 c-3 -5 -1 -10 4 -10 6 0 11 5 11 10 0 6 -2 10 -4 10 -3 0
-8 -4 -11 -10z"/>
<path d="M677 6475 c-2 -5 -3 -586 -3 -1290 l1 -1280 309 0 310 0 -2 1280 c-1
704 -3 1285 -4 1291 -1 11 -58 11 -75 1 -5 -3 -15 -2 -23 3 -8 5 -21 5 -31 -1
-11 -6 -20 -5 -24 1 -3 5 -11 10 -16 10 -6 0 -7 -5 -3 -12 5 -7 3 -8 -7 -2
-20 12 -428 12 -432 -1z"/>
<path d="M4309 6425 c0 -59 2 -378 4 -403 0 -9 4 -9 11 -2 13 13 46 13 46 0 0
-5 -6 -7 -14 -4 -8 3 -16 1 -20 -4 -8 -14 30 -7 50 9 16 12 17 12 12 -2 -4 -9
-1 -16 7 -16 7 0 11 6 8 14 -3 7 2 13 12 13 10 0 13 -4 9 -12 -6 -10 -5 -10 7
-1 21 17 82 13 97 -6 10 -13 11 -13 7 -1 -8 22 55 23 72 1 10 -12 12 -13 8 -1
-8 22 55 23 72 1 10 -12 12 -13 8 -1 -8 22 55 23 72 1 10 -12 12 -13 8 -1 -4
11 4 16 30 17 19 2 35 -1 35 -7 0 -5 -6 -7 -14 -4 -8 3 -16 1 -20 -4 -8 -14
30 -7 50 9 16 13 17 12 11 -6 -7 -19 -6 -19 7 -2 17 22 30 22 22 0 -6 -14 -3
-14 15 3 18 16 21 16 16 2 -6 -17 15 -20 30 -3 4 4 2 5 -4 1 -7 -4 -13 -3 -13
2 0 5 13 9 30 9 26 0 28 -2 12 -14 -16 -12 -16 -13 1 -7 15 5 17 -1 17 -57 0
-35 1 -511 1 -1056 l0 -993 304 0 c167 0 306 4 309 9 3 5 6 483 6 1063 l0
1055 48 0 c31 0 51 -5 59 -16 11 -13 12 -13 8 -1 -4 11 4 16 30 17 19 2 35 -1
35 -7 0 -5 -6 -7 -14 -4 -8 3 -16 1 -20 -4 -8 -14 30 -7 50 9 16 12 17 12 12
-2 -4 -9 -1 -16 7 -16 7 0 11 6 8 14 -3 7 2 13 12 13 10 0 14 -5 9 -12 -6 -10
-4 -10 7 0 15 14 49 16 49 2 0 -5 -6 -7 -14 -4 -8 3 -16 1 -20 -4 -7 -12 30
-8 46 6 16 13 100 12 109 0 3 -5 15 -10 27 -13 15 -2 19 0 15 11 -3 9 1 14 12
14 10 0 14 -5 9 -12 -6 -10 -4 -10 7 0 15 14 49 16 49 2 0 -5 -6 -7 -14 -4 -8
3 -16 1 -20 -4 -8 -14 30 -7 50 9 16 12 17 12 12 -2 -4 -9 -1 -16 7 -16 7 0
11 6 8 14 -3 7 2 13 12 13 10 0 14 -5 9 -12 -6 -10 -4 -10 7 0 18 17 39 15 56
-5 14 -17 14 -17 9 0 -3 11 0 17 10 17 12 0 14 32 12 227 l-3 228 -1008 0
-1007 0 -1 -60z m1771 -405 c0 -5 -2 -10 -4 -10 -3 0 -8 5 -11 10 -3 6 -1 10
4 10 6 0 11 -4 11 -10z"/>
<path d="M2330 6449 c0 -5 5 -7 10 -4 6 3 10 8 10 11 0 2 -4 4 -10 4 -5 0 -10
-5 -10 -11z"/>
<path d="M3650 6199 c0 -5 5 -7 10 -4 6 3 10 8 10 11 0 2 -4 4 -10 4 -5 0 -10
-5 -10 -11z"/>
<path d="M4456 6012 c-2 -4 4 -8 15 -8 10 0 19 4 19 8 0 4 -6 8 -14 8 -8 0
-17 -4 -20 -8z"/>
<path d="M5646 6008 c6 -9 44 -6 44 3 0 4 -11 6 -24 5 -13 0 -22 -4 -20 -8z"/>
<path d="M5970 6009 c0 -5 5 -7 10 -4 6 3 10 8 10 11 0 2 -4 4 -10 4 -5 0 -10
-5 -10 -11z"/>
<path d="M6000 6016 c0 -2 7 -7 16 -10 8 -3 12 -2 9 4 -6 10 -25 14 -25 6z"/>
<path d="M6255 6010 c-3 -6 1 -7 9 -4 18 7 21 14 7 14 -6 0 -13 -4 -16 -10z"/>
<path d="M3650 5879 c0 -5 5 -7 10 -4 6 3 10 8 10 11 0 2 -4 4 -10 4 -5 0 -10
-5 -10 -11z"/>
<path d="M2945 5530 c-3 -6 1 -7 9 -4 18 7 21 14 7 14 -6 0 -13 -4 -16 -10z"/>
<path d="M1860 5465 c0 -8 4 -15 10 -15 5 0 7 7 4 15 -4 8 -8 15 -10 15 -2 0
-4 -7 -4 -15z"/>
<path d="M3073 4675 c0 -8 4 -12 9 -9 4 3 8 9 8 15 0 5 -4 9 -8 9 -5 0 -9 -7
-9 -15z"/>
<path d="M709 3623 c-1 -5 -1 -12 0 -17 1 -5 -5 -6 -14 -3 -8 4 -15 2 -15 -2
0 -5 6 -12 13 -14 8 -4 7 -6 -3 -6 -13 -1 -15 -179 -15 -1541 0 -1254 2 -1541
13 -1552 11 -11 12 -9 7 7 -4 14 -2 12 8 -5 9 -14 14 -27 12 -30 -2 -3 40 -5
93 -5 74 0 100 4 110 15 9 11 12 12 10 1 -3 -15 29 -24 38 -10 3 6 11 5 20 -2
11 -9 18 -9 26 -1 8 8 17 8 30 1 15 -8 23 -7 34 8 9 11 13 13 12 4 -2 -10 9
-15 40 -16 23 -2 45 1 48 6 3 5 14 4 25 -2 17 -8 24 -7 35 8 9 11 13 13 12 4
-2 -11 17 -14 100 -15 57 -1 106 2 109 7 2 4 13 2 24 -4 17 -8 24 -7 35 8 9
12 13 13 12 4 -3 -12 63 -15 440 -15 244 -1 446 2 449 7 2 4 13 2 24 -4 17 -8
24 -7 35 8 8 11 13 12 12 4 -3 -16 38 -25 47 -11 4 7 14 6 28 -1 16 -9 22 -9
25 0 3 9 8 9 20 -1 13 -11 14 -11 7 2 -8 13 -7 13 8 1 14 -11 20 -11 32 -1 8
7 15 8 15 3 0 -5 9 -9 20 -10 11 -1 20 3 20 8 0 6 7 6 18 2 25 -12 58 -9 76 6
14 12 16 11 11 -5 -3 -10 1 -7 8 9 7 15 16 24 20 21 4 -4 7 9 7 30 0 26 -4 35
-12 31 -7 -4 -6 -1 2 7 18 16 15 82 -3 72 -7 -3 -5 0 3 8 18 16 16 118 -3 130
-8 5 -5 8 7 8 20 0 20 0 0 16 -10 8 -13 13 -6 9 9 -4 12 5 12 35 0 30 -3 39
-12 35 -7 -4 -6 -1 2 7 18 16 15 82 -3 72 -7 -3 -5 0 3 8 11 9 14 30 12 76 -2
36 -7 60 -12 57 -6 -4 -10 1 -10 10 0 34 -32 52 -92 51 -33 -1 -58 3 -58 9 0
6 -3 6 -8 -1 -8 -11 -51 -13 -68 -2 -6 4 -14 4 -18 1 -10 -10 -236 -10 -242
-1 -3 5 -11 5 -17 1 -17 -10 -297 -10 -297 0 0 4 -5 5 -12 1 -19 -12 -142 -11
-150 1 -5 6 -8 5 -8 -3 0 -10 -5 -10 -20 -2 -11 6 -20 7 -20 2 0 -12 -103 -9
-112 3 -5 6 -8 5 -8 -3 0 -10 -5 -10 -20 -2 -11 6 -20 7 -20 3 0 -5 -22 -8
-49 -8 -27 0 -49 2 -49 5 1 19 -4 23 -13 10 -9 -13 -10 -13 -6 2 3 9 3 19 0
22 -6 5 -7 37 -4 92 1 9 6 12 14 8 10 -6 10 -4 0 7 -19 20 -16 33 5 18 16 -13
16 -13 2 6 -8 11 -19 23 -25 27 -10 7 -7 9 15 12 6 0 10 6 9 11 0 6 -6 9 -14
7 -9 -2 -12 4 -8 18 3 11 10 17 17 13 6 -4 5 1 -3 11 -13 15 -15 38 -12 102 1
9 6 12 14 8 7 -4 6 0 -3 12 -14 17 -17 66 -10 164 1 23 2 24 11 5 9 -18 9 -18
5 3 -2 13 1 36 7 50 11 26 16 28 79 28 37 0 65 -3 62 -8 -3 -4 2 -8 11 -8 10
0 14 5 9 13 -6 10 -4 10 7 0 14 -14 33 -18 25 -5 -2 4 40 8 94 8 55 0 97 -3
94 -8 -3 -4 2 -8 11 -8 9 0 14 4 11 8 -3 5 1 9 9 9 8 0 12 -4 9 -9 -6 -10 10
-11 20 -1 10 11 186 11 180 1 -3 -4 2 -8 11 -8 10 0 14 5 9 13 -6 10 -4 10 7
0 14 -14 33 -18 25 -5 -2 4 40 8 94 8 55 0 97 -3 94 -8 -3 -4 2 -8 11 -8 9 0
14 4 11 8 -3 5 1 9 9 9 8 0 12 -4 9 -9 -6 -10 10 -11 20 -1 10 11 166 12 172
1 3 -4 11 -8 17 -8 7 0 6 4 -3 10 -13 9 -13 10 0 10 9 0 24 10 34 22 17 20 18
43 17 320 -2 356 0 331 -20 315 -9 -8 -12 -8 -8 -1 4 7 -4 19 -18 28 -30 20
-41 21 -26 2 10 -12 8 -13 -8 -9 -12 3 -19 8 -17 12 3 4 -4 8 -15 8 -10 1 -19
-3 -19 -8 0 -6 5 -7 12 -3 7 4 8 3 4 -5 -6 -9 -11 -9 -23 1 -19 15 -475 20
-466 4 4 -5 1 -6 -6 -2 -6 4 -18 3 -26 -4 -9 -8 -15 -8 -20 0 -3 6 -11 7 -17
4 -7 -4 -8 -2 -4 4 4 7 1 12 -9 12 -10 0 -13 -5 -9 -12 5 -8 0 -7 -11 2 -10 8
-16 10 -12 4 4 -7 0 -14 -8 -17 -10 -4 -12 -1 -8 11 6 15 5 16 -12 2 -15 -12
-17 -12 -10 -1 6 11 4 13 -11 7 -40 -16 -50 -18 -36 -9 9 7 2 10 -22 9 -19 -1
-32 -4 -30 -8 2 -4 0 -10 -6 -13 -6 -4 -9 -1 -8 7 2 9 -10 13 -39 14 -25 1
-40 -3 -36 -8 3 -6 -5 -5 -17 2 -13 7 -20 8 -16 2 3 -6 2 -14 -4 -17 -6 -4 -9
-1 -8 7 2 10 -12 13 -54 13 -31 0 -54 -3 -52 -7 2 -4 0 -10 -6 -13 -6 -4 -9
-1 -8 6 2 7 -5 15 -16 17 -13 3 -16 0 -10 -10 4 -7 -1 -5 -12 4 -16 14 -23 15
-33 5 -11 -10 -11 -8 -2 11 7 12 16 20 21 17 6 -4 7 2 3 11 -4 11 -8 13 -11 6
-6 -20 -20 -13 -15 8 3 11 10 17 16 13 6 -3 7 -1 3 6 -4 6 -3 18 4 26 7 8 7
15 1 19 -6 4 -8 14 -5 24 5 14 4 14 -4 2 -7 -9 -7 -19 -2 -26 10 -11 4 -24
-10 -24 -8 0 -5 37 5 63 4 9 3 17 -2 17 -5 0 -8 12 -7 28 3 38 4 40 15 17 l9
-20 -2 20 c-2 11 1 26 5 32 5 7 3 21 -2 30 -6 10 -11 12 -11 6 0 -7 -4 -13 -9
-13 -5 0 -7 9 -4 20 3 11 8 18 12 16 12 -8 6 41 -7 57 -11 13 -10 15 10 10 14
-3 18 -1 12 4 -6 4 -10 16 -8 26 1 10 -2 14 -8 11 -7 -4 -8 -2 -4 4 5 9 172
12 637 12 552 0 629 2 629 15 0 8 5 15 10 15 6 0 10 7 10 16 0 9 6 14 13 11 8
-3 12 5 12 23 0 16 -5 26 -11 23 -6 -2 -11 3 -11 11 0 8 4 13 8 11 3 -3 9 4
12 15 6 22 -8 28 -16 8 -4 -10 -6 -10 -6 -1 -1 6 4 15 9 18 15 9 13 48 -2 40
-7 -4 -5 0 5 8 18 15 18 16 0 26 -17 10 -17 10 1 11 20 0 20 0 0 16 -10 8 -13
13 -6 9 9 -4 12 5 12 35 0 30 -3 39 -12 35 -7 -4 -6 -1 2 7 18 16 16 118 -3
130 -8 5 -5 8 7 8 20 0 20 0 0 16 -10 8 -14 13 -8 10 18 -9 23 51 7 74 -13 18
-12 19 4 13 15 -6 16 -4 6 8 -9 11 -9 19 -2 26 8 8 7 13 -2 18 -8 5 -10 4 -5
-3 4 -7 2 -12 -3 -12 -6 0 -11 12 -11 28 0 21 -2 24 -10 12 -8 -13 -10 -12
-10 3 0 16 -57 17 -1050 17 -577 0 -1051 -3 -1051 -7z m841 -783 c0 -5 -5 -10
-11 -10 -5 0 -7 5 -4 10 3 6 8 10 11 10 2 0 4 -4 4 -10z m2 -92 c-7 -7 -12 -8
-12 -2 0 14 12 26 19 19 2 -3 -1 -11 -7 -17z m138 -268 c0 -5 -2 -10 -4 -10
-3 0 -8 5 -11 10 -3 6 -1 10 4 10 6 0 11 -4 11 -10z m120 0 c0 -5 -5 -10 -11
-10 -5 0 -7 5 -4 10 3 6 8 10 11 10 2 0 4 -4 4 -10z m360 4 c0 -8 -19 -13 -24
-6 -3 5 1 9 9 9 8 0 15 -2 15 -3z m40 0 c0 -8 -19 -13 -24 -6 -3 5 1 9 9 9 8
0 15 -2 15 -3z m40 0 c0 -8 -19 -13 -24 -6 -3 5 1 9 9 9 8 0 15 -2 15 -3z m40
0 c0 -8 -19 -13 -24 -6 -3 5 1 9 9 9 8 0 15 -2 15 -3z m40 0 c0 -8 -19 -13
-24 -6 -3 5 1 9 9 9 8 0 15 -2 15 -3z m40 0 c0 -8 -19 -13 -24 -6 -3 5 1 9 9
9 8 0 15 -2 15 -3z m40 0 c0 -8 -19 -13 -24 -6 -3 5 1 9 9 9 8 0 15 -2 15 -3z
m40 0 c0 -8 -19 -13 -24 -6 -3 5 1 9 9 9 8 0 15 -2 15 -3z m40 0 c0 -8 -19
-13 -24 -6 -3 5 1 9 9 9 8 0 15 -2 15 -3z m40 0 c0 -8 -19 -13 -24 -6 -3 5 1
9 9 9 8 0 15 -2 15 -3z m40 0 c0 -8 -19 -13 -24 -6 -3 5 1 9 9 9 8 0 15 -2 15
-3z m-1016 -719 c-4 -8 -10 -15 -15 -15 -4 0 -6 7 -3 15 4 8 10 15 15 15 4 0
6 -7 3 -15z"/>
<path d="M3526 3619 c4 -7 1 -10 -7 -7 -19 6 -45 -52 -27 -63 6 -4 12 -18 13
-30 1 -13 7 -25 13 -27 7 -2 12 -13 12 -23 0 -11 5 -17 10 -14 6 3 10 -1 10
-9 0 -29 1 -31 21 -38 12 -5 19 -15 17 -25 -2 -10 2 -17 10 -15 7 1 12 -10 12
-30 0 -25 3 -29 10 -18 7 12 11 8 16 -17 4 -20 11 -30 19 -27 8 4 11 -3 10
-20 -2 -17 2 -26 11 -26 8 0 14 -9 14 -21 0 -15 5 -19 15 -15 8 3 14 2 14 -2
-4 -24 3 -42 16 -42 9 0 12 -6 9 -15 -4 -9 0 -15 7 -15 11 0 11 -3 -1 -10 -15
-9 -13 -11 13 -14 6 -1 11 -10 9 -20 -2 -12 1 -16 9 -10 9 5 10 2 6 -9 -3 -10
-2 -17 3 -17 6 0 10 -7 10 -16 0 -8 4 -13 9 -10 5 4 12 -8 16 -25 5 -20 11
-29 21 -25 9 4 13 -2 11 -17 -1 -15 3 -21 12 -19 12 3 12 1 0 -14 -9 -12 -9
-15 -1 -10 7 4 12 2 12 -4 0 -6 7 -18 16 -27 8 -9 13 -22 10 -29 -3 -9 2 -14
13 -14 14 0 18 -5 14 -20 -4 -14 0 -20 11 -20 10 0 14 -4 11 -10 -3 -5 -2 -10
4 -10 5 0 8 -9 6 -21 -4 -17 -2 -19 10 -9 13 11 15 7 15 -19 0 -21 5 -31 16
-31 8 0 12 -4 9 -10 -3 -5 -1 -10 5 -10 6 0 8 -4 5 -10 -3 -5 -1 -10 4 -10 6
0 11 -9 11 -20 0 -11 6 -20 13 -20 7 0 13 -10 14 -22 1 -12 9 -26 18 -30 8 -5
13 -13 10 -19 -4 -5 1 -9 9 -9 8 0 18 -5 22 -12 5 -7 3 -8 -7 -3 -12 8 -12 6
-1 -8 8 -9 10 -22 6 -28 -5 -9 -2 -10 9 -6 11 4 17 1 17 -9 0 -8 7 -22 15 -31
8 -8 13 -19 10 -23 -3 -5 4 -14 15 -20 13 -7 19 -18 16 -26 -3 -8 1 -17 9 -20
8 -4 15 -15 15 -26 0 -10 5 -16 10 -13 9 5 12 -6 9 -32 0 -4 8 -10 18 -14 10
-3 19 -11 19 -18 1 -6 2 -19 3 -28 1 -16 3 -16 12 -3 9 12 10 11 6 -7 -4 -18
-1 -23 14 -23 15 0 19 -7 19 -31 0 -16 4 -28 9 -24 5 3 12 1 16 -5 3 -5 1 -10
-6 -10 -9 0 -9 -3 0 -14 10 -11 9 -16 -3 -23 -9 -5 -17 -18 -19 -30 -2 -13 -7
-26 -12 -30 -4 -5 -5 -3 -1 4 3 6 3 14 -2 17 -4 2 -9 -4 -9 -15 -1 -10 -9 -26
-18 -35 -9 -9 -14 -23 -11 -30 5 -13 -5 -18 -26 -15 -4 0 -5 -6 -2 -14 4 -10
0 -15 -12 -16 -11 0 -14 -3 -6 -6 6 -2 12 -9 12 -14 0 -6 -4 -7 -10 -4 -5 3
-10 -3 -10 -13 0 -11 -7 -23 -16 -26 -10 -4 -14 -14 -11 -25 3 -13 -2 -21 -15
-24 -11 -3 -17 -10 -14 -15 3 -6 -1 -12 -9 -16 -8 -3 -15 -17 -15 -30 0 -19
-4 -24 -15 -20 -11 5 -13 2 -9 -10 3 -9 1 -16 -5 -16 -5 0 -15 -10 -21 -22
-11 -22 -10 -22 4 -4 9 11 16 15 16 9 0 -14 -35 -44 -43 -36 -4 3 -7 -11 -7
-33 0 -29 -3 -35 -10 -24 -8 13 -11 11 -16 -7 -4 -14 -11 -20 -18 -16 -6 4 -5
-1 3 -10 12 -15 11 -17 -3 -17 -12 0 -16 -7 -14 -22 2 -14 -2 -22 -9 -20 -7 1
-13 -7 -13 -18 0 -11 -7 -20 -15 -20 -10 0 -15 -10 -15 -32 0 -25 -3 -29 -10
-18 -9 13 -10 13 -11 0 -1 -8 -1 -18 0 -22 1 -7 -14 -12 -31 -9 -4 0 -5 -5 -2
-13 3 -7 -2 -19 -11 -26 -8 -7 -15 -21 -15 -32 0 -10 -4 -16 -10 -13 -5 3 -7
0 -4 -8 3 -9 -4 -22 -18 -31 -15 -11 -17 -16 -8 -16 12 -1 11 -3 -2 -11 -10
-5 -18 -17 -18 -24 0 -8 -4 -15 -10 -15 -5 0 -10 -12 -11 -27 0 -25 -1 -26 -9
-8 -8 18 -9 18 -10 -5 -2 -14 -2 -28 -1 -32 0 -5 -9 -8 -21 -8 -12 0 -18 -3
-15 -7 4 -3 1 -13 -6 -21 -10 -13 -9 -15 3 -8 8 4 7 1 -3 -7 -10 -8 -19 -24
-20 -35 -1 -16 -4 -19 -15 -10 -7 6 -12 7 -11 2 4 -25 -2 -54 -12 -52 -6 2
-14 -3 -17 -11 -3 -9 0 -11 8 -6 8 5 0 -8 -16 -28 -16 -20 -32 -37 -36 -37 -5
0 -8 -11 -8 -24 0 -13 -7 -26 -15 -30 -8 -3 -15 -9 -14 -13 3 -21 -2 -33 -16
-33 -9 0 -12 -6 -9 -15 4 -10 0 -15 -10 -15 -9 0 -16 -6 -15 -13 1 -6 1 -21 0
-32 -1 -17 -3 -18 -11 -5 -8 12 -10 11 -10 -7 0 -13 -5 -23 -11 -23 -6 0 -9
-7 -5 -15 3 -8 0 -14 -6 -12 -7 1 -12 -4 -13 -11 0 -7 -5 -16 -11 -20 -7 -4
-14 -16 -16 -27 -2 -11 -10 -19 -16 -17 -7 1 -12 -2 -12 -8 0 -5 5 -10 11 -10
8 0 7 -6 -2 -17 -11 -13 -11 -17 -1 -21 10 -3 10 -7 0 -20 -11 -13 -10 -15 5
-9 9 3 17 2 17 -4 0 -6 5 -7 10 -4 6 4 9 1 8 -6 -4 -19 900 -20 918 -2 7 7 18
13 24 13 7 0 10 7 6 15 -3 9 3 24 14 35 11 11 20 30 20 43 0 18 2 19 10 7 5
-8 10 -12 11 -7 1 4 3 12 4 17 1 6 3 15 4 21 0 5 6 7 12 4 6 -4 10 -1 8 6 -4
32 2 49 17 49 8 0 12 5 9 10 -3 6 -2 10 3 10 6 0 8 10 5 23 -4 18 -3 19 6 7
10 -14 13 -9 10 16 0 3 8 12 18 21 10 8 13 12 6 9 -7 -4 -6 4 3 24 9 16 18 30
20 30 3 0 2 -5 -2 -12 -4 -7 -3 -8 5 -4 6 4 9 16 6 27 -5 14 0 22 17 28 13 6
17 10 9 10 -9 1 -6 7 8 19 12 9 22 31 23 48 1 21 6 30 15 27 7 -3 13 2 13 11
0 9 5 16 11 16 6 0 9 7 5 15 -3 8 -1 15 4 15 6 0 10 8 10 18 0 15 2 15 11 2 8
-12 10 -9 6 13 -3 20 1 32 15 41 10 8 20 23 21 34 0 11 5 18 9 16 7 -5 12 10
9 29 0 4 6 7 14 7 8 0 15 7 15 15 0 27 1 30 16 38 8 4 14 20 14 36 0 25 3 27
30 23 21 -3 30 -9 28 -21 -2 -9 3 -15 11 -13 12 3 12 1 0 -14 -9 -12 -9 -15
-1 -10 8 5 12 0 12 -13 0 -15 4 -19 17 -14 10 4 14 2 10 -4 -10 -16 3 -44 16
-36 6 4 8 0 4 -10 -4 -10 -2 -17 4 -17 6 0 8 -7 5 -15 -3 -9 1 -18 9 -21 8 -4
15 -15 15 -25 0 -13 5 -17 18 -12 15 6 16 5 2 -12 -9 -11 -10 -16 -2 -11 8 5
12 0 12 -13 0 -13 5 -18 13 -15 10 3 13 -4 12 -26 -1 -17 3 -34 8 -37 6 -3 7
-1 3 5 -4 7 -2 12 3 12 6 0 11 -9 11 -20 0 -11 4 -20 10 -20 5 0 12 -11 16
-25 3 -14 10 -25 15 -25 5 0 9 -3 8 -7 -3 -18 14 -52 22 -47 5 3 9 -4 9 -16 0
-11 7 -23 15 -26 8 -4 15 -17 15 -30 0 -13 4 -24 9 -24 5 0 12 -14 16 -30 4
-17 13 -30 21 -30 9 0 12 -5 9 -10 -3 -6 1 -13 9 -16 9 -3 16 -10 16 -16 0 -5
-5 -6 -11 -3 -6 4 -5 -2 3 -14 7 -12 18 -21 25 -21 7 0 13 -9 13 -21 0 -11 7
-27 15 -36 8 -8 12 -20 8 -26 -4 -7 0 -8 12 -3 16 6 16 4 4 -11 -7 -10 -9 -15
-4 -10 4 4 20 -1 34 -10 23 -15 69 -17 466 -18 242 -1 446 1 454 4 11 3 10 6
-5 12 -16 6 -15 8 9 8 26 1 27 3 27 51 0 36 -4 52 -15 56 -8 4 -13 10 -10 14
3 5 -4 11 -15 15 -11 4 -18 10 -15 15 8 12 -6 41 -16 34 -5 -3 -9 6 -9 21 0
14 -7 28 -16 32 -8 3 -13 12 -10 19 3 9 -2 14 -13 14 -15 0 -19 6 -16 25 2 21
0 23 -12 13 -8 -6 -13 -7 -12 -2 4 23 -2 44 -13 44 -7 0 -18 11 -25 25 -8 18
-8 23 0 18 7 -4 2 6 -11 21 -12 16 -19 33 -15 39 3 6 1 7 -5 3 -8 -5 -12 0
-12 13 0 11 -5 23 -12 27 -7 5 -8 3 -3 -6 5 -8 4 -11 -2 -7 -6 4 -13 20 -17
37 -4 21 -10 29 -17 24 -8 -5 -10 -1 -7 14 4 15 2 19 -8 15 -10 -4 -14 3 -14
21 0 16 -6 26 -15 26 -13 0 -20 18 -16 43 0 4 -6 7 -14 7 -8 0 -15 9 -15 20 0
11 -7 20 -16 20 -8 0 -13 4 -10 9 4 5 3 17 0 26 -5 13 -8 14 -15 3 -6 -8 -9 1
-9 27 0 30 -3 36 -10 25 -7 -10 -10 -11 -11 -2 -4 33 -6 37 -17 35 -7 -2 -13
3 -13 10 -1 6 -2 17 -3 23 0 6 -9 18 -19 28 -9 10 -15 21 -12 26 3 5 0 12 -6
16 -8 5 -9 3 -4 -6 5 -9 4 -11 -3 -6 -7 4 -12 14 -12 22 0 9 -7 23 -16 31 -8
9 -13 24 -11 35 3 10 1 16 -3 13 -5 -3 -14 4 -20 15 -6 11 -15 18 -21 15 -5
-4 -9 -3 -8 2 4 24 -2 53 -11 48 -6 -3 -10 3 -10 14 0 24 -16 36 -24 19 -4 -9
-5 -8 -5 2 3 36 -2 50 -16 50 -8 0 -15 9 -15 20 0 10 -8 24 -17 29 -11 6 -13
11 -5 11 7 0 10 5 7 11 -4 6 -14 8 -22 4 -13 -4 -14 -3 -3 10 10 12 10 15 -4
15 -10 0 -15 4 -11 9 3 5 1 12 -5 16 -6 4 -7 11 -4 17 4 6 3 8 -3 5 -10 -6
-18 7 -42 66 -6 15 -15 27 -21 27 -5 0 -10 7 -10 15 0 8 -4 15 -10 15 -5 0
-10 11 -10 25 0 16 -6 25 -15 25 -13 0 -17 6 -14 26 0 3 -7 11 -17 18 -9 7
-14 18 -10 24 4 7 1 12 -6 12 -8 0 -14 11 -14 25 0 18 3 22 12 14 9 -8 11 -5
7 10 -3 14 0 23 11 27 10 4 16 18 16 36 0 18 4 27 11 23 6 -4 13 2 16 14 3 11
9 18 14 15 5 -3 9 -1 9 5 0 5 -6 12 -12 14 -8 3 -6 6 5 6 9 1 17 6 17 12 0 7
8 18 18 26 9 8 11 11 4 8 -11 -6 -11 -3 -1 13 7 12 17 18 21 16 4 -3 8 4 8 15
0 11 8 22 18 24 16 4 16 5 -1 6 -14 1 -12 7 14 32 17 17 28 36 25 44 -3 8 0
14 7 12 6 -1 13 8 15 21 2 14 9 22 16 19 7 -3 13 4 13 16 1 11 10 25 19 30 13
8 14 11 3 18 -10 6 -11 9 -1 9 6 0 12 7 12 15 0 8 5 15 10 15 6 0 10 9 10 19
0 11 4 23 10 26 6 4 7 -1 3 -11 -4 -12 -3 -15 5 -10 7 4 12 18 12 32 0 15 6
24 16 24 10 0 14 6 10 15 -3 10 1 15 12 16 14 0 14 2 -3 9 -17 7 -17 9 -2 9 9
1 17 8 17 16 0 8 7 15 15 15 10 0 15 10 15 32 0 30 1 31 14 13 13 -18 14 -18
9 8 -4 21 -1 27 13 28 11 0 14 3 7 6 -7 2 -13 9 -13 14 0 5 6 8 13 7 6 -2 11
5 11 15 -1 9 4 17 12 17 8 0 14 10 14 24 0 13 7 27 16 30 8 3 12 10 9 16 -3 5
-1 10 5 10 6 0 8 5 4 13 -5 8 -2 7 9 -2 15 -12 17 -12 11 3 -4 10 -1 16 7 16
12 0 12 2 1 9 -11 7 -11 9 2 14 9 4 16 16 16 27 0 11 7 20 15 20 14 0 19 14
16 50 0 10 1 11 5 3 3 -7 10 -13 15 -13 6 0 8 4 5 9 -9 14 5 42 17 34 6 -4 8
0 4 11 -4 10 1 24 13 36 11 11 20 25 20 31 0 5 5 7 12 3 8 -5 9 -2 5 9 -4 10
-2 17 4 17 6 0 9 7 5 15 -3 9 0 15 8 15 7 0 16 14 20 31 3 17 10 28 16 24 5
-3 10 1 10 9 0 9 5 16 11 16 6 0 9 6 6 13 -5 14 19 54 31 50 4 -2 8 2 8 7 1 6
2 16 3 23 1 8 4 7 11 -3 8 -12 10 -9 10 12 0 15 5 30 11 34 8 4 7 9 -2 15 -11
7 -11 9 2 9 19 0 21 27 2 34 -7 3 -13 15 -13 26 0 20 -4 20 -470 20 -403 0
-470 -2 -470 -14 0 -8 -5 -18 -12 -22 -7 -4 -8 -3 -4 4 4 7 2 12 -3 12 -6 0
-11 -7 -11 -15 0 -8 -4 -15 -10 -15 -5 0 -10 -5 -10 -11 0 -5 6 -7 13 -4 6 4
4 0 -5 -8 -10 -8 -18 -22 -18 -31 0 -10 -4 -14 -10 -11 -5 3 -11 1 -11 -4 -1
-6 -2 -15 -3 -21 0 -5 -5 -10 -11 -10 -5 1 -12 -14 -15 -32 -4 -21 -11 -32
-19 -30 -8 2 -11 -3 -8 -13 4 -10 1 -15 -11 -15 -15 0 -15 -2 -2 -10 13 -8 12
-10 -3 -10 -10 0 -17 -6 -16 -12 1 -7 1 -22 0 -33 -1 -17 -3 -18 -11 -5 -7 11
-10 7 -10 -17 0 -25 -4 -31 -15 -27 -11 5 -15 -1 -15 -19 0 -14 -7 -27 -15
-31 -8 -3 -15 -15 -15 -26 0 -11 -4 -20 -10 -20 -5 0 -10 -6 -10 -14 0 -8 -7
-17 -16 -20 -8 -3 -13 -10 -9 -16 3 -5 -2 -17 -12 -27 -10 -10 -17 -28 -17
-40 1 -13 -5 -23 -12 -23 -12 0 -20 -27 -15 -53 1 -5 -3 -6 -9 -2 -6 3 -7 12
-4 18 4 7 3 8 -2 4 -9 -9 -10 -13 -13 -43 -1 -9 -6 -12 -13 -8 -8 5 -8 2 1
-10 12 -14 12 -17 1 -14 -8 2 -14 -2 -15 -9 0 -7 -6 -18 -14 -25 -11 -11 -13
-11 -6 1 6 10 2 12 -14 6 -17 -5 -21 -2 -21 15 0 12 -4 19 -9 16 -5 -3 -11 1
-14 9 -4 10 -1 12 11 9 15 -5 15 -4 0 6 -10 6 -18 21 -18 33 0 16 -3 18 -9 8
-10 -16 -20 -3 -16 21 2 10 -2 16 -8 15 -7 -1 -13 10 -15 26 -2 15 -9 27 -18
27 -8 0 -14 9 -14 21 0 11 -4 17 -10 14 -6 -3 -7 1 -4 9 3 9 1 16 -5 16 -6 0
-8 6 -5 14 3 8 0 17 -7 22 -8 5 -10 3 -4 -7 5 -8 4 -11 -1 -6 -9 9 -10 13 -13
42 0 8 -8 15 -16 15 -9 0 -15 9 -15 25 0 15 -5 24 -12 22 -7 -1 -12 6 -10 16
2 9 -2 17 -8 17 -6 0 -8 5 -5 10 3 6 1 10 -5 10 -7 0 -10 6 -7 13 3 7 -1 21
-9 32 -8 10 -14 14 -14 9 0 -6 6 -16 13 -24 10 -12 9 -12 -5 -1 -10 7 -18 24
-18 38 0 14 -4 21 -10 18 -5 -3 -10 -2 -10 4 0 5 6 12 13 14 7 3 5 6 -5 6 -11
1 -18 9 -18 21 0 14 -5 18 -17 13 -10 -3 -15 -3 -11 2 4 4 3 15 -4 22 -9 11
-9 17 3 24 11 7 11 9 -3 9 -10 0 -19 5 -19 10 -1 6 -2 14 -3 19 0 5 -5 13 -10
18 -5 5 -6 2 -1 -6 6 -10 4 -12 -4 -7 -7 5 -10 14 -7 21 3 8 -4 17 -15 20 -10
4 -17 11 -14 16 4 5 -176 9 -460 9 -344 0 -464 -3 -459 -11z m2714 -2919 c0
-5 -2 -10 -4 -10 -3 0 -8 5 -11 10 -3 6 -1 10 4 10 6 0 11 -4 11 -10z"/>
<path d="M1550 2681 c0 -6 4 -12 8 -15 5 -3 9 1 9 9 0 8 -4 15 -9 15 -4 0 -8
-4 -8 -9z"/>
<path d="M2065 2490 c4 -6 11 -8 16 -5 14 9 11 15 -7 15 -8 0 -12 -5 -9 -10z"/>
<path d="M4315 2160 c3 -5 8 -10 11 -10 2 0 4 5 4 10 0 6 -5 10 -11 10 -5 0
-7 -4 -4 -10z"/>
<path d="M1590 1779 c0 -4 10 -6 21 -4 32 6 34 13 4 13 -14 0 -25 -4 -25 -9z"/>
<path d="M1656 1778 c3 -4 11 -5 19 -1 21 7 19 12 -4 10 -11 0 -18 -5 -15 -9z"/>
<path d="M1790 1785 c0 -8 29 -12 39 -5 9 5 4 8 -13 8 -14 0 -26 -2 -26 -3z"/>
<path d="M1881 1780 c10 -7 49 -2 49 5 0 2 -14 3 -31 3 -17 -1 -25 -4 -18 -8z"/>
<path d="M2016 1778 c3 -5 10 -6 15 -3 13 9 11 12 -6 12 -8 0 -12 -4 -9 -9z"/>
<path d="M2070 1779 c0 -4 10 -6 21 -4 32 6 34 13 4 13 -14 0 -25 -4 -25 -9z"/>
<path d="M2136 1778 c3 -4 11 -5 19 -1 21 7 19 12 -4 10 -11 0 -18 -5 -15 -9z"/>
<path d="M2270 1785 c0 -8 29 -12 39 -5 9 5 4 8 -13 8 -14 0 -26 -2 -26 -3z"/>
<path d="M2361 1780 c10 -7 49 -2 49 5 0 2 -14 3 -31 3 -17 -1 -25 -4 -18 -8z"/>
<path d="M2496 1778 c3 -5 10 -6 15 -3 13 9 11 12 -6 12 -8 0 -12 -4 -9 -9z"/>
<path d="M2550 1779 c0 -4 10 -6 21 -4 32 6 34 13 4 13 -14 0 -25 -4 -25 -9z"/>
<path d="M2614 1782 c4 -3 14 -7 22 -8 9 -1 13 0 10 4 -4 3 -14 7 -22 8 -9 1
-13 0 -10 -4z"/>
<path d="M1552 1655 c-1 -19 0 -35 2 -35 8 0 13 49 6 60 -4 6 -7 -5 -8 -25z"/>
<path d="M1549 1599 c5 -6 7 -17 5 -24 -3 -7 -1 -15 4 -19 13 -8 8 33 -6 44
-8 7 -9 7 -3 -1z"/>
<path d="M1546 1498 c3 -5 10 -6 15 -3 13 9 11 12 -6 12 -8 0 -12 -4 -9 -9z"/>
<path d="M1546 1258 c3 -5 10 -6 15 -3 13 9 11 12 -6 12 -8 0 -12 -4 -9 -9z"/>
</g>
</svg>
