<svg xmlns="http://www.w3.org/2000/svg" data-name="Layer 1" viewBox="0 0 100 125" x="0px" y="0px"><title>Artboard 16</title><path d="M57.51,1h-.15a2.53,2.53,0,0,0-2.53,2.53V43.78a1.38,1.38,0,0,0,1.38,1.38H96.47A2.53,2.53,0,0,0,99,42.49,44.25,44.25,0,0,0,57.51,1Zm7.32,34.16V12.4A34.28,34.28,0,0,1,87.6,35.17ZM82.07,78.55l-24-23a1.09,1.09,0,0,1,.75-1.88H90.79a2.71,2.71,0,0,1,2.71,2.86,43.91,43.91,0,0,1-7.32,21.58A2.7,2.7,0,0,1,82.07,78.55ZM1,56.48A44.24,44.24,0,0,1,41.89,10.65h.23a3.15,3.15,0,0,1,3.12,3.16v41l29,29a3.14,3.14,0,0,1-.13,4.59A44.05,44.05,0,0,1,45.24,99q-1.15,0-2.32-.06A44.41,44.41,0,0,1,1,56.48Z"/></svg>