<svg xmlns="http://www.w3.org/2000/svg" width="24" height="24" viewBox="0 0 24 24" fill="none">
  <path d="M17.5559 12.7804L8.6556 21.6805C8.44975 21.8865 8.17496 22 7.88195 22C7.58894 22 7.31415 21.8865 7.1083 21.6805L6.45286 21.0252C6.02636 20.5982 6.02636 19.9042 6.45286 19.4779L13.9266 12.0041L6.44457 4.52209C6.23871 4.31608 6.12505 4.04145 6.12506 3.7486C6.12506 3.45544 6.23871 3.1808 6.44457 2.97462L7.10001 2.31951C7.30602 2.11349 7.58065 2 7.87366 2C8.16666 2 8.44146 2.11349 8.64731 2.31951L17.5559 11.2277C17.7622 11.4344 17.8755 11.7103 17.8749 12.0037C17.8755 12.2981 17.7622 12.5739 17.5559 12.7804Z" fill="#458CA5"/>
</svg>