<svg opacity="0.09" width="1920" height="245" viewBox="0 0 1920 245" fill="none" xmlns="http://www.w3.org/2000/svg">
<path opacity="0.2" d="M58.1407 114.709L-50.626 107.704L51.2674 185.242L58.1407 114.709Z" fill="#458CA5" stroke="#458CA5"/>
<path opacity="0.1" d="M58.4507 113.727L104.857 51.7847L-49.79 106.756L58.4507 113.727Z" fill="#458CA5" stroke="#458CA5"/>
<path opacity="0.1" d="M208.391 108.612L107.219 51.8757L173.823 223.598L208.391 108.612Z" fill="#458CA5" stroke="#458CA5"/>
<path opacity="0.2" d="M208.641 108.753L110.32 53.6148L262.228 184.857L208.641 108.753Z" fill="#458CA5" stroke="#458CA5"/>
<path opacity="0.2" d="M416.038 313.568L328.224 108.894L335.031 274.571L416.038 313.568Z" fill="#458CA5" stroke="#458CA5"/>
<path opacity="0.1" d="M334.863 274.49L413.597 312.393L268.456 191.442L334.863 274.49Z" fill="#458CA5" stroke="#458CA5"/>
<path d="M-359.487 137.88L-391.6 197.271L-505.954 268.403L-396.984 279.858L-474.022 159.308L-307.194 195.43L-165.578 133.953L-62.6438 159.184L58.6885 114.243L106.153 50.7754L208.985 108.372L51.6782 186.182L-62.6438 159.184L-136.75 182.692L-165.578 133.953L-52.2473 107.098L-229.359 56.9065L-200.993 268.423" stroke="#458CA5" stroke-width="2" stroke-miterlimit="10"/>
<path d="M-52.2477 107.098L58.6881 114.243L264.978 187.893L51.6778 186.182L106.152 50.7754L-52.2477 107.098Z" stroke="#458CA5" stroke-width="2" stroke-miterlimit="10"/>
<path d="M58.6886 114.243L208.985 108.372L264.978 187.892L327.613 106.202L515.493 237.774L417.211 314.564L334.544 274.891L264.978 187.892L173.883 225.136L51.6782 186.182L-52.2472 107.098L-136.75 182.692L-302.283 127.179L-200.993 268.423L-391.6 197.271L-471.021 329.07L-557.515 304.896L-505.954 268.403" stroke="#458CA5" stroke-width="2" stroke-miterlimit="10"/>
<path d="M417.211 314.564L327.613 106.202L334.544 274.891L515.493 237.774L173.883 225.136L-52.2472 107.098L-396.984 279.858L-606.98 156.464L-474.022 159.308" stroke="#458CA5" stroke-width="2" stroke-miterlimit="10"/>
<path d="M515.493 237.774L208.985 108.372" stroke="#458CA5" stroke-width="2" stroke-miterlimit="10"/>
<path d="M-589.054 205.386L-368.376 350.678L-238.901 233.17L-475.54 97.397L-110.274 210.737L-67.0431 61.0207L-303.022 99.604L60.4124 210.073L250.485 56.1231L-22.363 68.2352L149.279 286.306L158.55 4.36084L297.325 187.686L-123.31 112.7L-375.206 231.524L-589.054 205.386Z" stroke="#458CA5" stroke-width="2.5" stroke-miterlimit="10"/>
<path d="M297.325 187.686L379.642 212.007L506.56 152.777L510.076 213.03L345.881 145.699L297.325 187.686ZM297.325 187.686L149.278 286.306L250.484 56.1231L158.549 4.36084L60.4118 210.073L-22.3637 68.2352L-67.0438 61.0206L-123.31 112.7L-238.902 233.17L-303.023 99.604L-375.207 231.524L-110.274 210.737L-22.3637 68.2352L345.881 145.699" stroke="#458CA5" stroke-width="2.5" stroke-miterlimit="10"/>
<path d="M345.881 145.699L250.484 56.123L510.076 213.03L379.642 212.007L345.881 145.699Z" stroke="#458CA5" stroke-width="2.5" stroke-miterlimit="10"/>
<path d="M263.944 183.23C266.791 182.7 269.505 184.407 270.064 186.956L263.944 183.23ZM263.944 183.23C261.11 183.762 259.342 186.289 259.898 188.826C260.457 191.375 263.172 193.082 266.018 192.552C268.853 192.02 270.62 189.493 270.064 186.956L263.944 183.23Z" fill="#458CA5" stroke="#458CA5"/>
<path d="M174.591 228.291C176.477 227.939 177.653 226.296 177.364 224.635L177.336 224.506C176.96 222.79 175.123 221.62 173.178 221.986L173.178 221.986C171.244 222.348 170.058 224.065 170.433 225.768C170.812 227.488 172.647 228.654 174.591 228.291Z" fill="#458CA5" stroke="#458CA5"/>
<path d="M518.911 237.014L518.939 237.142C519.314 238.845 518.128 240.562 516.194 240.924L516.194 240.924C514.249 241.29 512.412 240.12 512.036 238.405L518.911 237.014ZM518.911 237.014C518.473 235.37 516.68 234.268 514.784 234.622L518.911 237.014ZM514.784 234.622C512.851 234.984 511.664 236.701 512.036 238.404L514.784 234.622Z" fill="#458CA5" stroke="#458CA5"/>
<path d="M513.526 212.4C513.15 210.684 511.312 209.514 509.368 209.877L513.526 212.4ZM509.367 209.877C507.434 210.239 506.247 211.956 506.62 213.66C506.995 215.375 508.833 216.545 510.778 216.182C512.714 215.821 513.898 214.104 513.526 212.4L509.367 209.877Z" fill="#458CA5" stroke="#458CA5"/>
<path d="M381.801 211.384L381.8 211.383C381.555 210.255 380.338 209.468 379.031 209.714L379.03 209.714C377.732 209.956 376.96 211.099 377.206 212.212L377.206 212.214C377.452 213.342 378.668 214.128 379.975 213.882L379.976 213.882C381.274 213.641 382.046 212.497 381.801 211.384Z" fill="#458CA5" stroke="#458CA5"/>
<path d="M299.621 187.273L299.621 187.272C299.375 186.144 298.158 185.357 296.852 185.603L296.851 185.604C295.553 185.845 294.781 186.988 295.026 188.102L295.026 188.103C295.272 189.231 296.489 190.018 297.795 189.772L297.796 189.771C299.094 189.53 299.866 188.387 299.621 187.273Z" fill="#458CA5" stroke="#458CA5"/>
<path d="M348.178 145.286L348.177 145.285C347.932 144.157 346.715 143.37 345.408 143.616L345.407 143.616C344.109 143.858 343.337 145.001 343.583 146.114L343.583 146.115C343.829 147.243 345.045 148.03 346.352 147.784L346.353 147.784C347.651 147.542 348.423 146.399 348.178 145.286Z" fill="#458CA5" stroke="#458CA5"/>
<path d="M252.78 55.7069L252.78 55.7057C252.534 54.5778 251.317 53.7909 250.011 54.037L250.01 54.0372C248.712 54.2788 247.94 55.4219 248.185 56.5352L248.185 56.5364C248.431 57.6643 249.648 58.4512 250.954 58.2051L250.955 58.205C252.253 57.9633 253.025 56.8202 252.78 55.7069ZM253.268 55.5993C252.958 54.1757 251.458 53.2556 249.918 53.5456C248.378 53.8323 247.383 55.2192 247.697 56.6428L253.268 55.5993Z" fill="#458CA5" stroke="#458CA5"/>
<path d="M508.931 152.704L508.931 152.703C508.685 151.575 507.469 150.788 506.162 151.034L506.161 151.034C504.863 151.276 504.091 152.419 504.337 153.532L504.337 153.533C504.583 154.661 505.799 155.448 507.106 155.202L507.107 155.202C508.405 154.96 509.177 153.817 508.931 152.704Z" fill="#458CA5" stroke="#458CA5"/>
<path d="M208.281 105.223L208.28 105.223C206.347 105.585 205.16 107.302 205.532 109.006C205.908 110.721 207.746 111.891 209.691 111.528C211.624 111.166 212.81 109.449 212.435 107.746L212.399 107.584C211.949 105.956 210.165 104.868 208.281 105.223Z" fill="#458CA5" stroke="#458CA5"/>
<path d="M63.3211 209.727L63.3209 209.726C63.0751 208.598 61.8583 207.811 60.5519 208.057L60.5509 208.057C59.253 208.299 58.4809 209.442 58.7262 210.555L58.7265 210.556C58.9722 211.684 60.189 212.471 61.4955 212.225L61.4965 212.225C62.7944 211.983 63.5665 210.84 63.3211 209.727Z" fill="#458CA5" stroke="#458CA5"/>
<path d="M52.3835 189.338C54.2689 188.985 55.4445 187.343 55.156 185.681L55.1277 185.552C54.7523 183.836 52.9145 182.667 50.9702 183.033L50.9696 183.033C49.0363 183.394 47.8499 185.111 48.2251 186.814L48.2252 186.815C48.6006 188.531 50.4386 189.701 52.3835 189.338Z" fill="#458CA5" stroke="#458CA5"/>
<path d="M105.545 47.6059L105.545 47.606C103.611 47.9675 102.424 49.6847 102.797 51.3883C103.172 53.1038 105.01 54.2741 106.955 53.9109C108.888 53.5493 110.075 51.832 109.703 50.1284L109.691 50.0756V50.0745C109.291 48.3867 107.47 47.2434 105.545 47.6059Z" fill="#458CA5" stroke="#458CA5"/>
<path d="M62.1683 113.753C62.4475 115.41 61.2732 117.043 59.3932 117.395C57.4484 117.758 55.6104 116.588 55.235 114.873L55.2348 114.872C54.8597 113.169 56.0461 111.452 57.9793 111.09L62.1683 113.753ZM62.1683 113.753L62.1376 113.613C61.7621 111.897 59.9243 110.727 57.9794 111.09L62.1683 113.753Z" fill="#458CA5" stroke="#458CA5"/>
<path d="M160.848 3.94812L160.848 3.94694C160.602 2.81903 159.386 2.03209 158.079 2.27818L158.078 2.27837C156.78 2.52004 156.008 3.66314 156.254 4.77642L156.254 4.7776C156.5 5.9055 157.716 6.69245 159.023 6.44636L159.024 6.44617C160.322 6.2045 161.094 5.0614 160.848 3.94812Z" fill="#458CA5" stroke="#458CA5"/>
<path d="M332.079 106.658L332.079 106.658C331.588 104.407 329.185 102.896 326.666 103.366L326.666 103.366C324.153 103.834 322.597 106.074 323.085 108.308L323.085 108.309C323.576 110.56 325.979 112.071 328.498 111.601L328.498 111.601C331.011 111.133 332.567 108.893 332.079 106.658Z" fill="#458CA5" stroke="#458CA5"/>
<path opacity="0.2" d="M1904.86 117.709L2013.63 110.704L1911.73 188.242L1904.86 117.709Z" fill="#458CA5" stroke="#458CA5"/>
<path opacity="0.1" d="M1904.55 116.727L1858.14 54.7847L2012.79 109.756L1904.55 116.727Z" fill="#458CA5" stroke="#458CA5"/>
<path opacity="0.1" d="M1754.61 111.612L1855.78 54.8757L1789.18 226.598L1754.61 111.612Z" fill="#458CA5" stroke="#458CA5"/>
<path opacity="0.2" d="M1754.36 111.753L1852.68 56.6147L1700.77 187.857L1754.36 111.753Z" fill="#458CA5" stroke="#458CA5"/>
<path opacity="0.2" d="M1546.96 316.568L1634.78 111.894L1627.97 277.571L1546.96 316.568Z" fill="#458CA5" stroke="#458CA5"/>
<path opacity="0.1" d="M1628.14 277.49L1549.4 315.393L1694.54 194.442L1628.14 277.49Z" fill="#458CA5" stroke="#458CA5"/>
<path d="M2322.49 140.88L2354.6 200.271L2468.95 271.403L2359.98 282.858L2437.02 162.308L2270.19 198.43L2128.58 136.953L2025.64 162.184L1904.31 117.243L1856.85 53.7754L1754.01 111.372L1911.32 189.182L2025.64 162.184L2099.75 185.692L2128.58 136.953L2015.25 110.098L2192.36 59.9065L2163.99 271.423" stroke="#458CA5" stroke-width="2" stroke-miterlimit="10"/>
<path d="M2015.25 110.098L1904.31 117.243L1698.02 190.893L1911.32 189.182L1856.85 53.7754L2015.25 110.098Z" stroke="#458CA5" stroke-width="2" stroke-miterlimit="10"/>
<path d="M1904.31 117.243L1754.01 111.372L1698.02 190.892L1635.39 109.202L1447.51 240.774L1545.79 317.564L1628.46 277.891L1698.02 190.892L1789.12 228.136L1911.32 189.182L2015.25 110.098L2099.75 185.692L2265.28 130.179L2163.99 271.423L2354.6 200.271L2434.02 332.07L2520.51 307.896L2468.95 271.403" stroke="#458CA5" stroke-width="2" stroke-miterlimit="10"/>
<path d="M1545.79 317.564L1635.39 109.202L1628.46 277.891L1447.51 240.774L1789.12 228.136L2015.25 110.098L2359.98 282.858L2569.98 159.464L2437.02 162.308" stroke="#458CA5" stroke-width="2" stroke-miterlimit="10"/>
<path d="M1447.51 240.774L1754.01 111.372" stroke="#458CA5" stroke-width="2" stroke-miterlimit="10"/>
<path d="M2552.05 208.386L2331.38 353.678L2201.9 236.17L2438.54 100.397L2073.27 213.737L2030.04 64.0207L2266.02 102.604L1902.59 213.073L1712.52 59.1231L1985.36 71.2352L1813.72 289.306L1804.45 7.36084L1665.67 190.686L2086.31 115.7L2338.21 234.524L2552.05 208.386Z" stroke="#458CA5" stroke-width="2.5" stroke-miterlimit="10"/>
<path d="M1665.68 190.686L1583.36 215.007L1456.44 155.777L1452.92 216.03L1617.12 148.699L1665.68 190.686ZM1665.68 190.686L1813.72 289.306L1712.52 59.1231L1804.45 7.36084L1902.59 213.073L1985.36 71.2352L2030.04 64.0206L2086.31 115.7L2201.9 236.17L2266.02 102.604L2338.21 234.524L2073.27 213.737L1985.36 71.2352L1617.12 148.699" stroke="#458CA5" stroke-width="2.5" stroke-miterlimit="10"/>
<path d="M1617.12 148.699L1712.52 59.123L1452.92 216.03L1583.36 215.007L1617.12 148.699Z" stroke="#458CA5" stroke-width="2.5" stroke-miterlimit="10"/>
<path d="M1699.06 186.23C1696.21 185.7 1693.5 187.407 1692.94 189.956L1699.06 186.23ZM1699.06 186.23C1701.89 186.762 1703.66 189.289 1703.1 191.826C1702.54 194.375 1699.83 196.082 1696.98 195.552C1694.15 195.02 1692.38 192.493 1692.94 189.956L1699.06 186.23Z" fill="#458CA5" stroke="#458CA5"/>
<path d="M1788.41 231.291C1786.52 230.939 1785.35 229.296 1785.64 227.635L1785.66 227.506C1786.04 225.79 1787.88 224.62 1789.82 224.986L1789.82 224.986C1791.76 225.348 1792.94 227.065 1792.57 228.768C1792.19 230.488 1790.35 231.654 1788.41 231.291Z" fill="#458CA5" stroke="#458CA5"/>
<path d="M1444.09 240.014L1444.06 240.142C1443.69 241.845 1444.87 243.562 1446.81 243.924L1446.81 243.924C1448.75 244.29 1450.59 243.12 1450.96 241.405L1444.09 240.014ZM1444.09 240.014C1444.53 238.37 1446.32 237.268 1448.22 237.622L1444.09 240.014ZM1448.22 237.622C1450.15 237.984 1451.34 239.701 1450.96 241.404L1448.22 237.622Z" fill="#458CA5" stroke="#458CA5"/>
<path d="M1452.22 219.182C1454.17 219.545 1456 218.375 1456.38 216.66L1452.22 219.182ZM1452.22 219.182C1450.29 218.821 1449.1 217.104 1449.47 215.4L1452.22 219.182ZM1449.47 215.4C1449.85 213.684 1451.69 212.514 1453.63 212.877L1449.47 215.4ZM1453.63 212.877C1455.57 213.239 1456.75 214.956 1456.38 216.66L1453.63 212.877Z" fill="#458CA5" stroke="#458CA5"/>
<path d="M1581.2 214.384L1581.2 214.383C1581.45 213.255 1582.66 212.468 1583.97 212.714L1583.97 212.714C1585.27 212.956 1586.04 214.099 1585.79 215.212L1585.79 215.214C1585.55 216.342 1584.33 217.128 1583.03 216.882L1583.02 216.882C1581.73 216.641 1580.95 215.497 1581.2 214.384Z" fill="#458CA5" stroke="#458CA5"/>
<path d="M1663.38 190.273L1663.38 190.272C1663.63 189.144 1664.84 188.357 1666.15 188.603L1666.15 188.604C1667.45 188.845 1668.22 189.988 1667.97 191.102L1667.97 191.103C1667.73 192.231 1666.51 193.018 1665.2 192.772L1665.2 192.771C1663.91 192.53 1663.13 191.387 1663.38 190.273ZM1662.89 190.166C1663.2 188.742 1664.7 187.822 1666.24 188.112L1662.89 190.166Z" fill="#458CA5" stroke="#458CA5"/>
<path d="M1614.82 148.286L1614.82 148.285C1615.07 147.157 1616.29 146.37 1617.59 146.616L1617.59 146.616C1618.89 146.858 1619.66 148.001 1619.42 149.114L1619.42 149.115C1619.17 150.243 1617.95 151.03 1616.65 150.784L1616.65 150.784C1615.35 150.542 1614.58 149.399 1614.82 148.286Z" fill="#458CA5" stroke="#458CA5"/>
<path d="M1710.22 58.7069L1710.22 58.7057C1710.47 57.5778 1711.68 56.7909 1712.99 57.037L1712.99 57.0372C1714.29 57.2788 1715.06 58.4219 1714.81 59.5352L1714.81 59.5364C1714.57 60.6643 1713.35 61.4512 1712.05 61.2051L1712.04 61.205C1710.75 60.9633 1709.97 59.8202 1710.22 58.7069ZM1709.73 58.5993C1710.04 57.1757 1711.54 56.2556 1713.08 56.5456L1709.73 58.5993Z" fill="#458CA5" stroke="#458CA5"/>
<path d="M1454.07 155.704L1454.07 155.703C1454.31 154.575 1455.53 153.788 1456.84 154.034L1456.84 154.034C1458.14 154.276 1458.91 155.419 1458.66 156.532L1458.66 156.533C1458.42 157.661 1457.2 158.448 1455.89 158.202L1455.89 158.202C1454.6 157.96 1453.82 156.817 1454.07 155.704Z" fill="#458CA5" stroke="#458CA5"/>
<path d="M1754.72 108.223L1754.72 108.223C1752.84 107.868 1751.05 108.956 1750.6 110.584L1750.56 110.746C1750.19 112.449 1751.38 114.166 1753.31 114.528C1755.25 114.891 1757.09 113.721 1757.47 112.006L1754.72 108.223ZM1754.72 108.223C1756.65 108.585 1757.84 110.302 1757.47 112.006L1754.72 108.223Z" fill="#458CA5" stroke="#458CA5"/>
<path d="M1899.68 212.727L1899.68 212.726C1899.92 211.598 1901.14 210.811 1902.45 211.057L1902.45 211.057C1903.75 211.299 1904.52 212.442 1904.27 213.555L1904.27 213.556C1904.03 214.684 1902.81 215.471 1901.5 215.225L1901.5 215.225C1900.21 214.983 1899.43 213.84 1899.68 212.727Z" fill="#458CA5" stroke="#458CA5"/>
<path d="M1910.62 192.338C1908.73 191.985 1907.56 190.343 1907.84 188.681L1907.87 188.552C1908.25 186.836 1910.09 185.667 1912.03 186.033L1912.03 186.033C1913.96 186.394 1915.15 188.111 1914.77 189.814L1914.77 189.815C1914.4 191.531 1912.56 192.701 1910.62 192.338Z" fill="#458CA5" stroke="#458CA5"/>
<path d="M1857.46 50.606L1857.45 50.6059C1855.53 50.2434 1853.71 51.3867 1853.31 53.0745V53.0756L1853.3 53.1284C1852.93 54.832 1854.11 56.5493 1856.05 56.9109C1857.99 57.2741 1859.83 56.1039 1860.2 54.3885L1857.46 50.606ZM1857.46 50.606C1859.39 50.9675 1860.58 52.6847 1860.2 54.3883L1857.46 50.606Z" fill="#458CA5" stroke="#458CA5"/>
<path d="M1900.83 116.753C1900.55 118.41 1901.73 120.043 1903.61 120.395C1905.55 120.758 1907.39 119.588 1907.77 117.873L1907.77 117.872C1908.14 116.169 1906.95 114.452 1905.02 114.09L1900.83 116.753ZM1900.83 116.753L1900.86 116.613C1901.24 114.897 1903.08 113.727 1905.02 114.09L1900.83 116.753Z" fill="#458CA5" stroke="#458CA5"/>
<path d="M1802.15 6.94812L1802.15 6.94694C1802.4 5.81903 1803.61 5.03209 1804.92 5.27818L1804.92 5.27837C1806.22 5.52004 1806.99 6.66314 1806.75 7.77642L1806.75 7.7776C1806.5 8.9055 1805.28 9.69245 1803.98 9.44636L1803.98 9.44617C1802.68 9.2045 1801.91 8.0614 1802.15 6.94812Z" fill="#458CA5" stroke="#458CA5"/>
<path d="M1630.92 109.658L1630.92 109.658C1631.41 107.407 1633.82 105.896 1636.33 106.366L1636.33 106.366C1638.85 106.834 1640.4 109.074 1639.92 111.308L1639.92 111.309C1639.42 113.56 1637.02 115.071 1634.5 114.601L1634.5 114.601C1631.99 114.133 1630.43 111.893 1630.92 109.658Z" fill="#458CA5" stroke="#458CA5"/>
<path opacity="0.2" d="M814.766 276.166L763.041 218.947L726.571 359.412L814.766 276.166Z" fill="#458CA5" stroke="#458CA5"/>
<path opacity="0.2" d="M984.899 263.785L821.426 208.723L921.65 348.685L984.899 263.785Z" fill="#458CA5" stroke="#458CA5"/>
<path opacity="0.1" d="M893.751 138.529L921.795 346.926L955.793 214.646L893.751 138.529Z" fill="#458CA5" stroke="#458CA5"/>
<path opacity="0.2" d="M1180.78 195.818L1072.01 188.813L1173.9 266.351L1180.78 195.818Z" fill="#458CA5" stroke="#458CA5"/>
<path opacity="0.1" d="M1181.09 194.837L1227.49 132.895L1072.84 187.866L1181.09 194.837Z" fill="#458CA5" stroke="#458CA5"/>
<path opacity="0.1" d="M1331.03 189.722L1229.85 132.986L1296.46 304.708L1331.03 189.722Z" fill="#458CA5" stroke="#458CA5"/>
<path opacity="0.2" d="M1331.28 189.863L1232.95 134.725L1384.86 265.966L1331.28 189.863Z" fill="#458CA5" stroke="#458CA5"/>
<path opacity="0.2" d="M1538.67 394.678L1450.86 190.004L1457.67 355.68L1538.67 394.678Z" fill="#458CA5" stroke="#458CA5"/>
<path d="M651.613 410.18L616.681 349.513L725.651 360.968L815.44 276.54L763.148 218.99L820.352 208.289L815.44 276.54L985.885 263.802L921.641 349.533L820.352 208.289L731.035 278.381L648.613 240.417L616.681 349.513" stroke="#458CA5" stroke-width="2" stroke-miterlimit="10"/>
<path d="M820.351 208.288L893.275 138.016L957.057 215.063L820.351 208.288Z" stroke="#458CA5" stroke-width="2" stroke-miterlimit="10"/>
<path d="M763.148 218.99L731.035 278.381L616.681 349.513L725.651 360.968L648.613 240.417L815.44 276.54L957.057 215.063L1059.99 240.294L1181.32 195.353L1228.79 131.885L1331.62 189.482L1174.31 267.292L1059.99 240.294L985.885 263.801L957.057 215.063L1070.39 188.208L893.275 138.016L921.641 349.533" stroke="#458CA5" stroke-width="2" stroke-miterlimit="10"/>
<path d="M1070.39 188.208L1181.32 195.353L1387.61 269.002L1174.31 267.292L1228.79 131.885L1070.39 188.208Z" stroke="#458CA5" stroke-width="2" stroke-miterlimit="10"/>
<path d="M1181.32 195.353L1331.62 189.482L1387.61 269.002L1450.25 187.312L1638.13 318.884L1539.85 395.674L1457.18 356.001L1387.61 269.002L1296.52 306.245L1174.31 267.292L1070.39 188.208L985.885 263.801L820.352 208.288L921.641 349.533L731.035 278.381L651.613 410.18L565.12 386.006L616.681 349.513" stroke="#458CA5" stroke-width="2" stroke-miterlimit="10"/>
<path d="M1539.85 395.674L1450.25 187.312L1457.18 356.001L1638.13 318.884L1296.52 306.245L1070.39 188.208L725.651 360.968L515.655 237.574L648.613 240.417" stroke="#458CA5" stroke-width="2" stroke-miterlimit="10"/>
<path d="M1638.13 318.884L1331.62 189.482" stroke="#458CA5" stroke-width="2" stroke-miterlimit="10"/>
<path d="M533.581 286.496L754.259 431.787L883.734 314.28L647.095 178.507L1012.36 291.846L1055.59 142.131L819.613 180.714L1183.05 291.183L1373.12 137.233L1100.27 149.345L1271.91 367.416L1281.18 85.4707L1419.96 268.796L999.325 193.809L747.429 312.633L533.581 286.496Z" stroke="#458CA5" stroke-width="2.5" stroke-miterlimit="10"/>
<path d="M754.258 431.787L747.428 312.633L883.733 314.28L819.612 180.713L999.324 193.809L533.58 286.495" stroke="#458CA5" stroke-width="2.5" stroke-miterlimit="10"/>
<path d="M1419.96 268.796L1502.28 293.117L1629.19 233.886L1632.71 294.14L1468.52 226.809L1419.96 268.796ZM1419.96 268.796L1271.91 367.416L1373.12 137.233L1281.18 85.4707L1183.05 291.183L1100.27 149.345L1055.59 142.131L999.324 193.809L883.733 314.28L819.612 180.714L747.428 312.633L1012.36 291.846L1100.27 149.345L1468.52 226.809" stroke="#458CA5" stroke-width="2.5" stroke-miterlimit="10"/>
<path d="M647.095 178.507L747.429 312.633" stroke="#458CA5" stroke-width="2.5" stroke-miterlimit="10"/>
<path d="M1468.52 226.808L1373.12 137.233L1632.71 294.14L1502.28 293.117L1468.52 226.808Z" stroke="#458CA5" stroke-width="2.5" stroke-miterlimit="10"/>
<path d="M1075.57 187.732L1075.54 187.552C1074.98 185.003 1072.26 183.296 1069.42 183.826C1066.58 184.357 1064.81 186.885 1065.37 189.422C1065.93 191.971 1068.64 193.677 1071.49 193.144C1074.25 192.626 1076.01 190.207 1075.57 187.732Z" fill="#458CA5" stroke="#458CA5"/>
<path d="M823.838 207.81L823.805 207.658C823.429 205.943 821.591 204.773 819.646 205.136L823.838 207.81ZM823.838 207.81C824.108 209.461 822.935 211.087 821.06 211.437L821.059 211.437C819.115 211.803 817.277 210.634 816.902 208.918L816.902 208.917C816.527 207.214 817.713 205.497 819.646 205.136L823.838 207.81Z" fill="#458CA5" stroke="#458CA5"/>
<path d="M653.212 239.521L653.223 239.573C653.776 242.111 652.008 244.638 649.174 245.17C646.327 245.7 643.613 243.993 643.054 241.444C642.501 238.906 644.269 236.379 647.104 235.848L653.212 239.521ZM653.212 239.521V239.519M653.212 239.521V239.519M653.212 239.519C652.628 236.999 649.931 235.318 647.104 235.848L653.212 239.519Z" fill="#458CA5" stroke="#458CA5"/>
<path d="M516.363 240.726C518.243 240.374 519.417 238.741 519.138 237.085L519.107 236.944C518.732 235.228 516.894 234.058 514.95 234.424L514.949 234.424C513.016 234.786 511.829 236.503 512.205 238.206L512.205 238.207C512.58 239.922 514.418 241.092 516.362 240.726L516.363 240.726Z" fill="#458CA5" stroke="#458CA5"/>
<path d="M1470.81 226.396L1470.81 226.395C1470.57 225.267 1469.35 224.48 1468.04 224.726L1468.04 224.726C1466.74 224.968 1465.97 226.111 1466.22 227.224L1466.22 227.225C1466.46 228.353 1467.68 229.14 1468.99 228.894L1468.99 228.894C1470.29 228.652 1471.06 227.509 1470.81 226.396Z" fill="#458CA5" stroke="#458CA5"/>
<path d="M1375.41 136.817L1375.41 136.816C1375.17 135.688 1373.95 134.901 1372.65 135.147L1372.64 135.147C1371.35 135.389 1370.57 136.532 1370.82 137.645L1370.82 137.646C1371.07 138.774 1372.28 139.561 1373.59 139.315L1373.59 139.315C1374.89 139.073 1375.66 137.93 1375.41 136.817ZM1375.9 136.709C1375.59 135.286 1374.09 134.365 1372.55 134.655L1375.9 136.709Z" fill="#458CA5" stroke="#458CA5"/>
<path d="M1631.57 233.814L1631.57 233.813C1631.32 232.685 1630.1 231.898 1628.8 232.144L1628.8 232.144C1627.5 232.386 1626.73 233.529 1626.97 234.642L1626.97 234.643C1627.22 235.771 1628.43 236.558 1629.74 236.312L1629.74 236.312C1631.04 236.07 1631.81 234.927 1631.57 233.814Z" fill="#458CA5" stroke="#458CA5"/>
<path d="M1330.92 186.333L1330.92 186.332C1332.8 185.978 1334.58 187.065 1335.03 188.693L1335.07 188.856C1335.44 190.559 1334.26 192.276 1332.33 192.637C1330.38 193.001 1328.54 191.83 1328.17 190.115L1330.92 186.333ZM1330.92 186.333C1328.98 186.694 1327.79 188.411 1328.17 190.115L1330.92 186.333Z" fill="#458CA5" stroke="#458CA5"/>
<path d="M1228.18 128.716L1228.18 128.716C1230.1 128.353 1231.93 129.497 1232.33 131.184V131.185L1232.34 131.238C1232.71 132.942 1231.52 134.659 1229.59 135.021C1227.64 135.384 1225.81 134.214 1225.43 132.498L1228.18 128.716ZM1228.18 128.716C1226.25 129.077 1225.06 130.795 1225.43 132.498L1228.18 128.716Z" fill="#458CA5" stroke="#458CA5"/>
<path d="M1184.8 194.863C1185.08 196.52 1183.91 198.153 1182.03 198.505C1180.08 198.868 1178.25 197.698 1177.87 195.982L1177.87 195.982C1177.49 194.279 1178.68 192.562 1180.61 192.2L1184.8 194.863ZM1184.8 194.863L1184.77 194.723C1184.4 193.007 1182.56 191.837 1180.61 192.2L1184.8 194.863Z" fill="#458CA5" stroke="#458CA5"/>
<path d="M893.984 141.169C895.864 140.817 897.038 139.184 896.759 137.528L896.728 137.386C896.353 135.671 894.515 134.501 892.571 134.867L892.57 134.867C890.637 135.229 889.451 136.946 889.826 138.649L889.826 138.65C890.201 140.365 892.039 141.535 893.983 141.169L893.984 141.169Z" fill="#458CA5" stroke="#458CA5"/>
<path d="M959.963 214.69L959.93 214.54C959.554 212.824 957.716 211.654 955.771 212.017L959.963 214.69ZM959.963 214.69C960.233 216.342 959.06 217.968 957.185 218.319L957.184 218.319C955.24 218.685 953.402 217.515 953.027 215.799L953.027 215.799C952.652 214.096 953.838 212.379 955.771 212.017L959.963 214.69Z" fill="#458CA5" stroke="#458CA5"/>
<path d="M765.328 218.598L765.328 218.596C765.082 217.468 763.865 216.682 762.559 216.928L762.558 216.928C761.26 217.169 760.488 218.313 760.733 219.426L760.733 219.427C760.979 220.555 762.196 221.342 763.502 221.096L763.503 221.096C764.801 220.854 765.573 219.711 765.328 218.598Z" fill="#458CA5" stroke="#458CA5"/>
<path d="M649.39 178.094L649.39 178.093C649.144 176.965 647.928 176.178 646.621 176.424L646.62 176.424C645.322 176.666 644.55 177.809 644.796 178.922L644.796 178.924C645.042 180.052 646.258 180.838 647.565 180.592L647.566 180.592C648.864 180.35 649.636 179.207 649.39 178.094Z" fill="#458CA5" stroke="#458CA5"/>
<path d="M821.908 180.301L821.908 180.3C821.662 179.172 820.445 178.385 819.139 178.631L819.138 178.631C817.84 178.873 817.068 180.016 817.313 181.129L817.313 181.131C817.559 182.259 818.776 183.045 820.082 182.799L820.083 182.799C821.381 182.558 822.153 181.414 821.908 180.301Z" fill="#458CA5" stroke="#458CA5"/>
<path d="M1001.62 193.397L1001.62 193.396C1001.38 192.268 1000.16 191.481 998.855 191.727L998.854 191.727C997.556 191.969 996.784 193.112 997.029 194.225L997.029 194.226C997.275 195.354 998.492 196.141 999.798 195.895L999.799 195.895C1001.1 195.653 1001.87 194.51 1001.62 193.397Z" fill="#458CA5" stroke="#458CA5"/>
<path d="M1056.92 142.268L1056.92 142.267C1056.68 141.139 1055.46 140.352 1054.15 140.598L1054.15 140.598C1052.86 140.84 1052.08 141.983 1052.33 143.096L1052.33 143.097C1052.57 144.225 1053.79 145.012 1055.1 144.766L1055.1 144.766C1056.4 144.524 1057.17 143.381 1056.92 142.268Z" fill="#458CA5" stroke="#458CA5"/>
<path d="M1102.57 148.929L1102.57 148.928C1102.33 147.8 1101.11 147.013 1099.8 147.259L1099.8 147.259C1098.5 147.501 1097.73 148.644 1097.98 149.757L1097.98 149.759C1098.22 150.886 1099.44 151.673 1100.75 151.427L1100.75 151.427C1102.04 151.185 1102.82 150.042 1102.57 148.929Z" fill="#458CA5" stroke="#458CA5"/>
<path d="M1283.48 85.058L1283.48 85.0568C1283.24 83.9289 1282.02 83.142 1280.71 83.388L1280.71 83.3882C1279.42 83.6299 1278.64 84.773 1278.89 85.8863L1278.89 85.8875C1279.13 87.0154 1280.35 87.8023 1281.66 87.5562L1281.66 87.556C1282.96 87.3144 1283.73 86.1713 1283.48 85.058Z" fill="#458CA5" stroke="#458CA5"/>
<path d="M1454.71 187.768L1454.71 187.768C1454.22 185.517 1451.82 184.005 1449.3 184.476L1449.3 184.476C1446.79 184.944 1445.23 187.184 1445.72 189.418L1445.72 189.418C1446.21 191.67 1448.61 193.181 1451.13 192.711L1451.13 192.711C1453.65 192.243 1455.2 190.003 1454.71 187.768Z" fill="#458CA5" stroke="#458CA5"/>
</svg>
