<svg xmlns="http://www.w3.org/2000/svg" xmlns:xlink="http://www.w3.org/1999/xlink" version="1.1" x="0px" y="0px" viewBox="0 0 64 80" style="enable-background:new 0 0 64 64;" xml:space="preserve"><g><rect y="29" width="64" height="5.8"/><path d="M18.8,58c7.5,6.8,18.8,6.8,26.2,0L31.9,44.9L18.8,58z"/><rect x="4.7" y="10.6" width="5.8" height="16.5"/><rect x="14.4" y="2.8" width="5.8" height="24.2"/><rect x="24.2" y="10.6" width="5.8" height="16.5"/><rect x="33.9" y="4.8" width="5.8" height="22.3"/><rect x="43.7" y="10.6" width="5.8" height="16.5"/><rect x="53.4" y="0.9" width="5.8" height="26.2"/><path d="M40,36.8l-6.8,6.8l13.1,13.1c5-5.5,6.4-13.1,3.9-19.9H40z"/><path d="M37.3,36.8H13.6c-1.2,3.4-1.2,5.9-1.2,7.7h17.3L37.3,36.8z"/><path d="M4,46.2c0,7.1,2.2,11.3,6.4,15.4l15.4-15.4H4z"/></g></svg>