<?xml version="1.0" encoding="UTF-8" standalone="no"?>
<svg version="1.1" x="0px" y="0px" viewBox="0 0 100 125" enable-background="new 0 0 100 100" xml:space="preserve" xmlns="http://www.w3.org/2000/svg">
    <g>
        <g transform="rotate(-90,25,75)">
            <path d="M 85.783,76.75 H 14.217 c -1.104,0 -2,-0.896 -2,-2 0,-1.104 0.896,-2 2,-2 h 71.566 c 1.104,0 2,0.896 2,2 0,1.104 -0.895,2 -2,2 z" />
        </g>
        <g transform="matrix(0,-1,-1,0,100,136)">
            <path d="m 69.217,76 h -11.75 c -1.104,0 -2,-0.896 -2,-2 V 53.75 c 0,-1.104 0.896,-2 2,-2 h 11.75 c 1.104,0 2,0.896 2,2 V 74 c 0,1.104 -0.896,2 -2,2 z" />
        </g>
        <g transform="rotate(90,52,50)">
            <path d="m 47.217,76.5 h -11.75 c -1.104,0 -2,-0.896 -2,-2 v -35 c 0,-1.104 0.896,-2 2,-2 h 11.75 c 1.104,0 2,0.896 2,2 v 35 c 0,1.104 -0.896,2 -2,2 z" />
        </g>
        <g transform="rotate(90,48,52)">
            <path d="m 28.717,76.5 h -11.75 c -1.104,0 -2,-0.896 -2,-2 V 25.25 c 0,-1.104 0.896,-2 2,-2 h 11.75 c 1.104,0 2,0.896 2,2 V 74.5 c 0,1.104 -0.896,2 -2,2 z" />
        </g>
        <g transform="matrix(0,-1,-1,0,100,138)">
            <path d="m 82.783,76.5 h -11.75 c -1.104,0 -2,-0.896 -2,-2 V 25.25 c 0,-1.104 0.896,-2 2,-2 h 11.75 c 1.104,0 2,0.896 2,2 V 74.5 c 0,1.104 -0.895,2 -2,2 z" />
        </g>
    </g>
</svg>
